<?xml version="1.0" standalone="no"?>
<!DOCTYPE svg PUBLIC "-//W3C//DTD SVG 1.1//EN" "http://www.w3.org/Graphics/SVG/1.1/DTD/svg11.dtd" >
<svg xmlns="http://www.w3.org/2000/svg" xmlns:xlink="http://www.w3.org/1999/xlink" version="1.1">
<metadata>
Created by FontForge 20170104 at Fri Mar 13 14:23:32 2015
 By myTaste
Copyright \(c\) 2015 by Fontfabric LLC. All rights reserved.
</metadata>
<defs>
<font id="MullerUltraLight" horiz-adv-x="577" >
  <font-face 
    font-family="Muller UltraLight"
    font-weight="250"
    font-stretch="normal"
    units-per-em="1000"
    panose-1="0 0 0 0 0 0 0 0 0 0"
    ascent="780"
    descent="-220"
    x-height="480"
    cap-height="700"
    bbox="-158 -231.023 1219 932"
    underline-thickness="50"
    underline-position="-125"
    stemh="30"
    stemv="38"
    unicode-range="U+0020-25CA"
  />
<missing-glyph horiz-adv-x="283" 
 />
    <glyph glyph-name="f_f" unicode="ff" horiz-adv-x="666" 
d="M689 662c-25 14 -68 23 -108 23c-67 0 -126 -27 -126 -120v-85h205v-36h-205v-444h-38v444h-272v-444h-38v444h-84v36h84v57c0 105 76 158 170 158c62 0 109 -16 158 -48c26 54 82 74 139 74c43 0 87 -10 115 -23v-36zM145 480h272v87c0 18 2 34 5 48
c-41 28 -82 44 -144 44c-78 0 -133 -43 -133 -122v-57z" />
    <glyph glyph-name="f_f_i" unicode="ffi" horiz-adv-x="845" 
d="M145 0h-38v444h-84v36h84v57c0 105 76 158 176 158c62 0 107 -17 157 -50c30 46 85 70 147 70c53 0 106 -16 153 -43v-39c-44 28 -97 46 -152 46c-78 0 -133 -43 -133 -120v-79h305v-480h-38v444h-267v-444h-38v444h-272v-444zM145 537v-57h272v79c0 20 3 39 9 56
c-42 28 -82 44 -142 44c-84 0 -139 -43 -139 -122z" />
    <glyph glyph-name="f_f_l" unicode="ffl" horiz-adv-x="855" 
d="M732 680v16l38 11v-707h-38v644c-41 22 -89 35 -144 35c-78 0 -133 -43 -133 -126v-73h184v-36h-184v-444h-38v444h-272v-444h-38v444h-84v36h84v57c0 105 76 158 176 158c62 0 107 -18 159 -51c29 48 83 71 145 71c53 0 102 -13 145 -35zM417 480v73c0 23 4 43 10 61
c-42 29 -82 45 -143 45c-84 0 -139 -43 -139 -122v-57h272z" />
    <glyph glyph-name=".notdef" horiz-adv-x="283" 
 />
    <glyph glyph-name="Aacute" unicode="&#xc1;" horiz-adv-x="708" 
d="M57 0h-43l318 700h45l317 -700h-42l-93 204h-410zM347 642l-181 -401h378l-181 401c-3 6 -5 12 -8 18c-3 -6 -5 -12 -8 -18zM353 776h-43l89 137h47z" />
    <glyph glyph-name="Abreve" unicode="&#x102;" horiz-adv-x="708" 
d="M57 0h-43l318 700h45l317 -700h-42l-93 204h-410zM347 642l-181 -401h378l-181 401c-3 6 -5 12 -8 18c-3 -6 -5 -12 -8 -18zM482 820c-38 -31 -81 -42 -128 -42s-90 11 -128 42v39c42 -33 81 -44 128 -44s86 11 128 44v-39z" />
    <glyph glyph-name="Acircumflex" unicode="&#xc2;" horiz-adv-x="708" 
d="M57 0h-43l318 700h45l317 -700h-42l-93 204h-410zM347 642l-181 -401h378l-181 401c-3 6 -5 12 -8 18c-3 -6 -5 -12 -8 -18zM339 907h33l128 -131h-44l-100 101l-101 -101h-44z" />
    <glyph glyph-name="Adieresis" unicode="&#xc4;" horiz-adv-x="708" 
d="M57 0h-43l318 700h45l317 -700h-42l-93 204h-410zM347 642l-181 -401h378l-181 401c-3 6 -5 12 -8 18c-3 -6 -5 -12 -8 -18zM485 836c0 -17 -14 -31 -31 -31s-31 14 -31 31c0 16 14 31 31 31s31 -15 31 -31zM284 836c0 -17 -14 -31 -31 -31s-31 14 -31 31
c0 16 14 31 31 31s31 -15 31 -31z" />
    <glyph glyph-name="Agrave" unicode="&#xc0;" horiz-adv-x="708" 
d="M57 0h-43l318 700h45l317 -700h-42l-93 204h-410zM347 642l-181 -401h378l-181 401c-3 6 -5 12 -8 18c-3 -6 -5 -12 -8 -18zM395 776h-42l-94 137h48z" />
    <glyph glyph-name="Amacron" unicode="&#x100;" horiz-adv-x="708" 
d="M57 0h-43l318 700h45l317 -700h-42l-93 204h-410zM347 642l-181 -401h378l-181 401c-3 6 -5 12 -8 18c-3 -6 -5 -12 -8 -18zM222 840h264v-36h-264v36z" />
    <glyph glyph-name="Aogonek" unicode="&#x104;" horiz-adv-x="709" 
d="M582 -143c0 -34 21 -56 61 -56c23 0 47 7 69 20v-32c-22 -13 -49 -20 -77 -20c-58 0 -90 33 -90 81s33 99 103 158l-89 196h-410l-92 -204h-43l318 700h45l317 -700h1c-62 -42 -113 -95 -113 -143zM346 642l-181 -401h379l-182 401c-3 6 -6 12 -8 18c-2 -6 -5 -12 -8 -18
z" />
    <glyph glyph-name="Aring" unicode="&#xc5;" horiz-adv-x="708" 
d="M57 0h-43l318 700h45l317 -700h-42l-93 204h-410zM347 642l-181 -401h378l-181 401c-3 6 -5 12 -8 18c-3 -6 -5 -12 -8 -18zM446 844c0 -55 -44 -90 -92 -90c-49 0 -93 35 -93 90c0 53 44 88 93 88c48 0 92 -35 92 -88zM292 843c0 -38 30 -61 62 -61s62 23 62 61
s-30 61 -62 61s-62 -23 -62 -61z" />
    <glyph glyph-name="Atilde" unicode="&#xc3;" horiz-adv-x="708" 
d="M57 0h-43l318 700h45l317 -700h-42l-93 204h-410zM347 642l-181 -401h378l-181 401c-3 6 -5 12 -8 18c-3 -6 -5 -12 -8 -18zM503 863c6 -50 -21 -81 -63 -81c-56 0 -121 53 -163 53c-26 0 -40 -19 -37 -48h-34c-7 50 23 82 63 82c55 0 121 -53 163 -53c28 0 40 18 37 47
h34z" />
    <glyph glyph-name="AE" unicode="&#xc6;" horiz-adv-x="991" 
d="M540 333v-295h396v-38h-436v205h-321l-146 -205h-45l496 700h446v-38h-390v-291h360v-38h-360zM202 241h298v418z" />
    <glyph glyph-name="B" unicode="B" horiz-adv-x="678" 
d="M101 700h261c138 0 235 -54 235 -175c0 -96 -66 -144 -137 -157c71 -13 164 -55 165 -179c-1 -164 -159 -189 -267 -189h-257v700zM585 193c-1 125 -128 154 -201 154h-243v-309h210c103 0 235 13 234 155zM557 520c0 103 -79 142 -198 142h-218v-277h251
c85 0 165 47 165 135z" />
    <glyph glyph-name="C" unicode="C" horiz-adv-x="657" 
d="M51 342c1 245 185 369 362 369c70 0 139 -17 196 -48v-40c-53 32 -122 50 -191 50c-159 0 -326 -108 -327 -331c0 -215 170 -315 329 -315c77 0 143 18 197 51v-40c-56 -31 -126 -49 -204 -49c-174 0 -362 116 -362 353z" />
    <glyph glyph-name="Cacute" unicode="&#x106;" horiz-adv-x="657" 
d="M51 342c1 245 185 369 362 369c70 0 139 -17 196 -48v-40c-53 32 -122 50 -191 50c-159 0 -326 -108 -327 -331c0 -215 170 -315 329 -315c77 0 143 18 197 51v-40c-56 -31 -126 -49 -204 -49c-174 0 -362 116 -362 353zM401 776h-43l89 137h47z" />
    <glyph glyph-name="Ccaron" unicode="&#x10c;" horiz-adv-x="657" 
d="M51 342c1 245 185 369 362 369c70 0 139 -17 196 -48v-40c-53 32 -122 50 -191 50c-159 0 -326 -108 -327 -331c0 -215 170 -315 329 -315c77 0 143 18 197 51v-40c-56 -31 -126 -49 -204 -49c-174 0 -362 116 -362 353zM548 897l-128 -131h-33l-128 131h44l101 -101
l100 101h44z" />
    <glyph glyph-name="Ccedilla" unicode="&#xc7;" horiz-adv-x="657" 
d="M617 78v-40c-52 -29 -115 -46 -187 -48l-18 -72c61 9 116 -15 117 -67c1 -50 -42 -82 -118 -82c-41 0 -72 9 -98 22v33c27 -15 58 -23 94 -23c62 0 89 23 88 51c0 40 -64 50 -124 35l25 103c-169 7 -345 122 -345 352c1 245 185 369 362 369c70 0 139 -17 196 -48v-40
c-53 32 -122 50 -191 50c-159 0 -326 -108 -327 -331c0 -215 170 -315 329 -315c77 0 143 18 197 51z" />
    <glyph glyph-name="Cdotaccent" unicode="&#x10a;" horiz-adv-x="657" 
d="M51 342c1 245 185 369 362 369c70 0 139 -17 196 -48v-40c-53 32 -122 50 -191 50c-159 0 -326 -108 -327 -331c0 -215 170 -315 329 -315c77 0 143 18 197 51v-40c-56 -31 -126 -49 -204 -49c-174 0 -362 116 -362 353zM364 820c0 22 17 35 36 35c20 0 36 -13 36 -35
s-16 -36 -36 -36c-19 0 -36 14 -36 36z" />
    <glyph glyph-name="D" unicode="D" horiz-adv-x="731" 
d="M101 700h207c250 0 371 -149 371 -350s-121 -350 -371 -350h-207v700zM639 350c0 185 -107 312 -331 312h-167v-624h167c224 0 331 127 331 312z" />
    <glyph glyph-name="Eth" unicode="&#xd0;" horiz-adv-x="732" 
d="M103 700h206c251 0 371 -149 371 -350s-120 -350 -371 -350h-206v331h-81v37h81v332zM142 38h167c224 0 331 127 331 312s-107 312 -331 312h-167v-294h234v-37h-234v-293z" />
    <glyph glyph-name="Dcaron" unicode="&#x10e;" horiz-adv-x="731" 
d="M101 700h207c250 0 371 -149 371 -350s-121 -350 -371 -350h-207v700zM639 350c0 185 -107 312 -331 312h-167v-624h167c224 0 331 127 331 312zM487 897l-128 -131h-33l-128 131h44l101 -101l100 101h44z" />
    <glyph glyph-name="Dcroat" unicode="&#x110;" horiz-adv-x="732" 
d="M103 700h206c251 0 371 -149 371 -350s-120 -350 -371 -350h-206v331h-81v37h81v332zM142 38h167c224 0 331 127 331 312s-107 312 -331 312h-167v-294h234v-37h-234v-293z" />
    <glyph glyph-name="E" unicode="E" horiz-adv-x="624" 
d="M101 700h459v-38h-419v-291h389v-38h-389v-295h428v-38h-468v700z" />
    <glyph glyph-name="Eacute" unicode="&#xc9;" horiz-adv-x="624" 
d="M101 700h459v-38h-419v-291h389v-38h-389v-295h428v-38h-468v700zM332 776h-43l89 137h47z" />
    <glyph glyph-name="Ecaron" unicode="&#x11a;" horiz-adv-x="624" 
d="M101 700h459v-38h-419v-291h389v-38h-389v-295h428v-38h-468v700zM479 897l-128 -131h-33l-128 131h44l101 -101l100 101h44z" />
    <glyph glyph-name="Ecircumflex" unicode="&#xca;" horiz-adv-x="624" 
d="M101 700h459v-38h-419v-291h389v-38h-389v-295h428v-38h-468v700zM318 907h33l128 -131h-44l-100 101l-101 -101h-44z" />
    <glyph glyph-name="Edieresis" unicode="&#xcb;" horiz-adv-x="624" 
d="M101 700h459v-38h-419v-291h389v-38h-389v-295h428v-38h-468v700zM464 836c0 -17 -14 -31 -31 -31s-31 14 -31 31c0 16 14 31 31 31s31 -15 31 -31zM263 836c0 -17 -14 -31 -31 -31s-31 14 -31 31c0 16 14 31 31 31s31 -15 31 -31z" />
    <glyph glyph-name="Edotaccent" unicode="&#x116;" horiz-adv-x="624" 
d="M101 700h459v-38h-419v-291h389v-38h-389v-295h428v-38h-468v700zM295 820c0 22 17 35 36 35c20 0 36 -13 36 -35s-16 -36 -36 -36c-19 0 -36 14 -36 36z" />
    <glyph glyph-name="Egrave" unicode="&#xc8;" horiz-adv-x="624" 
d="M101 700h459v-38h-419v-291h389v-38h-389v-295h428v-38h-468v700zM374 776h-42l-94 137h48z" />
    <glyph glyph-name="Emacron" unicode="&#x112;" horiz-adv-x="624" 
d="M101 700h459v-38h-419v-291h389v-38h-389v-295h428v-38h-468v700zM201 840h264v-36h-264v36z" />
    <glyph glyph-name="Eogonek" unicode="&#x118;" horiz-adv-x="624" 
d="M568 -187v-32c-19 -8 -40 -12 -62 -12c-58 -1 -90 33 -90 80c0 51 40 105 104 151h-419v700h459v-38h-419v-291h389v-38h-389v-295h428v-38c-62 -42 -117 -96 -117 -144c0 -33 22 -55 62 -55c18 0 36 4 54 12z" />
    <glyph glyph-name="F" unicode="F" horiz-adv-x="597" 
d="M101 700h461v-38h-421v-300h392v-38h-392v-324h-40v700z" />
    <glyph glyph-name="G" unicode="G" horiz-adv-x="708" 
d="M52 350c0 250 187 361 369 361c72 0 145 -17 204 -47v-39c-55 31 -129 48 -199 48c-165 0 -334 -94 -334 -323c0 -233 171 -323 339 -323c62 0 123 13 173 37v303h39v-330c-63 -31 -139 -48 -215 -48c-188 0 -376 103 -376 361z" />
    <glyph glyph-name="Gbreve" unicode="&#x11e;" horiz-adv-x="708" 
d="M52 350c0 250 187 361 369 361c72 0 145 -17 204 -47v-39c-55 31 -129 48 -199 48c-165 0 -334 -94 -334 -323c0 -233 171 -323 339 -323c62 0 123 13 173 37v303h39v-330c-63 -31 -139 -48 -215 -48c-188 0 -376 103 -376 361zM534 820c-38 -31 -81 -42 -128 -42
s-90 11 -128 42v39c42 -33 81 -44 128 -44s86 11 128 44v-39z" />
    <glyph glyph-name="Gcommaaccent" unicode="&#x122;" horiz-adv-x="708" 
d="M52 350c0 250 187 361 369 361c72 0 145 -17 204 -47v-39c-55 31 -129 48 -199 48c-165 0 -334 -94 -334 -323c0 -233 171 -323 339 -323c62 0 123 13 173 37v303h39v-330c-63 -31 -139 -48 -215 -48c-188 0 -376 103 -376 361zM417 -228h-34l21 172h38z" />
    <glyph glyph-name="Gdotaccent" unicode="&#x120;" horiz-adv-x="708" 
d="M52 350c0 250 187 361 369 361c72 0 145 -17 204 -47v-39c-55 31 -129 48 -199 48c-165 0 -334 -94 -334 -323c0 -233 171 -323 339 -323c62 0 123 13 173 37v303h39v-330c-63 -31 -139 -48 -215 -48c-188 0 -376 103 -376 361zM368 820c0 22 17 35 36 35
c20 0 36 -13 36 -35s-16 -36 -36 -36c-19 0 -36 14 -36 36z" />
    <glyph glyph-name="H" unicode="H" horiz-adv-x="766" 
d="M625 700h40v-700h-40v333h-484v-333h-40v700h40v-329h484v329z" />
    <glyph glyph-name="Hbar" unicode="&#x126;" horiz-adv-x="768" 
d="M142 0h-40v516h-77v34h77v150h40v-150h484v150h40v-150h77v-34h-77v-516h-40v333h-484v-333zM142 516v-145h484v145h-484z" />
    <glyph glyph-name="I" unicode="I" horiz-adv-x="242" 
d="M101 700h40v-700h-40v700z" />
    <glyph glyph-name="IJ" unicode="&#x132;" horiz-adv-x="763" 
d="M101 700h40v-700h-40v700zM405 700h264v-513c0 -135 -93 -197 -217 -197c-70 0 -134 14 -179 43v40c45 -30 107 -45 173 -45c107 0 183 47 183 160v474h-224v38z" />
    <glyph glyph-name="Iacute" unicode="&#xcd;" horiz-adv-x="242" 
d="M101 700h40v-700h-40v700zM120 776h-43l89 137h47z" />
    <glyph glyph-name="Icircumflex" unicode="&#xce;" horiz-adv-x="242" 
d="M101 700h40v-700h-40v700zM106 907h33l128 -131h-44l-100 101l-101 -101h-44z" />
    <glyph glyph-name="Idieresis" unicode="&#xcf;" horiz-adv-x="242" 
d="M101 700h40v-700h-40v700zM252 836c0 -17 -14 -31 -31 -31s-31 14 -31 31c0 16 14 31 31 31s31 -15 31 -31zM51 836c0 -17 -14 -31 -31 -31s-31 14 -31 31c0 16 14 31 31 31s31 -15 31 -31z" />
    <glyph glyph-name="Idotaccent" unicode="&#x130;" horiz-adv-x="242" 
d="M101 700h40v-700h-40v700zM83 820c0 22 17 35 36 35c20 0 36 -13 36 -35s-16 -36 -36 -36c-19 0 -36 14 -36 36z" />
    <glyph glyph-name="Igrave" unicode="&#xcc;" horiz-adv-x="242" 
d="M101 700h40v-700h-40v700zM162 776h-42l-94 137h48z" />
    <glyph glyph-name="Imacron" unicode="&#x12a;" horiz-adv-x="242" 
d="M101 700h40v-700h-40v700zM-11 840h264v-36h-264v36z" />
    <glyph glyph-name="Iogonek" unicode="&#x12e;" horiz-adv-x="242" 
d="M63 -144c0 -33 22 -55 62 -55c23 0 47 7 69 20v-32c-22 -13 -49 -20 -77 -20c-58 -1 -90 33 -90 80c0 43 20 91 74 157v694h40v-700c-40 -49 -78 -96 -78 -144z" />
    <glyph glyph-name="J" unicode="J" horiz-adv-x="521" 
d="M163 700h264v-513c0 -135 -93 -197 -217 -197c-70 0 -134 14 -179 43v40c45 -30 107 -45 173 -45c107 0 183 47 183 160v474h-224v38z" />
    <glyph glyph-name="K" unicode="K" horiz-adv-x="656" 
d="M141 0h-40v700h40v-322h202l237 322h46l-252 -341l278 -359h-47l-262 340h-202v-340z" />
    <glyph glyph-name="Kcommaaccent" unicode="&#x136;" horiz-adv-x="656" 
d="M141 0h-40v700h40v-322h202l237 322h46l-252 -341l278 -359h-47l-262 340h-202v-340zM352 -218h-34l21 172h38z" />
    <glyph glyph-name="L" unicode="L" horiz-adv-x="576" 
d="M101 700h40v-662h418v-38h-458v700z" />
    <glyph glyph-name="Lacute" unicode="&#x139;" horiz-adv-x="576" 
d="M101 700h40v-662h418v-38h-458v700zM135 776h-43l89 137h47z" />
    <glyph glyph-name="Lcaron" unicode="&#x13d;" horiz-adv-x="576" 
d="M373 700h37l-22 -163h-33zM101 700h40v-662h418v-38h-458v700z" />
    <glyph glyph-name="Lcommaaccent" unicode="&#x13b;" horiz-adv-x="576" 
d="M101 700h40v-662h418v-38h-458v700zM324 -218h-34l21 172h38z" />
    <glyph glyph-name="Ldot" unicode="&#x13f;" horiz-adv-x="582" 
d="M379 338c0 -18 -13 -29 -30 -29c-16 0 -30 11 -30 29s14 29 30 29c17 0 30 -11 30 -29zM101 700h40v-662h418v-38h-458v700z" />
    <glyph glyph-name="Lslash" unicode="&#x141;" horiz-adv-x="581" 
d="M564 0h-458v286l-92 -40v34l92 40v380h40v-365l234 102v-34l-234 -102v-263h418v-38z" />
    <glyph glyph-name="M" unicode="M" horiz-adv-x="898" 
d="M764 700h33v-700h-40v623l-296 -435h-24l-296 435v-623h-40v700h32l316 -463z" />
    <glyph glyph-name="N" unicode="N" horiz-adv-x="766" 
d="M141 0h-40v700h36l488 -633v61v572h40v-700h-35l-489 632v-59v-573z" />
    <glyph glyph-name="Nacute" unicode="&#x143;" horiz-adv-x="766" 
d="M141 0h-40v700h36l488 -633v61v572h40v-700h-35l-489 632v-59v-573zM382 776h-43l89 137h47z" />
    <glyph glyph-name="Ncaron" unicode="&#x147;" horiz-adv-x="766" 
d="M141 0h-40v700h36l488 -633v61v572h40v-700h-35l-489 632v-59v-573zM529 897l-128 -131h-33l-128 131h44l101 -101l100 101h44z" />
    <glyph glyph-name="Ncommaaccent" unicode="&#x145;" horiz-adv-x="766" 
d="M141 0h-40v700h36l488 -633v61v572h40v-700h-35l-489 632v-59v-573zM388 -218h-34l21 172h38z" />
    <glyph glyph-name="Eng" unicode="&#x14a;" horiz-adv-x="766" 
d="M665 -106c0 -91 -60 -124 -125 -124c-24 0 -47 4 -69 11v37c18 -6 40 -10 62 -10c49 0 92 21 92 90v107l-484 628v-60v-573h-40v700h35l489 -632v60v572h40v-806z" />
    <glyph glyph-name="Ntilde" unicode="&#xd1;" horiz-adv-x="766" 
d="M141 0h-40v700h36l488 -633v61v572h40v-700h-35l-489 632v-59v-573zM532 863c6 -50 -21 -81 -63 -81c-56 0 -121 53 -163 53c-26 0 -40 -19 -37 -48h-34c-7 50 23 82 63 82c55 0 121 -53 163 -53c28 0 40 18 37 47h34z" />
    <glyph glyph-name="O" unicode="O" horiz-adv-x="825" 
d="M50 350c0 175 120 361 362 361c243 0 363 -186 363 -361s-120 -361 -363 -361c-242 0 -362 186 -362 361zM735 350c0 158 -106 323 -323 323c-216 0 -322 -165 -322 -323s106 -323 322 -323c217 0 323 165 323 323z" />
    <glyph glyph-name="Oacute" unicode="&#xd3;" horiz-adv-x="825" 
d="M50 350c0 175 120 361 362 361c243 0 363 -186 363 -361s-120 -361 -363 -361c-242 0 -362 186 -362 361zM735 350c0 158 -106 323 -323 323c-216 0 -322 -165 -322 -323s106 -323 322 -323c217 0 323 165 323 323zM412 776h-43l89 137h47z" />
    <glyph glyph-name="Ocircumflex" unicode="&#xd4;" horiz-adv-x="825" 
d="M50 350c0 175 120 361 362 361c243 0 363 -186 363 -361s-120 -361 -363 -361c-242 0 -362 186 -362 361zM735 350c0 158 -106 323 -323 323c-216 0 -322 -165 -322 -323s106 -323 322 -323c217 0 323 165 323 323zM398 907h33l128 -131h-44l-100 101l-101 -101h-44z" />
    <glyph glyph-name="Odieresis" unicode="&#xd6;" horiz-adv-x="825" 
d="M50 350c0 175 120 361 362 361c243 0 363 -186 363 -361s-120 -361 -363 -361c-242 0 -362 186 -362 361zM735 350c0 158 -106 323 -323 323c-216 0 -322 -165 -322 -323s106 -323 322 -323c217 0 323 165 323 323zM544 836c0 -17 -14 -31 -31 -31s-31 14 -31 31
c0 16 14 31 31 31s31 -15 31 -31zM343 836c0 -17 -14 -31 -31 -31s-31 14 -31 31c0 16 14 31 31 31s31 -15 31 -31z" />
    <glyph glyph-name="Ograve" unicode="&#xd2;" horiz-adv-x="825" 
d="M50 350c0 175 120 361 362 361c243 0 363 -186 363 -361s-120 -361 -363 -361c-242 0 -362 186 -362 361zM735 350c0 158 -106 323 -323 323c-216 0 -322 -165 -322 -323s106 -323 322 -323c217 0 323 165 323 323zM454 776h-42l-94 137h48z" />
    <glyph glyph-name="Ohungarumlaut" unicode="&#x150;" horiz-adv-x="825" 
d="M50 350c0 175 120 361 362 361c243 0 363 -186 363 -361s-120 -361 -363 -361c-242 0 -362 186 -362 361zM735 350c0 158 -106 323 -323 323c-216 0 -322 -165 -322 -323s106 -323 322 -323c217 0 323 165 323 323zM504 779h-41l74 143h43zM351 779h-41l74 143h43z" />
    <glyph glyph-name="Omacron" unicode="&#x14c;" horiz-adv-x="825" 
d="M50 350c0 175 120 361 362 361c243 0 363 -186 363 -361s-120 -361 -363 -361c-242 0 -362 186 -362 361zM735 350c0 158 -106 323 -323 323c-216 0 -322 -165 -322 -323s106 -323 322 -323c217 0 323 165 323 323zM281 840h264v-36h-264v36z" />
    <glyph glyph-name="Oslash" unicode="&#xd8;" horiz-adv-x="825" 
d="M725 748l-82 -113c88 -70 132 -179 132 -285c0 -175 -120 -361 -363 -361c-79 0 -146 21 -199 54l-67 -91h-39l79 109c-91 70 -136 182 -136 289c0 175 120 361 362 361c83 0 151 -22 205 -57l69 94h39zM412 673c-216 0 -322 -165 -322 -323c0 -96 39 -196 120 -257
l384 529c-47 32 -109 51 -182 51zM236 74c47 -29 106 -47 177 -47c216 0 322 165 322 323c0 94 -37 191 -114 254z" />
    <glyph glyph-name="Otilde" unicode="&#xd5;" horiz-adv-x="825" 
d="M50 350c0 175 120 361 362 361c243 0 363 -186 363 -361s-120 -361 -363 -361c-242 0 -362 186 -362 361zM735 350c0 158 -106 323 -323 323c-216 0 -322 -165 -322 -323s106 -323 322 -323c217 0 323 165 323 323zM562 863c6 -50 -21 -81 -63 -81c-56 0 -121 53 -163 53
c-26 0 -40 -19 -37 -48h-34c-7 50 23 82 63 82c55 0 121 -53 163 -53c28 0 40 18 37 47h34z" />
    <glyph glyph-name="OE" unicode="&#x152;" horiz-adv-x="1024" 
d="M533 0c-29 -7 -62 -11 -122 -11c-242 0 -361 186 -361 361s119 361 361 361c60 0 93 -4 122 -11h430v-38h-390v-291h360v-38h-360v-295h396v-38h-436zM90 350c0 -164 111 -323 324 -323c58 0 90 5 120 12v622c-30 7 -62 12 -120 12c-213 0 -324 -159 -324 -323z" />
    <glyph glyph-name="P" unicode="P" horiz-adv-x="653" 
d="M101 700h223c156 0 293 -49 293 -219c0 -171 -137 -220 -293 -220h-183v-261h-40v700zM577 481c0 143 -115 181 -251 181h-185v-363h185c135 0 251 38 251 182z" />
    <glyph glyph-name="Thorn" unicode="&#xde;" horiz-adv-x="651" 
d="M141 569h183c156 0 293 -48 293 -219s-137 -219 -293 -219h-183v-131h-40v700h40v-131zM141 169h185c135 0 251 38 251 181c0 144 -115 181 -251 181h-185v-362z" />
    <glyph glyph-name="Q" unicode="Q" horiz-adv-x="825" 
d="M776 -33l-26 -26l-116 116c-57 -41 -131 -68 -222 -68c-242 0 -362 186 -362 361s120 361 362 361c243 0 363 -186 363 -361c0 -98 -37 -199 -113 -269zM90 350c0 -158 106 -323 322 -323c79 0 144 23 194 59l-152 152l25 25l155 -154c68 62 101 153 101 241
c0 158 -106 323 -323 323c-216 0 -322 -165 -322 -323z" />
    <glyph glyph-name="R" unicode="R" horiz-adv-x="685" 
d="M141 0h-40v700h266c118 0 250 -53 250 -205c0 -138 -109 -194 -215 -203l260 -292h-49l-257 289h-215v-289zM141 662v-335h228c98 0 208 41 208 168s-110 167 -208 167h-228z" />
    <glyph glyph-name="Racute" unicode="&#x154;" horiz-adv-x="685" 
d="M141 0h-40v700h266c118 0 250 -53 250 -205c0 -138 -109 -194 -215 -203l260 -292h-49l-257 289h-215v-289zM141 662v-335h228c98 0 208 41 208 168s-110 167 -208 167h-228zM338 776h-43l89 137h47z" />
    <glyph glyph-name="Rcaron" unicode="&#x158;" horiz-adv-x="685" 
d="M141 0h-40v700h266c118 0 250 -53 250 -205c0 -138 -109 -194 -215 -203l260 -292h-49l-257 289h-215v-289zM141 662v-335h228c98 0 208 41 208 168s-110 167 -208 167h-228zM485 897l-128 -131h-33l-128 131h44l101 -101l100 101h44z" />
    <glyph glyph-name="Rcommaaccent" unicode="&#x156;" horiz-adv-x="685" 
d="M141 0h-40v700h266c118 0 250 -53 250 -205c0 -138 -109 -194 -215 -203l260 -292h-49l-257 289h-215v-289zM141 662v-335h228c98 0 208 41 208 168s-110 167 -208 167h-228zM356 -218h-34l21 172h38z" />
    <glyph glyph-name="S" unicode="S" horiz-adv-x="568" 
d="M57 537c0 120 110 174 223 174c73 0 148 -19 202 -49v-39c-54 31 -132 50 -200 50c-96 0 -185 -39 -185 -135c0 -210 433 -122 433 -374c0 -127 -114 -175 -240 -175c-87 0 -172 22 -238 59v40c70 -40 155 -61 236 -61c108 0 202 35 202 134c0 222 -433 133 -433 376z
" />
    <glyph glyph-name="Sacute" unicode="&#x15a;" horiz-adv-x="568" 
d="M57 537c0 120 110 174 223 174c73 0 148 -19 202 -49v-39c-54 31 -132 50 -200 50c-96 0 -185 -39 -185 -135c0 -210 433 -122 433 -374c0 -127 -114 -175 -240 -175c-87 0 -172 22 -238 59v40c70 -40 155 -61 236 -61c108 0 202 35 202 134c0 222 -433 133 -433 376z
M273 776h-43l89 137h47z" />
    <glyph glyph-name="Scaron" unicode="&#x160;" horiz-adv-x="568" 
d="M57 537c0 120 110 174 223 174c73 0 148 -19 202 -49v-39c-54 31 -132 50 -200 50c-96 0 -185 -39 -185 -135c0 -210 433 -122 433 -374c0 -127 -114 -175 -240 -175c-87 0 -172 22 -238 59v40c70 -40 155 -61 236 -61c108 0 202 35 202 134c0 222 -433 133 -433 376z
M420 897l-128 -131h-33l-128 131h44l101 -101l100 101h44z" />
    <glyph glyph-name="Scedilla" unicode="&#x15e;" horiz-adv-x="568" 
d="M97 538c0 -210 433 -122 433 -374c0 -120 -101 -169 -217 -174l-20 -76c61 11 118 -11 119 -63c1 -50 -42 -82 -118 -82c-41 0 -73 9 -98 22v33c26 -15 58 -23 94 -23c62 0 89 23 88 51c-1 40 -65 50 -124 35l25 103c-83 1 -164 23 -227 58v40c70 -40 155 -61 236 -61
c108 0 202 35 202 134c0 222 -433 133 -433 376c0 120 110 174 223 174c73 0 148 -19 202 -49v-39c-54 31 -132 50 -200 50c-96 0 -185 -39 -185 -135z" />
    <glyph glyph-name="Scommaaccent" unicode="&#x218;" horiz-adv-x="568" 
d="M57 537c0 120 110 174 223 174c73 0 148 -19 202 -49v-39c-54 31 -132 50 -200 50c-96 0 -185 -39 -185 -135c0 -210 433 -122 433 -374c0 -127 -114 -175 -240 -175c-87 0 -172 22 -238 59v40c70 -40 155 -61 236 -61c108 0 202 35 202 134c0 222 -433 133 -433 376z
M285 -218h-34l21 172h38z" />
    <glyph glyph-name="T" unicode="T" horiz-adv-x="594" 
d="M14 700h566v-38h-263v-662h-40v662h-263v38z" />
    <glyph glyph-name="Tbar" unicode="&#x166;" horiz-adv-x="606" 
d="M323 0h-40v338h-134v34h134v290h-263v38h566v-38h-263v-290h135v-34h-135v-338z" />
    <glyph glyph-name="Tcaron" unicode="&#x164;" horiz-adv-x="594" 
d="M14 700h566v-38h-263v-662h-40v662h-263v38zM445 897l-128 -131h-33l-128 131h44l101 -101l100 101h44z" />
    <glyph glyph-name="Tcommaaccent" unicode="&#x162;" horiz-adv-x="594" 
d="M14 700h566v-38h-263v-662h-40v662h-263v38zM293 -218h-34l21 172h38z" />
    <glyph glyph-name="uni021A" unicode="&#x21a;" horiz-adv-x="594" 
d="M14 700h566v-38h-263v-662h-40v662h-263v38zM293 -218h-34l21 172h38z" />
    <glyph glyph-name="U" unicode="U" horiz-adv-x="750" 
d="M617 700h40v-455c0 -191 -126 -256 -282 -256s-282 65 -282 256v455h40v-454c0 -163 103 -219 242 -219s242 56 242 219v454z" />
    <glyph glyph-name="Uacute" unicode="&#xda;" horiz-adv-x="750" 
d="M617 700h40v-455c0 -191 -126 -256 -282 -256s-282 65 -282 256v455h40v-454c0 -163 103 -219 242 -219s242 56 242 219v454zM376 776h-43l89 137h47z" />
    <glyph glyph-name="Ucircumflex" unicode="&#xdb;" horiz-adv-x="750" 
d="M617 700h40v-455c0 -191 -126 -256 -282 -256s-282 65 -282 256v455h40v-454c0 -163 103 -219 242 -219s242 56 242 219v454zM362 907h33l128 -131h-44l-100 101l-101 -101h-44z" />
    <glyph glyph-name="Udieresis" unicode="&#xdc;" horiz-adv-x="750" 
d="M617 700h40v-455c0 -191 -126 -256 -282 -256s-282 65 -282 256v455h40v-454c0 -163 103 -219 242 -219s242 56 242 219v454zM508 836c0 -17 -14 -31 -31 -31s-31 14 -31 31c0 16 14 31 31 31s31 -15 31 -31zM307 836c0 -17 -14 -31 -31 -31s-31 14 -31 31
c0 16 14 31 31 31s31 -15 31 -31z" />
    <glyph glyph-name="Ugrave" unicode="&#xd9;" horiz-adv-x="750" 
d="M617 700h40v-455c0 -191 -126 -256 -282 -256s-282 65 -282 256v455h40v-454c0 -163 103 -219 242 -219s242 56 242 219v454zM418 776h-42l-94 137h48z" />
    <glyph glyph-name="Uhungarumlaut" unicode="&#x170;" horiz-adv-x="750" 
d="M617 700h40v-455c0 -191 -126 -256 -282 -256s-282 65 -282 256v455h40v-454c0 -163 103 -219 242 -219s242 56 242 219v454zM468 779h-41l74 143h43zM315 779h-41l74 143h43z" />
    <glyph glyph-name="Umacron" unicode="&#x16a;" horiz-adv-x="750" 
d="M617 700h40v-455c0 -191 -126 -256 -282 -256s-282 65 -282 256v455h40v-454c0 -163 103 -219 242 -219s242 56 242 219v454zM245 840h264v-36h-264v36z" />
    <glyph glyph-name="Uogonek" unicode="&#x172;" horiz-adv-x="750" 
d="M567 -211c-22 -13 -48 -20 -77 -20c-57 -1 -90 33 -90 80c0 45 34 109 85 156c-33 -11 -70 -16 -110 -16c-156 0 -282 65 -282 256v455h40v-454c0 -163 103 -219 242 -219s242 56 242 219v454h40v-455c0 -103 -36 -167 -94 -207c-82 -57 -127 -134 -126 -182
c-1 -33 21 -55 61 -55c23 0 47 7 69 20v-32z" />
    <glyph glyph-name="Uring" unicode="&#x16e;" horiz-adv-x="750" 
d="M617 700h40v-455c0 -191 -126 -256 -282 -256s-282 65 -282 256v455h40v-454c0 -163 103 -219 242 -219s242 56 242 219v454zM469 844c0 -55 -44 -90 -92 -90c-49 0 -93 35 -93 90c0 53 44 88 93 88c48 0 92 -35 92 -88zM315 843c0 -38 30 -61 62 -61s62 23 62 61
s-30 61 -62 61s-62 -23 -62 -61z" />
    <glyph glyph-name="V" unicode="V" horiz-adv-x="681" 
d="M361 0h-41l-302 700h43l279 -655l280 655h43z" />
    <glyph glyph-name="W" unicode="W" horiz-adv-x="993" 
d="M925 700h43l-223 -700h-43l-206 628l-205 -628h-43l-223 700h43l202 -649l209 643h36l208 -643z" />
    <glyph glyph-name="Wacute" unicode="&#x1e82;" horiz-adv-x="993" 
d="M925 700h43l-223 -700h-43l-206 628l-205 -628h-43l-223 700h43l202 -649l209 643h36l208 -643zM495 776h-43l89 137h47z" />
    <glyph glyph-name="Wcircumflex" unicode="&#x174;" horiz-adv-x="993" 
d="M925 700h43l-223 -700h-43l-206 628l-205 -628h-43l-223 700h43l202 -649l209 643h36l208 -643zM481 907h33l128 -131h-44l-100 101l-101 -101h-44z" />
    <glyph glyph-name="Wdieresis" unicode="&#x1e84;" horiz-adv-x="993" 
d="M925 700h43l-223 -700h-43l-206 628l-205 -628h-43l-223 700h43l202 -649l209 643h36l208 -643zM627 836c0 -17 -14 -31 -31 -31s-31 14 -31 31c0 16 14 31 31 31s31 -15 31 -31zM426 836c0 -17 -14 -31 -31 -31s-31 14 -31 31c0 16 14 31 31 31s31 -15 31 -31z" />
    <glyph glyph-name="Wgrave" unicode="&#x1e80;" horiz-adv-x="993" 
d="M925 700h43l-223 -700h-43l-206 628l-205 -628h-43l-223 700h43l202 -649l209 643h36l208 -643zM537 776h-42l-94 137h48z" />
    <glyph glyph-name="X" unicode="X" horiz-adv-x="614" 
d="M55 0h-47l276 360l-261 340h47l237 -309l237 309h47l-260 -340l275 -360h-47l-252 329z" />
    <glyph glyph-name="Y" unicode="Y" horiz-adv-x="634" 
d="M337 0h-40v279l-276 421h45l251 -384l251 384h45l-276 -421v-279z" />
    <glyph glyph-name="Yacute" unicode="&#xdd;" horiz-adv-x="634" 
d="M337 0h-40v279l-276 421h45l251 -384l251 384h45l-276 -421v-279zM317 776h-43l89 137h47z" />
    <glyph glyph-name="Ycircumflex" unicode="&#x176;" horiz-adv-x="634" 
d="M337 0h-40v279l-276 421h45l251 -384l251 384h45l-276 -421v-279zM303 907h33l128 -131h-44l-100 101l-101 -101h-44z" />
    <glyph glyph-name="Ydieresis" unicode="&#x178;" horiz-adv-x="634" 
d="M337 0h-40v279l-276 421h45l251 -384l251 384h45l-276 -421v-279zM449 836c0 -17 -14 -31 -31 -31s-31 14 -31 31c0 16 14 31 31 31s31 -15 31 -31zM248 836c0 -17 -14 -31 -31 -31s-31 14 -31 31c0 16 14 31 31 31s31 -15 31 -31z" />
    <glyph glyph-name="Ygrave" unicode="&#x1ef2;" horiz-adv-x="634" 
d="M337 0h-40v279l-276 421h45l251 -384l251 384h45l-276 -421v-279zM359 776h-42l-94 137h48z" />
    <glyph glyph-name="Z" unicode="Z" horiz-adv-x="574" 
d="M543 0h-516v35l458 627h-441v38h490v-35l-459 -627h468v-38z" />
    <glyph glyph-name="Zacute" unicode="&#x179;" horiz-adv-x="574" 
d="M543 0h-516v35l458 627h-441v38h490v-35l-459 -627h468v-38zM290 776h-43l89 137h47z" />
    <glyph glyph-name="Zcaron" unicode="&#x17d;" horiz-adv-x="574" 
d="M543 0h-516v35l458 627h-441v38h490v-35l-459 -627h468v-38zM437 897l-128 -131h-33l-128 131h44l101 -101l100 101h44z" />
    <glyph glyph-name="Zdotaccent" unicode="&#x17b;" horiz-adv-x="574" 
d="M543 0h-516v35l458 627h-441v38h490v-35l-459 -627h468v-38zM253 820c0 22 17 35 36 35c20 0 36 -13 36 -35s-16 -36 -36 -36c-19 0 -36 14 -36 36z" />
    <glyph glyph-name="a" unicode="a" horiz-adv-x="540" 
d="M450 77c0 -35 22 -46 48 -46c12 0 25 3 37 7v-32c-15 -5 -31 -8 -47 -8c-39 0 -76 20 -76 78v13c-48 -64 -123 -100 -208 -100c-83 0 -165 44 -165 140c0 114 106 153 209 153c57 0 114 -10 164 -26v44c0 93 -57 155 -165 155c-72 0 -132 -16 -171 -31v37
c37 13 98 30 174 30c127 0 200 -73 200 -195v-219zM78 130c0 -73 65 -107 133 -107c80 0 158 39 201 113v87c-47 15 -104 26 -160 26c-86 0 -174 -30 -174 -119z" />
    <glyph glyph-name="aacute" unicode="&#xe1;" horiz-adv-x="540" 
d="M450 77c0 -35 22 -46 48 -46c12 0 25 3 37 7v-32c-15 -5 -31 -8 -47 -8c-39 0 -76 20 -76 78v13c-48 -64 -123 -100 -208 -100c-83 0 -165 44 -165 140c0 114 106 153 209 153c57 0 114 -10 164 -26v44c0 93 -57 155 -165 155c-72 0 -132 -16 -171 -31v37
c37 13 98 30 174 30c127 0 200 -73 200 -195v-219zM78 130c0 -73 65 -107 133 -107c80 0 158 39 201 113v87c-47 15 -104 26 -160 26c-86 0 -174 -30 -174 -119zM249 556h-43l89 137h47z" />
    <glyph glyph-name="abreve" unicode="&#x103;" horiz-adv-x="540" 
d="M450 77c0 -35 22 -46 48 -46c12 0 25 3 37 7v-32c-15 -5 -31 -8 -47 -8c-39 0 -76 20 -76 78v13c-48 -64 -123 -100 -208 -100c-83 0 -165 44 -165 140c0 114 106 153 209 153c57 0 114 -10 164 -26v44c0 93 -57 155 -165 155c-72 0 -132 -16 -171 -31v37
c37 13 98 30 174 30c127 0 200 -73 200 -195v-219zM78 130c0 -73 65 -107 133 -107c80 0 158 39 201 113v87c-47 15 -104 26 -160 26c-86 0 -174 -30 -174 -119zM378 600c-38 -31 -81 -42 -128 -42s-90 11 -128 42v39c42 -33 81 -44 128 -44s86 11 128 44v-39z" />
    <glyph glyph-name="acircumflex" unicode="&#xe2;" horiz-adv-x="540" 
d="M450 77c0 -35 22 -46 48 -46c12 0 25 3 37 7v-32c-15 -5 -31 -8 -47 -8c-39 0 -76 20 -76 78v13c-48 -64 -123 -100 -208 -100c-83 0 -165 44 -165 140c0 114 106 153 209 153c57 0 114 -10 164 -26v44c0 93 -57 155 -165 155c-72 0 -132 -16 -171 -31v37
c37 13 98 30 174 30c127 0 200 -73 200 -195v-219zM78 130c0 -73 65 -107 133 -107c80 0 158 39 201 113v87c-47 15 -104 26 -160 26c-86 0 -174 -30 -174 -119zM235 687h33l128 -131h-44l-100 101l-101 -101h-44z" />
    <glyph glyph-name="adieresis" unicode="&#xe4;" horiz-adv-x="540" 
d="M450 77c0 -35 22 -46 48 -46c12 0 25 3 37 7v-32c-15 -5 -31 -8 -47 -8c-39 0 -76 20 -76 78v13c-48 -64 -123 -100 -208 -100c-83 0 -165 44 -165 140c0 114 106 153 209 153c57 0 114 -10 164 -26v44c0 93 -57 155 -165 155c-72 0 -132 -16 -171 -31v37
c37 13 98 30 174 30c127 0 200 -73 200 -195v-219zM78 130c0 -73 65 -107 133 -107c80 0 158 39 201 113v87c-47 15 -104 26 -160 26c-86 0 -174 -30 -174 -119zM381 616c0 -17 -14 -31 -31 -31s-31 14 -31 31c0 16 14 31 31 31s31 -15 31 -31zM180 616
c0 -17 -14 -31 -31 -31s-31 14 -31 31c0 16 14 31 31 31s31 -15 31 -31z" />
    <glyph glyph-name="agrave" unicode="&#xe0;" horiz-adv-x="540" 
d="M450 77c0 -35 22 -46 48 -46c12 0 25 3 37 7v-32c-15 -5 -31 -8 -47 -8c-39 0 -76 20 -76 78v13c-48 -64 -123 -100 -208 -100c-83 0 -165 44 -165 140c0 114 106 153 209 153c57 0 114 -10 164 -26v44c0 93 -57 155 -165 155c-72 0 -132 -16 -171 -31v37
c37 13 98 30 174 30c127 0 200 -73 200 -195v-219zM78 130c0 -73 65 -107 133 -107c80 0 158 39 201 113v87c-47 15 -104 26 -160 26c-86 0 -174 -30 -174 -119zM291 556h-42l-94 137h48z" />
    <glyph glyph-name="amacron" unicode="&#x101;" horiz-adv-x="540" 
d="M450 77c0 -35 22 -46 48 -46c12 0 25 3 37 7v-32c-15 -5 -31 -8 -47 -8c-39 0 -76 20 -76 78v13c-48 -64 -123 -100 -208 -100c-83 0 -165 44 -165 140c0 114 106 153 209 153c57 0 114 -10 164 -26v44c0 93 -57 155 -165 155c-72 0 -132 -16 -171 -31v37
c37 13 98 30 174 30c127 0 200 -73 200 -195v-219zM78 130c0 -73 65 -107 133 -107c80 0 158 39 201 113v87c-47 15 -104 26 -160 26c-86 0 -174 -30 -174 -119zM118 620h264v-36h-264v36z" />
    <glyph glyph-name="aogonek" unicode="&#x105;" horiz-adv-x="540" 
d="M211 23c80 0 158 39 201 113v87c-47 15 -104 26 -160 26c-86 0 -174 -30 -174 -119c0 -73 65 -107 133 -107zM533 -182v-32c-18 -7 -38 -11 -58 -11c-58 -1 -90 33 -90 80c0 48 37 99 97 143c-37 2 -70 23 -70 78v13c-48 -64 -123 -100 -208 -100c-83 0 -165 44 -165 140
c0 114 106 153 209 153c57 0 114 -10 164 -26v44c0 93 -57 155 -165 155c-72 0 -132 -16 -171 -31v37c37 13 98 30 174 30c127 0 200 -73 200 -195v-219c0 -35 22 -46 48 -46c12 0 25 3 37 7v-32c-62 -42 -114 -96 -114 -144c0 -33 22 -55 62 -55c17 0 34 4 50 11z" />
    <glyph glyph-name="aring" unicode="&#xe5;" horiz-adv-x="540" 
d="M450 77c0 -35 22 -46 48 -46c12 0 25 3 37 7v-32c-15 -5 -31 -8 -47 -8c-39 0 -76 20 -76 78v13c-48 -64 -123 -100 -208 -100c-83 0 -165 44 -165 140c0 114 106 153 209 153c57 0 114 -10 164 -26v44c0 93 -57 155 -165 155c-72 0 -132 -16 -171 -31v37
c37 13 98 30 174 30c127 0 200 -73 200 -195v-219zM78 130c0 -73 65 -107 133 -107c80 0 158 39 201 113v87c-47 15 -104 26 -160 26c-86 0 -174 -30 -174 -119zM342 624c0 -55 -44 -90 -92 -90c-49 0 -93 35 -93 90c0 53 44 88 93 88c48 0 92 -35 92 -88zM188 623
c0 -38 30 -61 62 -61s62 23 62 61s-30 61 -62 61s-62 -23 -62 -61z" />
    <glyph glyph-name="atilde" unicode="&#xe3;" horiz-adv-x="540" 
d="M450 77c0 -35 22 -46 48 -46c12 0 25 3 37 7v-32c-15 -5 -31 -8 -47 -8c-39 0 -76 20 -76 78v13c-48 -64 -123 -100 -208 -100c-83 0 -165 44 -165 140c0 114 106 153 209 153c57 0 114 -10 164 -26v44c0 93 -57 155 -165 155c-72 0 -132 -16 -171 -31v37
c37 13 98 30 174 30c127 0 200 -73 200 -195v-219zM78 130c0 -73 65 -107 133 -107c80 0 158 39 201 113v87c-47 15 -104 26 -160 26c-86 0 -174 -30 -174 -119zM399 643c6 -50 -21 -81 -63 -81c-56 0 -121 53 -163 53c-26 0 -40 -19 -37 -48h-34c-7 50 23 82 63 82
c55 0 121 -53 163 -53c28 0 40 18 37 47h34z" />
    <glyph glyph-name="ae" unicode="&#xe6;" horiz-adv-x="908" 
d="M455 105c-63 -79 -156 -116 -247 -116c-87 0 -169 44 -169 140c0 114 106 153 213 153c61 0 118 -10 168 -26v44c0 93 -54 155 -173 155c-72 0 -132 -16 -171 -31v37c37 13 98 30 174 30c117 0 182 -56 197 -146c33 94 121 146 207 146c171 0 228 -148 205 -275h-401
c6 -134 115 -191 223 -191c49 0 108 14 149 38v-36c-43 -24 -103 -38 -156 -38c-86 0 -174 36 -219 116zM78 130c0 -73 65 -107 137 -107c82 0 167 34 225 108c-11 28 -17 58 -19 92c-49 15 -105 26 -165 26c-90 0 -178 -30 -178 -119zM654 455c-100 0 -192 -70 -196 -205
h367c10 90 -33 205 -171 205z" />
    <glyph glyph-name="b" unicode="b" horiz-adv-x="615" 
d="M81 700h38v-330c37 66 111 121 210 121c136 0 239 -100 239 -251s-103 -251 -239 -251c-99 0 -173 55 -213 125v-114h-35v700zM530 240c0 135 -89 215 -205 215c-99 0 -177 -65 -206 -145v-140c29 -80 107 -145 206 -145c116 0 205 81 205 215z" />
    <glyph glyph-name="c" unicode="c" horiz-adv-x="493" 
d="M47 236c0 178 134 255 258 255c49 0 102 -12 143 -39v-37c-39 27 -91 40 -139 40c-110 0 -224 -64 -224 -218c0 -146 106 -212 215 -212c54 0 109 13 153 38v-38c-47 -25 -101 -36 -157 -36c-124 0 -249 77 -249 247z" />
    <glyph glyph-name="cacute" unicode="&#x107;" horiz-adv-x="493" 
d="M47 236c0 178 134 255 258 255c49 0 102 -12 143 -39v-37c-39 27 -91 40 -139 40c-110 0 -224 -64 -224 -218c0 -146 106 -212 215 -212c54 0 109 13 153 38v-38c-47 -25 -101 -36 -157 -36c-124 0 -249 77 -249 247zM297 556h-43l89 137h47z" />
    <glyph glyph-name="ccaron" unicode="&#x10d;" horiz-adv-x="493" 
d="M47 236c0 178 134 255 258 255c49 0 102 -12 143 -39v-37c-39 27 -91 40 -139 40c-110 0 -224 -64 -224 -218c0 -146 106 -212 215 -212c54 0 109 13 153 38v-38c-47 -25 -101 -36 -157 -36c-124 0 -249 77 -249 247zM444 677l-128 -131h-33l-128 131h44l101 -101
l100 101h44z" />
    <glyph glyph-name="ccedilla" unicode="&#xe7;" horiz-adv-x="493" 
d="M453 63v-38c-44 -23 -93 -34 -143 -35l-19 -76c61 11 117 -11 118 -63c1 -50 -42 -82 -118 -82c-41 0 -73 9 -98 22v33c26 -15 58 -23 94 -23c62 0 89 23 88 51c0 40 -64 50 -124 35l25 103c-117 8 -229 86 -229 246c0 178 134 255 258 255c49 0 102 -12 143 -39v-37
c-39 27 -91 40 -139 40c-110 0 -224 -64 -224 -218c0 -146 106 -212 215 -212c54 0 109 13 153 38z" />
    <glyph glyph-name="cdotaccent" unicode="&#x10b;" horiz-adv-x="493" 
d="M47 236c0 178 134 255 258 255c49 0 102 -12 143 -39v-37c-39 27 -91 40 -139 40c-110 0 -224 -64 -224 -218c0 -146 106 -212 215 -212c54 0 109 13 153 38v-38c-47 -25 -101 -36 -157 -36c-124 0 -249 77 -249 247zM260 600c0 22 17 35 36 35c20 0 36 -13 36 -35
s-16 -36 -36 -36c-19 0 -36 14 -36 36z" />
    <glyph glyph-name="d" unicode="d" horiz-adv-x="615" 
d="M496 700h38v-700h-35v114c-40 -70 -115 -125 -213 -125c-137 0 -239 100 -239 251s102 251 239 251c98 0 173 -55 210 -121v330zM496 310c-30 80 -107 145 -207 145c-115 0 -204 -80 -204 -215c0 -134 89 -215 204 -215c100 0 177 65 207 145v140z" />
    <glyph glyph-name="eth" unicode="&#xf0;" horiz-adv-x="595" 
d="M538 267c0 -173 -100 -278 -247 -278c-140 0 -244 92 -244 234c0 133 107 225 231 225c100 0 201 -57 225 -168c0 7 0 15 -1 23c-9 192 -114 286 -222 328l-113 -112l-22 23l101 101c-51 15 -103 21 -145 21v36c49 0 111 -8 173 -29l85 85l22 -23l-76 -76
c120 -52 233 -164 233 -390zM85 223c0 -121 85 -197 206 -197c113 0 184 69 203 175c-3 139 -104 211 -211 211c-110 0 -198 -76 -198 -189z" />
    <glyph glyph-name="dcaron" unicode="&#x10f;" horiz-adv-x="615" 
d="M616 700h37l-22 -163h-33zM496 700h38v-700h-35v114c-40 -70 -115 -125 -213 -125c-137 0 -239 100 -239 251s102 251 239 251c98 0 173 -55 210 -121v330zM496 310c-30 80 -107 145 -207 145c-115 0 -204 -80 -204 -215c0 -134 89 -215 204 -215c100 0 177 65 207 145
v140z" />
    <glyph glyph-name="dcroat" unicode="&#x111;" horiz-adv-x="615" 
d="M534 618h74v-30h-74v-588h-35v114c-40 -70 -115 -125 -213 -125c-137 0 -239 100 -239 251s102 251 239 251c98 0 173 -55 210 -121v218h-195v30h195v82h38v-82zM289 25c100 0 177 65 207 145v140c-30 80 -107 145 -207 145c-115 0 -204 -80 -204 -215
c0 -134 89 -215 204 -215z" />
    <glyph glyph-name="e" unicode="e" horiz-adv-x="546" 
d="M47 240c0 163 117 251 235 251c179 0 238 -152 216 -270h-413c6 -139 114 -196 229 -196c57 0 115 14 156 38v-38c-42 -23 -102 -36 -161 -36c-137 0 -262 76 -262 251zM465 255c9 82 -35 200 -181 200c-102 0 -195 -70 -199 -200h380z" />
    <glyph glyph-name="eacute" unicode="&#xe9;" horiz-adv-x="546" 
d="M47 240c0 163 117 251 235 251c179 0 238 -152 216 -270h-413c6 -139 114 -196 229 -196c57 0 115 14 156 38v-38c-42 -23 -102 -36 -161 -36c-137 0 -262 76 -262 251zM465 255c9 82 -35 200 -181 200c-102 0 -195 -70 -199 -200h380zM281 556h-43l89 137h47z" />
    <glyph glyph-name="ecaron" unicode="&#x11b;" horiz-adv-x="546" 
d="M47 240c0 163 117 251 235 251c179 0 238 -152 216 -270h-413c6 -139 114 -196 229 -196c57 0 115 14 156 38v-38c-42 -23 -102 -36 -161 -36c-137 0 -262 76 -262 251zM465 255c9 82 -35 200 -181 200c-102 0 -195 -70 -199 -200h380zM428 677l-128 -131h-33l-128 131
h44l101 -101l100 101h44z" />
    <glyph glyph-name="ecircumflex" unicode="&#xea;" horiz-adv-x="546" 
d="M47 240c0 163 117 251 235 251c179 0 238 -152 216 -270h-413c6 -139 114 -196 229 -196c57 0 115 14 156 38v-38c-42 -23 -102 -36 -161 -36c-137 0 -262 76 -262 251zM465 255c9 82 -35 200 -181 200c-102 0 -195 -70 -199 -200h380zM267 687h33l128 -131h-44l-100 101
l-101 -101h-44z" />
    <glyph glyph-name="edieresis" unicode="&#xeb;" horiz-adv-x="546" 
d="M47 240c0 163 117 251 235 251c179 0 238 -152 216 -270h-413c6 -139 114 -196 229 -196c57 0 115 14 156 38v-38c-42 -23 -102 -36 -161 -36c-137 0 -262 76 -262 251zM465 255c9 82 -35 200 -181 200c-102 0 -195 -70 -199 -200h380zM413 616c0 -17 -14 -31 -31 -31
s-31 14 -31 31c0 16 14 31 31 31s31 -15 31 -31zM212 616c0 -17 -14 -31 -31 -31s-31 14 -31 31c0 16 14 31 31 31s31 -15 31 -31z" />
    <glyph glyph-name="edotaccent" unicode="&#x117;" horiz-adv-x="546" 
d="M47 240c0 163 117 251 235 251c179 0 238 -152 216 -270h-413c6 -139 114 -196 229 -196c57 0 115 14 156 38v-38c-42 -23 -102 -36 -161 -36c-137 0 -262 76 -262 251zM465 255c9 82 -35 200 -181 200c-102 0 -195 -70 -199 -200h380zM244 600c0 22 17 35 36 35
c20 0 36 -13 36 -35s-16 -36 -36 -36c-19 0 -36 14 -36 36z" />
    <glyph glyph-name="egrave" unicode="&#xe8;" horiz-adv-x="546" 
d="M47 240c0 163 117 251 235 251c179 0 238 -152 216 -270h-413c6 -139 114 -196 229 -196c57 0 115 14 156 38v-38c-42 -23 -102 -36 -161 -36c-137 0 -262 76 -262 251zM465 255c9 82 -35 200 -181 200c-102 0 -195 -70 -199 -200h380zM323 556h-42l-94 137h48z" />
    <glyph glyph-name="emacron" unicode="&#x113;" horiz-adv-x="546" 
d="M47 240c0 163 117 251 235 251c179 0 238 -152 216 -270h-413c6 -139 114 -196 229 -196c57 0 115 14 156 38v-38c-42 -23 -102 -36 -161 -36c-137 0 -262 76 -262 251zM465 255c9 82 -35 200 -181 200c-102 0 -195 -70 -199 -200h380zM150 620h264v-36h-264v36z" />
    <glyph glyph-name="eogonek" unicode="&#x119;" horiz-adv-x="546" 
d="M460 -211c-22 -13 -49 -20 -77 -20c-58 0 -90 33 -90 81c0 49 40 99 111 152c-29 -8 -62 -13 -95 -13c-137 0 -262 76 -262 251c0 163 117 251 235 251c179 0 238 -151 216 -270h-413c6 -139 114 -196 229 -196c57 0 115 14 156 38v-38c-89 -67 -141 -120 -141 -168
c0 -34 22 -55 62 -56c23 1 47 7 69 20v-32zM284 455c-102 0 -195 -70 -199 -200h380c9 82 -35 200 -181 200z" />
    <glyph glyph-name="f" unicode="f" horiz-adv-x="356" 
d="M145 0h-38v444h-84v36h84v77c0 115 78 154 157 154c43 0 87 -10 115 -23v-36c-25 14 -68 23 -108 23c-67 0 -126 -27 -126 -120v-75h205v-36h-205v-444z" />
    <glyph glyph-name="g" unicode="g" horiz-adv-x="615" 
d="M47 240c0 151 102 251 239 251c98 0 173 -55 213 -125v114h35v-480c0 -163 -124 -231 -254 -231c-68 0 -133 16 -190 46v37c58 -30 119 -47 186 -47c115 0 220 55 220 195v111c-37 -67 -112 -122 -210 -122c-137 0 -239 100 -239 251zM496 310c-30 80 -107 145 -207 145
c-115 0 -204 -80 -204 -215c0 -134 89 -215 204 -215c100 0 177 64 207 141v144z" />
    <glyph glyph-name="gbreve" unicode="&#x11f;" horiz-adv-x="615" 
d="M47 240c0 151 102 251 239 251c98 0 173 -55 213 -125v114h35v-480c0 -163 -124 -231 -254 -231c-68 0 -133 16 -190 46v37c58 -30 119 -47 186 -47c115 0 220 55 220 195v111c-37 -67 -112 -122 -210 -122c-137 0 -239 100 -239 251zM496 310c-30 80 -107 145 -207 145
c-115 0 -204 -80 -204 -215c0 -134 89 -215 204 -215c100 0 177 64 207 141v144zM417 600c-38 -31 -81 -42 -128 -42s-90 11 -128 42v39c42 -33 81 -44 128 -44s86 11 128 44v-39z" />
    <glyph glyph-name="gcommaaccent" unicode="&#x123;" horiz-adv-x="615" 
d="M312 549h-37l25 155h32zM47 240c0 151 102 251 239 251c98 0 173 -55 213 -125v114h35v-480c0 -163 -124 -231 -254 -231c-68 0 -133 16 -190 46v37c58 -30 119 -47 186 -47c115 0 220 55 220 195v111c-37 -67 -112 -122 -210 -122c-137 0 -239 100 -239 251zM496 310
c-30 80 -107 145 -207 145c-115 0 -204 -80 -204 -215c0 -134 89 -215 204 -215c100 0 177 64 207 141v144z" />
    <glyph glyph-name="gdotaccent" unicode="&#x121;" horiz-adv-x="615" 
d="M47 240c0 151 102 251 239 251c98 0 173 -55 213 -125v114h35v-480c0 -163 -124 -231 -254 -231c-68 0 -133 16 -190 46v37c58 -30 119 -47 186 -47c115 0 220 55 220 195v111c-37 -67 -112 -122 -210 -122c-137 0 -239 100 -239 251zM496 310c-30 80 -107 145 -207 145
c-115 0 -204 -80 -204 -215c0 -134 89 -215 204 -215c100 0 177 64 207 141v144zM251 600c0 22 17 35 36 35c20 0 36 -13 36 -35s-16 -36 -36 -36c-19 0 -36 14 -36 36z" />
    <glyph glyph-name="h" unicode="h" 
d="M81 700h38v-315c33 47 99 106 193 106c107 0 190 -74 190 -196v-295h-38v291c0 107 -68 164 -155 164c-94 0 -158 -64 -190 -120v-335h-38v700z" />
    <glyph glyph-name="hbar" unicode="&#x127;" 
d="M119 385c32 47 99 106 193 106c107 0 190 -74 190 -196v-295h-38v291c0 107 -68 164 -156 164c-94 0 -157 -64 -189 -120v-335h-38v583h-72v30h72v87h38v-87h197v-30h-197v-198z" />
    <glyph glyph-name="i" unicode="i" horiz-adv-x="208" 
d="M123 0h-38v480h38v-480zM132 620c0 -19 -13 -28 -28 -28s-28 9 -28 28c0 18 13 27 28 27s28 -9 28 -27z" />
    <glyph glyph-name="dotlessi" unicode="&#x131;" horiz-adv-x="208" 
d="M85 480h38v-480h-38v480z" />
    <glyph glyph-name="iacute" unicode="&#xed;" horiz-adv-x="207" 
d="M85 480h38v-480h-38v480zM103 556h-43l89 137h47z" />
    <glyph glyph-name="icircumflex" unicode="&#xee;" horiz-adv-x="206" 
d="M88 677h33l100 -121h-42l-75 91l-75 -91h-41zM84 480h38v-480h-38v480z" />
    <glyph glyph-name="idieresis" unicode="&#xef;" horiz-adv-x="206" 
d="M206 616c0 -16 -13 -29 -29 -29s-29 13 -29 29c0 15 13 29 29 29s29 -14 29 -29zM57 616c0 -16 -13 -29 -29 -29s-29 13 -29 29c0 15 13 29 29 29s29 -14 29 -29zM84 480h38v-480h-38v480z" />
    <glyph glyph-name="i.loclTRK" horiz-adv-x="208" 
d="M85 480h38v-480h-38v480zM66 600c0 22 17 35 36 35c20 0 36 -13 36 -35s-16 -36 -36 -36c-19 0 -36 14 -36 36z" />
    <glyph glyph-name="igrave" unicode="&#xec;" horiz-adv-x="207" 
d="M122 0h-38v480h38v-480zM151 556h-37l-86 137h43z" />
    <glyph glyph-name="ij" unicode="&#x133;" horiz-adv-x="416" 
d="M123 0h-38v480h38v-480zM132 620c0 -19 -13 -28 -28 -28s-28 9 -28 28c0 18 13 27 28 27s28 -9 28 -27zM331 -109c0 -95 -63 -122 -122 -122c-27 0 -50 5 -70 12v36c18 -8 39 -11 61 -11c47 0 93 19 93 89v585h38v-589zM339 620c0 -19 -13 -28 -28 -28
c-14 0 -28 9 -28 28c0 18 14 27 28 27c15 0 28 -9 28 -27z" />
    <glyph glyph-name="imacron" unicode="&#x12b;" horiz-adv-x="206" 
d="M-7 624h220v-36h-220v36zM84 480h38v-480h-38v480z" />
    <glyph glyph-name="iogonek" unicode="&#x12f;" horiz-adv-x="208" 
d="M132 620c0 -19 -13 -28 -28 -28c-14 0 -28 9 -28 28c0 18 14 27 28 27c15 0 28 -9 28 -27zM47 -144c0 -33 22 -55 62 -55c23 0 47 7 69 20v-32c-22 -13 -49 -20 -77 -20c-58 -1 -90 33 -90 80c0 51 35 107 74 151v480h38v-480c-38 -43 -76 -97 -76 -144z" />
    <glyph glyph-name="j" unicode="j" horiz-adv-x="208" 
d="M123 -109c0 -95 -63 -122 -122 -122c-27 0 -50 5 -70 12v36c18 -8 39 -11 61 -11c47 0 93 19 93 89v585h38v-589zM131 620c0 -19 -13 -28 -28 -28c-14 0 -28 9 -28 28c0 18 14 27 28 27c15 0 28 -9 28 -27z" />
    <glyph glyph-name="k" unicode="k" horiz-adv-x="498" 
d="M494 0h-46l-209 229h-120v-229h-38v700h38v-435h123l180 215h45l-195 -234z" />
    <glyph glyph-name="kcommaaccent" unicode="&#x137;" horiz-adv-x="498" 
d="M494 0h-46l-209 229h-120v-229h-38v700h38v-435h123l180 215h45l-195 -234zM267 -218h-34l21 172h38z" />
    <glyph glyph-name="l" unicode="l" horiz-adv-x="208" 
d="M85 730h38v-730h-38v730z" />
    <glyph glyph-name="lacute" unicode="&#x13a;" horiz-adv-x="208" 
d="M85 730h38v-730h-38v730zM113 782h-43l89 137h47z" />
    <glyph glyph-name="lcaron" unicode="&#x13e;" horiz-adv-x="207" 
d="M204 730h37l-22 -163h-33zM85 730h38v-730h-38v730z" />
    <glyph glyph-name="lcommaaccent" unicode="&#x13c;" horiz-adv-x="208" 
d="M85 730h38v-730h-38v730zM101 -218h-34l21 172h38z" />
    <glyph glyph-name="ldot" unicode="&#x140;" horiz-adv-x="247" 
d="M85 730h38v-730h-38v730zM258 350c0 -18 -13 -29 -30 -29c-16 0 -30 11 -30 29s14 29 30 29c17 0 30 -11 30 -29z" />
    <glyph glyph-name="lslash" unicode="&#x142;" horiz-adv-x="235" 
d="M99 730h38v-332l87 38v-34l-87 -38v-364h-38v348l-88 -38v34l88 39v347z" />
    <glyph glyph-name="m" unicode="m" horiz-adv-x="892" 
d="M119 0h-38v480h35v-92c29 42 94 103 184 103c76 0 133 -41 157 -103c37 48 101 103 187 103c106 0 173 -77 173 -182v-309h-38v308c0 85 -53 147 -139 147c-81 0 -139 -57 -171 -104c3 -13 4 -27 4 -42v-309h-38v308c0 85 -53 147 -139 147s-147 -65 -177 -113v-342z" />
    <glyph glyph-name="n" unicode="n" 
d="M116 381c32 48 100 110 196 110c107 0 190 -74 190 -196v-295h-38v291c0 107 -68 164 -155 164c-94 0 -158 -64 -190 -120v-335h-38v480h35v-99z" />
    <glyph glyph-name="nacute" unicode="&#x144;" 
d="M116 381c32 48 100 110 196 110c107 0 190 -74 190 -196v-295h-38v291c0 107 -68 164 -155 164c-94 0 -158 -64 -190 -120v-335h-38v480h35v-99zM287 556h-43l89 137h47z" />
    <glyph glyph-name="ncaron" unicode="&#x148;" 
d="M116 381c32 48 100 110 196 110c107 0 190 -74 190 -196v-295h-38v291c0 107 -68 164 -155 164c-94 0 -158 -64 -190 -120v-335h-38v480h35v-99zM434 677l-128 -131h-33l-128 131h44l101 -101l100 101h44z" />
    <glyph glyph-name="ncommaaccent" unicode="&#x146;" 
d="M116 381c32 48 100 110 196 110c107 0 190 -74 190 -196v-295h-38v291c0 107 -68 164 -155 164c-94 0 -158 -64 -190 -120v-335h-38v480h35v-99zM293 -218h-34l21 172h38z" />
    <glyph glyph-name="eng" unicode="&#x14b;" 
d="M502 -109c0 -95 -63 -122 -122 -122c-26 0 -50 5 -70 12v36c19 -8 40 -12 61 -12c48 0 93 20 93 90v396c0 107 -68 164 -155 164c-94 0 -158 -64 -190 -120v-335h-38v480h35v-99c32 48 100 110 196 110c107 0 190 -74 190 -196v-404z" />
    <glyph glyph-name="ntilde" unicode="&#xf1;" 
d="M116 381c32 48 100 110 196 110c107 0 190 -74 190 -196v-295h-38v291c0 107 -68 164 -155 164c-94 0 -158 -64 -190 -120v-335h-38v480h35v-99zM437 643c6 -50 -21 -81 -63 -81c-56 0 -121 53 -163 53c-26 0 -40 -19 -37 -48h-34c-7 50 23 82 63 82
c55 0 121 -53 163 -53c28 0 40 18 37 47h34z" />
    <glyph glyph-name="o" unicode="o" horiz-adv-x="591" 
d="M46 240c0 161 120 251 249 251c130 0 250 -90 250 -251s-120 -251 -250 -251c-129 0 -249 90 -249 251zM507 240c0 136 -98 214 -212 214c-113 0 -211 -78 -211 -214s98 -214 211 -214c114 0 212 78 212 214z" />
    <glyph glyph-name="oacute" unicode="&#xf3;" horiz-adv-x="591" 
d="M46 240c0 161 120 251 249 251c130 0 250 -90 250 -251s-120 -251 -250 -251c-129 0 -249 90 -249 251zM507 240c0 136 -98 214 -212 214c-113 0 -211 -78 -211 -214s98 -214 211 -214c114 0 212 78 212 214zM294 550h-43l89 137h47z" />
    <glyph glyph-name="ocircumflex" unicode="&#xf4;" horiz-adv-x="591" 
d="M46 240c0 161 120 251 249 251c130 0 250 -90 250 -251s-120 -251 -250 -251c-129 0 -249 90 -249 251zM507 240c0 136 -98 214 -212 214c-113 0 -211 -78 -211 -214s98 -214 211 -214c114 0 212 78 212 214zM280 681h33l128 -131h-44l-100 101l-101 -101h-44z" />
    <glyph glyph-name="odieresis" unicode="&#xf6;" horiz-adv-x="591" 
d="M46 240c0 161 120 251 249 251c130 0 250 -90 250 -251s-120 -251 -250 -251c-129 0 -249 90 -249 251zM507 240c0 136 -98 214 -212 214c-113 0 -211 -78 -211 -214s98 -214 211 -214c114 0 212 78 212 214zM426 610c0 -17 -14 -31 -31 -31s-31 14 -31 31
c0 16 14 31 31 31s31 -15 31 -31zM225 610c0 -17 -14 -31 -31 -31s-31 14 -31 31c0 16 14 31 31 31s31 -15 31 -31z" />
    <glyph glyph-name="ograve" unicode="&#xf2;" horiz-adv-x="591" 
d="M46 240c0 161 120 251 249 251c130 0 250 -90 250 -251s-120 -251 -250 -251c-129 0 -249 90 -249 251zM507 240c0 136 -98 214 -212 214c-113 0 -211 -78 -211 -214s98 -214 211 -214c114 0 212 78 212 214zM336 550h-42l-94 137h48z" />
    <glyph glyph-name="ohungarumlaut" unicode="&#x151;" horiz-adv-x="591" 
d="M46 240c0 161 120 251 249 251c130 0 250 -90 250 -251s-120 -251 -250 -251c-129 0 -249 90 -249 251zM507 240c0 136 -98 214 -212 214c-113 0 -211 -78 -211 -214s98 -214 211 -214c114 0 212 78 212 214zM386 553h-41l74 143h43zM233 553h-41l74 143h43z" />
    <glyph glyph-name="omacron" unicode="&#x14d;" horiz-adv-x="591" 
d="M46 240c0 161 120 251 249 251c130 0 250 -90 250 -251s-120 -251 -250 -251c-129 0 -249 90 -249 251zM507 240c0 136 -98 214 -212 214c-113 0 -211 -78 -211 -214s98 -214 211 -214c114 0 212 78 212 214zM163 614h264v-36h-264v36z" />
    <glyph glyph-name="oslash" unicode="&#xf8;" horiz-adv-x="591" 
d="M507 543l-63 -98c60 -41 101 -111 101 -205c0 -161 -120 -251 -250 -251c-44 0 -88 11 -126 32l-50 -79h-35l61 94c-59 42 -99 111 -99 204c0 161 120 251 249 251c44 0 87 -11 124 -31l53 83h35zM295 454c-113 0 -211 -78 -211 -214c0 -78 33 -137 82 -173l233 363
c-31 16 -67 24 -104 24zM190 52c31 -17 67 -26 105 -26c114 0 212 78 212 214c0 79 -34 139 -84 175z" />
    <glyph glyph-name="otilde" unicode="&#xf5;" horiz-adv-x="591" 
d="M46 240c0 161 120 251 249 251c130 0 250 -90 250 -251s-120 -251 -250 -251c-129 0 -249 90 -249 251zM507 240c0 136 -98 214 -212 214c-113 0 -211 -78 -211 -214s98 -214 211 -214c114 0 212 78 212 214zM444 637c6 -50 -21 -81 -63 -81c-56 0 -121 53 -163 53
c-26 0 -40 -19 -37 -48h-34c-7 50 23 82 63 82c55 0 121 -53 163 -53c28 0 40 18 37 47h34z" />
    <glyph glyph-name="oe" unicode="&#x153;" horiz-adv-x="991" 
d="M519 151c-33 -105 -122 -162 -226 -162c-131 0 -246 90 -246 251s115 251 246 251c104 0 194 -58 227 -163c31 104 121 163 212 163c176 0 232 -152 211 -275h-404c6 -134 116 -191 223 -191c55 0 110 14 151 38v-36c-42 -24 -100 -38 -158 -38c-99 0 -204 49 -236 162z
M85 240c0 -136 93 -214 208 -214s208 78 208 214s-93 214 -208 214s-208 -78 -208 -214zM734 455c-97 0 -191 -70 -195 -205h370c9 87 -31 205 -175 205z" />
    <glyph glyph-name="p" unicode="p" horiz-adv-x="615" 
d="M116 366c40 70 114 125 213 125c136 0 239 -100 239 -251s-103 -251 -239 -251c-99 0 -173 55 -210 121v-330h-38v700h35v-114zM530 240c0 134 -89 215 -205 215c-99 0 -177 -65 -206 -145v-140c29 -80 107 -145 206 -145c116 0 205 80 205 215z" />
    <glyph glyph-name="thorn" unicode="&#xfe;" horiz-adv-x="615" 
d="M81 700h38v-330c37 66 111 121 210 121c136 0 239 -100 239 -251s-103 -251 -239 -251c-99 0 -173 55 -210 121v-330h-38v920zM530 240c0 134 -89 215 -205 215c-99 0 -177 -65 -206 -145v-140c29 -80 107 -145 206 -145c116 0 205 80 205 215z" />
    <glyph glyph-name="q" unicode="q" horiz-adv-x="615" 
d="M47 240c0 151 102 251 239 251c98 0 173 -55 213 -125v114h35v-700h-38v330c-37 -66 -112 -121 -210 -121c-137 0 -239 100 -239 251zM496 310c-30 80 -107 145 -207 145c-115 0 -204 -81 -204 -215c0 -135 89 -215 204 -215c100 0 177 65 207 145v140z" />
    <glyph glyph-name="r" unicode="r" horiz-adv-x="344" 
d="M116 349c32 77 111 144 216 141v-38c-115 4 -190 -76 -213 -164v-288h-38v480h35v-131z" />
    <glyph glyph-name="racute" unicode="&#x155;" horiz-adv-x="344" 
d="M116 349c32 77 111 144 216 141v-38c-115 4 -190 -76 -213 -164v-288h-38v480h35v-131zM191 556h-43l89 137h47z" />
    <glyph glyph-name="rcaron" unicode="&#x159;" horiz-adv-x="344" 
d="M116 349c32 77 111 144 216 141v-38c-115 4 -190 -76 -213 -164v-288h-38v480h35v-131zM338 677l-128 -131h-33l-128 131h44l101 -101l100 101h44z" />
    <glyph glyph-name="rcommaaccent" unicode="&#x157;" horiz-adv-x="344" 
d="M116 349c32 77 111 144 216 141v-38c-115 4 -190 -76 -213 -164v-288h-38v480h35v-131zM95 -218h-34l21 172h38z" />
    <glyph glyph-name="s" unicode="s" horiz-adv-x="455" 
d="M51 365c0 90 88 126 171 126c61 0 123 -17 165 -42v-36c-39 25 -105 43 -163 43c-66 0 -135 -25 -135 -90c0 -145 327 -75 327 -251c0 -90 -89 -126 -184 -126c-65 0 -141 19 -184 48v38c47 -32 121 -50 182 -50c79 0 148 25 148 89c0 142 -327 73 -327 251z" />
    <glyph glyph-name="sacute" unicode="&#x15b;" horiz-adv-x="455" 
d="M51 365c0 90 88 126 171 126c61 0 123 -17 165 -42v-36c-39 25 -105 43 -163 43c-66 0 -135 -25 -135 -90c0 -145 327 -75 327 -251c0 -90 -89 -126 -184 -126c-65 0 -141 19 -184 48v38c47 -32 121 -50 182 -50c79 0 148 25 148 89c0 142 -327 73 -327 251zM220 556h-43
l89 137h47z" />
    <glyph glyph-name="scaron" unicode="&#x161;" horiz-adv-x="455" 
d="M51 365c0 90 88 126 171 126c61 0 123 -17 165 -42v-36c-39 25 -105 43 -163 43c-66 0 -135 -25 -135 -90c0 -145 327 -75 327 -251c0 -90 -89 -126 -184 -126c-65 0 -141 19 -184 48v38c47 -32 121 -50 182 -50c79 0 148 25 148 89c0 142 -327 73 -327 251zM367 677
l-128 -131h-33l-128 131h44l101 -101l100 101h44z" />
    <glyph glyph-name="scedilla" unicode="&#x15f;" horiz-adv-x="455" 
d="M89 366c0 -145 327 -75 327 -251c0 -83 -75 -120 -162 -125l-16 -76c61 11 117 -11 118 -63c1 -50 -42 -82 -118 -82c-40 0 -72 9 -98 22v33c27 -15 58 -23 95 -23c61 0 88 23 88 51c-1 40 -65 50 -124 35l22 103c-62 1 -132 20 -173 47v38c47 -32 121 -50 182 -50
c79 0 148 25 148 89c0 142 -327 73 -327 251c0 90 88 126 171 126c61 0 123 -17 165 -42v-36c-39 25 -105 43 -163 43c-66 0 -135 -25 -135 -90z" />
    <glyph glyph-name="scommaaccent" unicode="&#x219;" horiz-adv-x="455" 
d="M51 365c0 90 88 126 171 126c61 0 123 -17 165 -42v-36c-39 25 -105 43 -163 43c-66 0 -135 -25 -135 -90c0 -145 327 -75 327 -251c0 -90 -89 -126 -184 -126c-65 0 -141 19 -184 48v38c47 -32 121 -50 182 -50c79 0 148 25 148 89c0 142 -327 73 -327 251zM235 -218
h-34l21 172h38z" />
    <glyph glyph-name="germandbls" unicode="&#xdf;" horiz-adv-x="589" 
d="M551 149c0 -111 -97 -160 -201 -160c-44 0 -93 10 -130 30v34c39 -21 83 -30 124 -30c90 0 169 37 169 129c0 110 -157 163 -157 238c0 67 78 90 78 174c0 56 -51 113 -143 113c-99 0 -172 -61 -172 -169v-508h-38v502c0 133 86 208 210 209c120 0 181 -76 181 -144
c0 -89 -78 -114 -78 -172c0 -67 157 -120 157 -246z" />
    <glyph glyph-name="t" unicode="t" horiz-adv-x="376" 
d="M105 636l38 11v-167h208v-36h-208v-303c0 -78 39 -115 118 -115c39 0 75 9 103 24v-36c-28 -14 -69 -23 -113 -23c-90 0 -146 49 -146 145v308h-90v36h90v156z" />
    <glyph glyph-name="tbar" unicode="&#x167;" horiz-adv-x="376" 
d="M143 141c0 -78 39 -115 118 -115c39 0 75 9 103 24v-36c-28 -14 -69 -23 -113 -23c-90 0 -146 49 -146 145v134h-54v34h54v140h-90v36h90v156l38 11v-167h208v-36h-208v-140h164v-34h-164v-129z" />
    <glyph glyph-name="tcaron" unicode="&#x165;" horiz-adv-x="376" 
d="M251 730h37l-22 -159h-33zM105 636l38 11v-167h208v-36h-208v-303c0 -78 39 -115 118 -115c39 0 75 9 103 24v-36c-28 -14 -69 -23 -113 -23c-90 0 -146 49 -146 145v308h-90v36h90v156z" />
    <glyph glyph-name="tcommaaccent" unicode="&#x163;" horiz-adv-x="376" 
d="M105 636l38 11v-167h208v-36h-208v-303c0 -78 39 -115 118 -115c39 0 75 9 103 24v-36c-28 -14 -69 -23 -113 -23c-90 0 -146 49 -146 145v308h-90v36h90v156zM235 -218h-34l21 172h38z" />
    <glyph glyph-name="uni021B" unicode="&#x21b;" horiz-adv-x="376" 
d="M105 636l38 11v-167h208v-36h-208v-303c0 -78 39 -115 118 -115c39 0 75 9 103 24v-36c-28 -14 -69 -23 -113 -23c-90 0 -146 49 -146 145v308h-90v36h90v156zM235 -218h-34l21 172h38z" />
    <glyph glyph-name="u" unicode="u" 
d="M458 480h38v-480h-35v99c-32 -48 -100 -110 -196 -110c-111 0 -190 74 -190 196v295h38v-291c0 -107 64 -164 155 -164c94 0 158 64 190 120v335z" />
    <glyph glyph-name="uacute" unicode="&#xfa;" 
d="M458 480h38v-480h-35v99c-32 -48 -100 -110 -196 -110c-111 0 -190 74 -190 196v295h38v-291c0 -107 64 -164 155 -164c94 0 158 64 190 120v335zM291 556h-43l89 137h47z" />
    <glyph glyph-name="ucircumflex" unicode="&#xfb;" 
d="M458 480h38v-480h-35v99c-32 -48 -100 -110 -196 -110c-111 0 -190 74 -190 196v295h38v-291c0 -107 64 -164 155 -164c94 0 158 64 190 120v335zM277 687h33l128 -131h-44l-100 101l-101 -101h-44z" />
    <glyph glyph-name="udieresis" unicode="&#xfc;" 
d="M458 480h38v-480h-35v99c-32 -48 -100 -110 -196 -110c-111 0 -190 74 -190 196v295h38v-291c0 -107 64 -164 155 -164c94 0 158 64 190 120v335zM423 616c0 -17 -14 -31 -31 -31s-31 14 -31 31c0 16 14 31 31 31s31 -15 31 -31zM222 616c0 -17 -14 -31 -31 -31
s-31 14 -31 31c0 16 14 31 31 31s31 -15 31 -31z" />
    <glyph glyph-name="ugrave" unicode="&#xf9;" 
d="M458 480h38v-480h-35v99c-32 -48 -100 -110 -196 -110c-111 0 -190 74 -190 196v295h38v-291c0 -107 64 -164 155 -164c94 0 158 64 190 120v335zM333 556h-42l-94 137h48z" />
    <glyph glyph-name="uhungarumlaut" unicode="&#x171;" 
d="M458 480h38v-480h-35v99c-32 -48 -100 -110 -196 -110c-111 0 -190 74 -190 196v295h38v-291c0 -107 64 -164 155 -164c94 0 158 64 190 120v335zM383 559h-41l74 143h43zM230 559h-41l74 143h43z" />
    <glyph glyph-name="umacron" unicode="&#x16b;" 
d="M458 480h38v-480h-35v99c-32 -48 -100 -110 -196 -110c-111 0 -190 74 -190 196v295h38v-291c0 -107 64 -164 155 -164c94 0 158 64 190 120v335zM160 620h264v-36h-264v36z" />
    <glyph glyph-name="uogonek" unicode="&#x173;" 
d="M496 480v-480c-62 -42 -108 -98 -108 -146c0 -34 21 -53 56 -53c18 0 35 4 52 11v-31c-18 -8 -39 -12 -60 -12c-53 0 -84 30 -84 78c0 51 36 109 109 163v89c-32 -48 -100 -110 -196 -110c-111 0 -190 74 -190 196v295h38v-291c0 -107 64 -164 155 -164
c94 0 158 64 190 120v335h38z" />
    <glyph glyph-name="uring" unicode="&#x16f;" 
d="M458 480h38v-480h-35v99c-32 -48 -100 -110 -196 -110c-111 0 -190 74 -190 196v295h38v-291c0 -107 64 -164 155 -164c94 0 158 64 190 120v335zM384 624c0 -55 -44 -90 -92 -90c-49 0 -93 35 -93 90c0 53 44 88 93 88c48 0 92 -35 92 -88zM230 623c0 -38 30 -61 62 -61
s62 23 62 61s-30 61 -62 61s-62 -23 -62 -61z" />
    <glyph glyph-name="v" unicode="v" horiz-adv-x="525" 
d="M463 480h42l-222 -480h-41l-222 480h42l201 -437z" />
    <glyph glyph-name="w" unicode="w" horiz-adv-x="799" 
d="M734 480h40l-180 -480h-39l-156 423l-155 -423h-39l-180 480h40l160 -435l156 429h36l157 -429z" />
    <glyph glyph-name="wacute" unicode="&#x1e83;" horiz-adv-x="799" 
d="M734 480h40l-180 -480h-39l-156 423l-155 -423h-39l-180 480h40l160 -435l156 429h36l157 -429zM398 556h-43l89 137h47z" />
    <glyph glyph-name="wcircumflex" unicode="&#x175;" horiz-adv-x="799" 
d="M734 480h40l-180 -480h-39l-156 423l-155 -423h-39l-180 480h40l160 -435l156 429h36l157 -429zM384 687h33l128 -131h-44l-100 101l-101 -101h-44z" />
    <glyph glyph-name="wdieresis" unicode="&#x1e85;" horiz-adv-x="799" 
d="M734 480h40l-180 -480h-39l-156 423l-155 -423h-39l-180 480h40l160 -435l156 429h36l157 -429zM530 616c0 -17 -14 -31 -31 -31s-31 14 -31 31c0 16 14 31 31 31s31 -15 31 -31zM329 616c0 -17 -14 -31 -31 -31s-31 14 -31 31c0 16 14 31 31 31s31 -15 31 -31z" />
    <glyph glyph-name="wgrave" unicode="&#x1e81;" horiz-adv-x="799" 
d="M734 480h40l-180 -480h-39l-156 423l-155 -423h-39l-180 480h40l160 -435l156 429h36l157 -429zM440 556h-42l-94 137h48z" />
    <glyph glyph-name="x" unicode="x" horiz-adv-x="483" 
d="M412 480h45l-193 -234l203 -246h-44l-182 219l-181 -219h-45l204 246l-193 234h44l171 -206z" />
    <glyph glyph-name="y" unicode="y" horiz-adv-x="531" 
d="M276 40l194 440h40l-250 -564c-48 -108 -99 -147 -164 -147c-17 0 -33 2 -50 7v34c16 -4 31 -7 46 -7c58 0 99 40 137 128l29 67l-243 482h41z" />
    <glyph glyph-name="yacute" unicode="&#xfd;" horiz-adv-x="531" 
d="M276 40l194 440h40l-250 -564c-48 -108 -99 -147 -164 -147c-17 0 -33 2 -50 7v34c16 -4 31 -7 46 -7c58 0 99 40 137 128l29 67l-243 482h41zM257 556h-43l89 137h47z" />
    <glyph glyph-name="ycircumflex" unicode="&#x177;" horiz-adv-x="531" 
d="M276 40l194 440h40l-250 -564c-48 -108 -99 -147 -164 -147c-17 0 -33 2 -50 7v34c16 -4 31 -7 46 -7c58 0 99 40 137 128l29 67l-243 482h41zM243 687h33l128 -131h-44l-100 101l-101 -101h-44z" />
    <glyph glyph-name="ydieresis" unicode="&#xff;" horiz-adv-x="531" 
d="M276 40l194 440h40l-250 -564c-48 -108 -99 -147 -164 -147c-17 0 -33 2 -50 7v34c16 -4 31 -7 46 -7c58 0 99 40 137 128l29 67l-243 482h41zM389 616c0 -17 -14 -31 -31 -31s-31 14 -31 31c0 16 14 31 31 31s31 -15 31 -31zM188 616c0 -17 -14 -31 -31 -31
s-31 14 -31 31c0 16 14 31 31 31s31 -15 31 -31z" />
    <glyph glyph-name="ygrave" unicode="&#x1ef3;" horiz-adv-x="531" 
d="M276 40l194 440h40l-250 -564c-48 -108 -99 -147 -164 -147c-17 0 -33 2 -50 7v34c16 -4 31 -7 46 -7c58 0 99 40 137 128l29 67l-243 482h41zM299 556h-42l-94 137h48z" />
    <glyph glyph-name="z" unicode="z" horiz-adv-x="449" 
d="M45 480h358v-33l-324 -413h338v-34h-385v33l325 413h-312v34z" />
    <glyph glyph-name="zacute" unicode="&#x17a;" horiz-adv-x="449" 
d="M45 480h358v-33l-324 -413h338v-34h-385v33l325 413h-312v34zM233 556h-43l89 137h47z" />
    <glyph glyph-name="zcaron" unicode="&#x17e;" horiz-adv-x="449" 
d="M45 480h358v-33l-324 -413h338v-34h-385v33l325 413h-312v34zM380 677l-128 -131h-33l-128 131h44l101 -101l100 101h44z" />
    <glyph glyph-name="zdotaccent" unicode="&#x17c;" horiz-adv-x="449" 
d="M45 480h358v-33l-324 -413h338v-34h-385v33l325 413h-312v34zM196 600c0 22 17 35 36 35c20 0 36 -13 36 -35s-16 -36 -36 -36c-19 0 -36 14 -36 36z" />
    <glyph glyph-name="a.ss01" horiz-adv-x="615" 
d="M499 114c-39 -70 -112 -125 -210 -125c-137 0 -242 100 -242 251s105 251 242 251c98 0 171 -55 210 -125v114h35v-480h-35v114zM85 240c0 -135 92 -215 207 -215c100 0 176 65 204 145v140c-28 80 -104 145 -204 145c-115 0 -207 -81 -207 -215z" />
    <glyph glyph-name="aacute.ss01" horiz-adv-x="615" 
d="M499 114c-39 -70 -112 -125 -210 -125c-137 0 -242 100 -242 251s105 251 242 251c98 0 171 -55 210 -125v114h35v-480h-35v114zM85 240c0 -135 92 -215 207 -215c100 0 176 65 204 145v140c-28 80 -104 145 -204 145c-115 0 -207 -81 -207 -215zM307 556h-43l89 137h47z
" />
    <glyph glyph-name="abreve.ss01" horiz-adv-x="615" 
d="M499 114c-39 -70 -112 -125 -210 -125c-137 0 -242 100 -242 251s105 251 242 251c98 0 171 -55 210 -125v114h35v-480h-35v114zM85 240c0 -135 92 -215 207 -215c100 0 176 65 204 145v140c-28 80 -104 145 -204 145c-115 0 -207 -81 -207 -215zM436 600
c-38 -31 -81 -42 -128 -42s-90 11 -128 42v39c42 -33 81 -44 128 -44s86 11 128 44v-39z" />
    <glyph glyph-name="acircumflex.ss01" horiz-adv-x="615" 
d="M499 114c-39 -70 -112 -125 -210 -125c-137 0 -242 100 -242 251s105 251 242 251c98 0 171 -55 210 -125v114h35v-480h-35v114zM85 240c0 -135 92 -215 207 -215c100 0 176 65 204 145v140c-28 80 -104 145 -204 145c-115 0 -207 -81 -207 -215zM293 687h33l128 -131
h-44l-100 101l-101 -101h-44z" />
    <glyph glyph-name="adieresis.ss01" horiz-adv-x="615" 
d="M499 114c-39 -70 -112 -125 -210 -125c-137 0 -242 100 -242 251s105 251 242 251c98 0 171 -55 210 -125v114h35v-480h-35v114zM85 240c0 -135 92 -215 207 -215c100 0 176 65 204 145v140c-28 80 -104 145 -204 145c-115 0 -207 -81 -207 -215zM439 616
c0 -17 -14 -31 -31 -31s-31 14 -31 31c0 16 14 31 31 31s31 -15 31 -31zM238 616c0 -17 -14 -31 -31 -31s-31 14 -31 31c0 16 14 31 31 31s31 -15 31 -31z" />
    <glyph glyph-name="agrave.ss01" horiz-adv-x="615" 
d="M499 114c-39 -70 -112 -125 -210 -125c-137 0 -242 100 -242 251s105 251 242 251c98 0 171 -55 210 -125v114h35v-480h-35v114zM85 240c0 -135 92 -215 207 -215c100 0 176 65 204 145v140c-28 80 -104 145 -204 145c-115 0 -207 -81 -207 -215zM349 556h-42l-94 137h48
z" />
    <glyph glyph-name="amacron.ss01" horiz-adv-x="615" 
d="M499 114c-39 -70 -112 -125 -210 -125c-137 0 -242 100 -242 251s105 251 242 251c98 0 171 -55 210 -125v114h35v-480h-35v114zM85 240c0 -135 92 -215 207 -215c100 0 176 65 204 145v140c-28 80 -104 145 -204 145c-115 0 -207 -81 -207 -215zM176 620h264v-36h-264
v36z" />
    <glyph glyph-name="aogonek.ss01" horiz-adv-x="615" 
d="M534 480v-480c-61 -42 -107 -99 -107 -147c0 -33 22 -52 56 -52c18 0 35 3 51 10v-31c-18 -8 -38 -11 -59 -11c-52 -1 -84 30 -84 77c0 51 35 110 108 165v103c-39 -70 -112 -125 -210 -125c-137 0 -242 100 -242 251s105 251 242 251c98 0 171 -55 210 -125v114h35z
M292 25c100 0 176 65 204 145v140c-28 80 -104 145 -204 145c-115 0 -207 -81 -207 -215c0 -135 92 -215 207 -215z" />
    <glyph glyph-name="aring.ss01" horiz-adv-x="615" 
d="M499 114c-39 -70 -112 -125 -210 -125c-137 0 -242 100 -242 251s105 251 242 251c98 0 171 -55 210 -125v114h35v-480h-35v114zM85 240c0 -135 92 -215 207 -215c100 0 176 65 204 145v140c-28 80 -104 145 -204 145c-115 0 -207 -81 -207 -215zM400 624
c0 -55 -44 -90 -92 -90c-49 0 -93 35 -93 90c0 53 44 88 93 88c48 0 92 -35 92 -88zM246 623c0 -38 30 -61 62 -61s62 23 62 61s-30 61 -62 61s-62 -23 -62 -61z" />
    <glyph glyph-name="atilde.ss01" horiz-adv-x="615" 
d="M499 114c-39 -70 -112 -125 -210 -125c-137 0 -242 100 -242 251s105 251 242 251c98 0 171 -55 210 -125v114h35v-480h-35v114zM85 240c0 -135 92 -215 207 -215c100 0 176 65 204 145v140c-28 80 -104 145 -204 145c-115 0 -207 -81 -207 -215zM457 643
c6 -50 -21 -81 -63 -81c-56 0 -121 53 -163 53c-26 0 -40 -19 -37 -48h-34c-7 50 23 82 63 82c55 0 121 -53 163 -53c28 0 40 18 37 47h34z" />
    <glyph glyph-name="ae.ss01" horiz-adv-x="999" 
d="M499 114c-39 -70 -112 -125 -210 -125c-137 0 -242 100 -242 251s105 251 242 251c98 0 171 -55 210 -125v114h35v-131c34 92 117 142 205 142c177 0 234 -151 212 -275h-413c6 -134 113 -191 229 -191c55 0 114 14 155 38v-36c-43 -24 -99 -38 -158 -38
c-101 0 -194 43 -230 141v-130h-35v114zM85 240c0 -135 92 -215 207 -215c100 0 176 65 204 145v140c-28 80 -104 145 -204 145c-115 0 -207 -81 -207 -215zM737 455c-103 0 -195 -70 -199 -205h380c9 87 -35 205 -181 205z" />
    <glyph glyph-name="y.ss01" 
d="M496 -6c-2 -166 -125 -225 -237 -225c-63 0 -128 16 -164 38v35c36 -22 98 -37 160 -37c98 0 203 47 203 189v101c-33 -47 -99 -106 -193 -106c-111 0 -190 74 -190 196v295h38v-291c0 -107 64 -164 155 -164c94 0 158 64 190 120v335h38v-486z" />
    <glyph glyph-name="yacute.ss01" 
d="M496 -6c-2 -166 -125 -225 -237 -225c-63 0 -128 16 -164 38v35c36 -22 98 -37 160 -37c98 0 203 47 203 189v101c-33 -47 -99 -106 -193 -106c-111 0 -190 74 -190 196v295h38v-291c0 -107 64 -164 155 -164c94 0 158 64 190 120v335h38v-486zM291 556h-43l89 137h47z
" />
    <glyph glyph-name="ycircumflex.ss01" 
d="M496 -6c-2 -166 -125 -225 -237 -225c-63 0 -128 16 -164 38v35c36 -22 98 -37 160 -37c98 0 203 47 203 189v101c-33 -47 -99 -106 -193 -106c-111 0 -190 74 -190 196v295h38v-291c0 -107 64 -164 155 -164c94 0 158 64 190 120v335h38v-486zM277 687h33l128 -131h-44
l-100 101l-101 -101h-44z" />
    <glyph glyph-name="ydieresis.ss01" 
d="M496 -6c-2 -166 -125 -225 -237 -225c-63 0 -128 16 -164 38v35c36 -22 98 -37 160 -37c98 0 203 47 203 189v101c-33 -47 -99 -106 -193 -106c-111 0 -190 74 -190 196v295h38v-291c0 -107 64 -164 155 -164c94 0 158 64 190 120v335h38v-486zM423 616
c0 -17 -14 -31 -31 -31s-31 14 -31 31c0 16 14 31 31 31s31 -15 31 -31zM222 616c0 -17 -14 -31 -31 -31s-31 14 -31 31c0 16 14 31 31 31s31 -15 31 -31z" />
    <glyph glyph-name="ygrave.ss01" 
d="M496 -6c-2 -166 -125 -225 -237 -225c-63 0 -128 16 -164 38v35c36 -22 98 -37 160 -37c98 0 203 47 203 189v101c-33 -47 -99 -106 -193 -106c-111 0 -190 74 -190 196v295h38v-291c0 -107 64 -164 155 -164c94 0 158 64 190 120v335h38v-486zM333 556h-42l-94 137h48z
" />
    <glyph glyph-name="f_b" horiz-adv-x="956" 
d="M460 370c37 66 111 121 210 121c136 0 239 -100 239 -251s-103 -251 -239 -251c-99 0 -173 55 -213 125v-114h-35v640c-41 22 -89 35 -144 35c-78 0 -133 -43 -133 -122v-73h184v-36h-184v-444h-38v444h-84v36h84v73c0 105 76 158 170 158c53 0 102 -13 145 -35v16l38 11
v-333zM460 170c29 -80 107 -145 206 -145c116 0 205 81 205 215c0 135 -89 215 -205 215c-99 0 -177 -65 -206 -145v-140z" />
    <glyph glyph-name="f_f_b" horiz-adv-x="1266" 
d="M770 370c37 66 111 121 210 121c136 0 239 -100 239 -251s-103 -251 -239 -251c-99 0 -173 55 -213 125v-114h-35v644c-41 22 -89 35 -144 35c-78 0 -133 -43 -133 -126v-73h184v-36h-184v-444h-38v444h-272v-444h-38v444h-84v36h84v57c0 105 76 158 176 158
c62 0 107 -18 159 -51c29 48 83 71 145 71c53 0 102 -13 145 -35v16l38 11v-337zM417 480v73c0 23 4 43 10 61c-42 29 -82 45 -143 45c-84 0 -139 -43 -139 -122v-57h272zM770 170c29 -80 107 -145 206 -145c116 0 205 81 205 215c0 135 -89 215 -205 215
c-99 0 -177 -65 -206 -145v-140z" />
    <glyph glyph-name="f_f_h" horiz-adv-x="1228" 
d="M770 385c33 47 99 106 193 106c107 0 190 -74 190 -196v-295h-38v291c0 107 -68 164 -155 164c-94 0 -158 -64 -190 -120v-335h-38v644c-41 22 -89 35 -144 35c-78 0 -133 -43 -133 -126v-73h184v-36h-184v-444h-38v444h-272v-444h-38v444h-84v36h84v57
c0 105 76 158 176 158c62 0 107 -18 159 -51c29 48 83 71 145 71c53 0 102 -13 145 -35v16l38 11v-322zM417 480v73c0 23 4 43 10 61c-42 29 -82 45 -143 45c-84 0 -139 -43 -139 -122v-57h272z" />
    <glyph glyph-name="f_f_j" horiz-adv-x="845" 
d="M760 -109c0 -95 -63 -122 -122 -122c-27 0 -50 5 -70 12v36c19 -8 40 -12 61 -12c48 0 93 20 93 90v549h-267v-444h-38v444h-272v-444h-38v444h-84v36h84v57c0 105 76 158 176 158c62 0 107 -17 157 -50c30 46 85 70 147 70c53 0 106 -16 153 -43v-39
c-44 28 -97 46 -152 46c-78 0 -133 -43 -133 -120v-79h305v-589zM145 537v-57h272v79c0 20 3 39 9 56c-42 28 -82 44 -142 44c-84 0 -139 -43 -139 -122z" />
    <glyph glyph-name="f_f_k" horiz-adv-x="1149" 
d="M1118 480l-195 -234l222 -246h-46l-209 229h-120v-229h-38v644c-41 22 -89 35 -144 35c-78 0 -133 -43 -133 -126v-73h184v-36h-184v-444h-38v444h-272v-444h-38v444h-84v36h84v57c0 105 76 158 176 158c62 0 107 -18 159 -51c29 48 83 71 145 71c53 0 102 -13 145 -35
v16l38 11v-442h123l180 215h45zM417 480v73c0 23 4 43 10 61c-42 29 -82 45 -143 45c-84 0 -139 -43 -139 -122v-57h272z" />
    <glyph glyph-name="f_h" horiz-adv-x="918" 
d="M460 385c33 47 99 106 193 106c107 0 190 -74 190 -196v-295h-38v291c0 107 -68 164 -155 164c-94 0 -158 -64 -190 -120v-335h-38v640c-41 22 -89 35 -144 35c-78 0 -133 -43 -133 -122v-73h184v-36h-184v-444h-38v444h-84v36h84v73c0 105 76 158 170 158
c53 0 102 -13 145 -35v16l38 11v-318z" />
    <glyph glyph-name="f_i" horiz-adv-x="535" 
d="M145 480h305v-480h-38v444h-267v-444h-38v444h-84v36h84v73c0 105 76 158 170 158c53 0 106 -16 153 -43v-39c-44 28 -97 46 -152 46c-78 0 -133 -43 -133 -122v-73z" />
    <glyph glyph-name="f_j" horiz-adv-x="535" 
d="M145 480h305v-589c0 -95 -63 -122 -122 -122c-27 0 -50 5 -70 12v36c19 -8 40 -12 61 -12c48 0 93 20 93 90v549h-267v-444h-38v444h-84v36h84v73c0 105 76 158 170 158c53 0 106 -16 153 -43v-39c-44 28 -97 46 -152 46c-78 0 -133 -43 -133 -122v-73z" />
    <glyph glyph-name="f_k" horiz-adv-x="839" 
d="M808 480l-195 -234l222 -246h-46l-209 229h-120v-229h-38v640c-41 22 -89 35 -144 35c-78 0 -133 -43 -133 -122v-73h184v-36h-184v-444h-38v444h-84v36h84v73c0 105 76 158 170 158c53 0 102 -13 145 -35v16l38 11v-438h123l180 215h45z" />
    <glyph glyph-name="f_l" horiz-adv-x="545" 
d="M422 676v16l38 11v-703h-38v640c-41 22 -89 35 -144 35c-78 0 -133 -43 -133 -122v-73h184v-36h-184v-444h-38v444h-84v36h84v73c0 105 76 158 170 158c53 0 102 -13 145 -35z" />
    <glyph glyph-name="uni0410" unicode="&#x410;" horiz-adv-x="708" 
d="M57 0h-43l318 700h45l317 -700h-42l-93 204h-410zM347 642l-181 -401h378l-181 401c-3 6 -5 12 -8 18c-3 -6 -5 -12 -8 -18z" />
    <glyph glyph-name="uni0411" unicode="&#x411;" horiz-adv-x="658" 
d="M141 401h195c144 0 282 -32 282 -201s-138 -200 -282 -200h-235v700h465v-38h-425v-261zM141 38h197c126 0 240 21 240 162c0 142 -115 163 -240 163h-197v-325z" />
    <glyph glyph-name="uni0412" unicode="&#x412;" horiz-adv-x="679" 
d="M101 700h261c138 0 235 -54 235 -175c0 -96 -66 -144 -137 -157c71 -13 164 -55 165 -179c-1 -164 -159 -189 -267 -189h-257v700zM585 193c-1 125 -128 154 -201 154h-243v-309h210c103 0 235 13 234 155zM557 520c0 103 -79 142 -198 142h-218v-277h251
c85 0 165 47 165 135z" />
    <glyph glyph-name="uni0413" unicode="&#x413;" horiz-adv-x="568" 
d="M141 0h-40v700h453v-38h-413v-662z" />
    <glyph glyph-name="uni0414" unicode="&#x414;" horiz-adv-x="749" 
d="M55 -174h-38v212h74c96 171 129 433 129 662h412v-662h86v-212h-38v174h-625v-174zM259 662c-5 -216 -38 -464 -124 -624h456v624h-332z" />
    <glyph glyph-name="uni0415" unicode="&#x415;" horiz-adv-x="622" 
d="M101 700h459v-38h-419v-291h389v-38h-389v-295h428v-38h-468v700z" />
    <glyph glyph-name="uni0401" unicode="&#x401;" horiz-adv-x="622" 
d="M464 836c0 -17 -14 -31 -31 -31s-31 14 -31 31c0 16 14 31 31 31s31 -15 31 -31zM263 836c0 -17 -14 -31 -31 -31s-31 14 -31 31c0 16 14 31 31 31s31 -15 31 -31zM101 700h459v-38h-419v-291h389v-38h-389v-295h428v-38h-468v700z" />
    <glyph glyph-name="uni0416" unicode="&#x416;" horiz-adv-x="930" 
d="M56 0h-46l240 359l-214 341h45l200 -322h164v322h40v-322h164l200 322h45l-214 -341l240 -359h-46l-226 340h-163v-340h-40v340h-163z" />
    <glyph glyph-name="uni0417" unicode="&#x417;" horiz-adv-x="603" 
d="M551 188c0 -147 -144 -199 -268 -199c-102 0 -175 15 -242 44v39c66 -30 140 -45 239 -45c109 0 231 40 231 164c0 121 -124 155 -231 155h-133v38h129c124 0 206 53 206 142c0 102 -94 147 -212 147c-88 0 -149 -15 -217 -46v39c64 30 128 45 220 45
c137 0 249 -59 249 -181c0 -91 -66 -147 -159 -164c90 -11 188 -59 188 -178z" />
    <glyph glyph-name="uni0418" unicode="&#x418;" horiz-adv-x="766" 
d="M665 0h-40v573v59l-489 -632h-35v700h40v-572v-61l488 633h36v-700z" />
    <glyph glyph-name="uni0419" unicode="&#x419;" horiz-adv-x="766" 
d="M625 0h40v700h-36l-488 -633v61v572h-40v-700h35l489 632v-59v-573zM511 820c-38 -31 -81 -42 -128 -42s-90 11 -128 42v39c42 -33 81 -44 128 -44s86 11 128 44v-39z" />
    <glyph glyph-name="uni041A" unicode="&#x41a;" horiz-adv-x="656" 
d="M141 0h-40v700h40v-322h202l237 322h46l-252 -341l278 -359h-47l-262 340h-202v-340z" />
    <glyph glyph-name="uni041B" unicode="&#x41b;" horiz-adv-x="735" 
d="M235 700h399v-700h-40v662h-321c-28 -345 -57 -672 -226 -672c-15 0 -33 2 -51 9v38c16 -5 29 -7 46 -7c140 0 167 326 193 670z" />
    <glyph glyph-name="uni041C" unicode="&#x41c;" horiz-adv-x="898" 
d="M764 700h33v-700h-40v623l-296 -435h-24l-296 435v-623h-40v700h32l316 -463z" />
    <glyph glyph-name="uni041D" unicode="&#x41d;" horiz-adv-x="766" 
d="M625 700h40v-700h-40v333h-484v-333h-40v700h40v-329h484v329z" />
    <glyph glyph-name="uni041E" unicode="&#x41e;" horiz-adv-x="825" 
d="M50 350c0 175 120 361 362 361c243 0 363 -186 363 -361s-120 -361 -363 -361c-242 0 -362 186 -362 361zM735 350c0 158 -106 323 -323 323c-216 0 -322 -165 -322 -323s106 -323 322 -323c217 0 323 165 323 323z" />
    <glyph glyph-name="uni041F" unicode="&#x41f;" horiz-adv-x="748" 
d="M141 0h-40v700h546v-700h-39v662h-467v-662z" />
    <glyph glyph-name="uni0420" unicode="&#x420;" horiz-adv-x="653" 
d="M101 700h223c156 0 293 -49 293 -219c0 -171 -137 -220 -293 -220h-183v-261h-40v700zM577 481c0 143 -115 181 -251 181h-185v-363h185c135 0 251 38 251 182z" />
    <glyph glyph-name="uni0421" unicode="&#x421;" horiz-adv-x="662" 
d="M51 342c1 245 185 369 362 369c70 0 139 -17 196 -48v-40c-53 32 -122 50 -191 50c-159 0 -326 -108 -327 -331c0 -215 170 -315 329 -315c77 0 143 18 197 51v-40c-56 -31 -126 -49 -204 -49c-174 0 -362 116 -362 353z" />
    <glyph glyph-name="uni0422" unicode="&#x422;" horiz-adv-x="594" 
d="M14 700h566v-38h-263v-662h-40v662h-263v38z" />
    <glyph glyph-name="uni0423" unicode="&#x423;" horiz-adv-x="621" 
d="M351 159c-69 -137 -134 -170 -208 -170c-26 0 -55 4 -80 12v37c21 -6 47 -11 74 -11c63 0 111 27 163 120l12 24l-300 529h44l277 -491l247 491h43z" />
    <glyph glyph-name="uni0424" unicode="&#x424;" horiz-adv-x="848" 
d="M444 -36h-40v94c-224 3 -372 106 -372 292s148 289 372 292v94h40v-94c224 -3 372 -106 372 -292s-148 -289 -372 -292v-94zM72 350c0 -160 124 -253 332 -256v512c-208 -3 -332 -96 -332 -256zM444 606v-512c209 3 332 96 332 256s-123 253 -332 256z" />
    <glyph glyph-name="uni0425" unicode="&#x425;" horiz-adv-x="614" 
d="M55 0h-47l276 360l-261 340h47l237 -309l237 309h47l-260 -340l275 -360h-47l-252 329z" />
    <glyph glyph-name="uni0427" unicode="&#x427;" horiz-adv-x="675" 
d="M574 0h-40v290c-77 -27 -152 -39 -225 -38c-163 2 -260 80 -260 235v213h40v-214c0 -136 89 -195 228 -196c71 -1 144 12 217 39v371h40v-700z" />
    <glyph glyph-name="uni0426" unicode="&#x426;" horiz-adv-x="765" 
d="M734 -174h-38v174h-595v700h40v-662h468v662h39v-662h86v-212z" />
    <glyph glyph-name="uni0428" unicode="&#x428;" horiz-adv-x="1062" 
d="M961 0h-860v700h40v-662h370v662h40v-662h371v662h39v-700z" />
    <glyph glyph-name="uni0429" unicode="&#x429;" horiz-adv-x="1078" 
d="M1047 -174h-38l1 174h-909v700h40v-662h370v662h40v-662h371v662h39v-662h86v-212z" />
    <glyph glyph-name="uni042F" unicode="&#x42f;" horiz-adv-x="679" 
d="M85 0h-48l214 275c-108 21 -188 90 -188 210c0 144 117 215 260 215h255v-700h-39v269h-216c-10 0 -19 0 -28 1zM104 485c0 -120 95 -178 218 -178h217v355h-217c-123 0 -218 -58 -218 -177z" />
    <glyph glyph-name="uni042C" unicode="&#x42c;" horiz-adv-x="653" 
d="M324 0h-223v700h40v-262h183c156 0 293 -48 293 -219c0 -170 -137 -219 -293 -219zM141 400v-362h185c136 0 251 38 251 181c0 144 -116 181 -251 181h-185z" />
    <glyph glyph-name="uni042A" unicode="&#x42a;" horiz-adv-x="751" 
d="M422 0h-223v662h-185v38h225v-262h183c157 0 293 -48 293 -219c0 -170 -136 -219 -293 -219zM239 400v-362h185c136 0 251 38 251 181c0 144 -116 181 -251 181h-185z" />
    <glyph glyph-name="uni042B" unicode="&#x42b;" horiz-adv-x="842" 
d="M324 0h-223v700h40v-262h183c156 0 293 -48 293 -219c0 -170 -137 -219 -293 -219zM141 400v-362h185c136 0 251 38 251 181c0 144 -116 181 -251 181h-185zM741 0h-40v700h40v-700z" />
    <glyph glyph-name="uni042D" unicode="&#x42d;" horiz-adv-x="657" 
d="M48 663c56 31 126 48 197 48c175 0 360 -122 360 -367c0 -246 -186 -355 -362 -355c-70 0 -140 18 -195 49v41c56 -34 122 -52 190 -52c158 0 322 91 327 304h-398v38h398c-10 204 -170 304 -325 304c-69 0 -140 -18 -192 -50v40z" />
    <glyph glyph-name="uni042E" unicode="&#x42e;" horiz-adv-x="1079" 
d="M1029 350c0 -175 -120 -361 -363 -361c-234 0 -353 173 -361 342h-164v-331h-40v700h40v-331h164c8 169 127 342 361 342c243 0 363 -186 363 -361zM344 350c0 -158 106 -323 322 -323c217 0 323 165 323 323s-106 323 -323 323c-216 0 -322 -165 -322 -323z" />
    <glyph glyph-name="uni0414.loclBGR" horiz-adv-x="792" 
d="M65 -174h-38v212h73l273 662h46l273 -662h73v-212h-38v174h-662v-174zM397 657l-254 -619h507z" />
    <glyph glyph-name="uni041B.loclBGR" horiz-adv-x="675" 
d="M317 700h41l302 -700h-43l-280 655l-279 -655h-43z" />
    <glyph glyph-name="uni0424.loclBGR" horiz-adv-x="890" 
d="M465 -106h-40v98c-228 5 -374 157 -374 358s146 353 374 358v98h40v-98c229 -5 374 -157 374 -358s-145 -353 -374 -358v-98zM91 350c0 -177 124 -314 334 -320v640c-210 -6 -334 -143 -334 -320zM465 670v-640c211 6 334 143 334 320s-123 314 -334 320z" />
    <glyph glyph-name="uni0430" unicode="&#x430;" horiz-adv-x="543" 
d="M450 77c0 -35 22 -46 48 -46c12 0 25 3 37 7v-32c-15 -5 -31 -8 -47 -8c-39 0 -76 20 -76 78v13c-48 -64 -123 -100 -208 -100c-83 0 -165 44 -165 140c0 114 106 153 209 153c57 0 114 -10 164 -26v44c0 93 -57 155 -165 155c-72 0 -132 -16 -171 -31v37
c37 13 98 30 174 30c127 0 200 -73 200 -195v-219zM78 130c0 -73 65 -107 133 -107c80 0 158 39 201 113v87c-47 15 -104 26 -160 26c-86 0 -174 -30 -174 -119z" />
    <glyph glyph-name="uni0431" unicode="&#x431;" horiz-adv-x="589" 
d="M542 225c0 -144 -98 -236 -241 -236c-148 0 -248 111 -248 275c0 155 65 273 152 327c137 84 224 52 289 119v-41c-66 -57 -145 -32 -267 -107c-76 -46 -119 -129 -136 -238c37 86 123 136 216 136c131 0 235 -95 235 -235zM91 247c0 -125 82 -221 209 -221
c124 0 204 81 204 198c0 116 -82 200 -202 200c-100 0 -191 -66 -211 -177z" />
    <glyph glyph-name="uni0432" unicode="&#x432;" horiz-adv-x="542" 
d="M339 0h-258v480h246c90 0 146 -46 146 -125c0 -54 -29 -95 -79 -110c53 -11 97 -47 97 -118c0 -83 -61 -127 -152 -127zM119 227v-193h215c67 0 119 26 119 95c0 74 -54 98 -115 98h-219zM119 446v-186h207c71 0 109 33 109 92c0 61 -43 94 -112 94h-204z" />
    <glyph glyph-name="uni0433" unicode="&#x433;" horiz-adv-x="437" 
d="M119 0h-38v480h341v-36h-303v-444z" />
    <glyph glyph-name="uni0434" unicode="&#x434;" horiz-adv-x="611" 
d="M62 -136h-37v171h62c62 123 91 247 91 445h332v-445h69v-171h-38v136h-479v-136zM214 445c-2 -179 -32 -295 -87 -410h344v410h-257z" />
    <glyph glyph-name="uni0435" unicode="&#x435;" horiz-adv-x="544" 
d="M47 240c0 163 117 251 235 251c179 0 238 -152 216 -270h-413c6 -139 114 -196 229 -196c57 0 115 14 156 38v-38c-42 -23 -102 -36 -161 -36c-137 0 -262 76 -262 251zM465 255c9 82 -35 200 -181 200c-102 0 -195 -70 -199 -200h380z" />
    <glyph glyph-name="uni0451" unicode="&#x451;" horiz-adv-x="544" 
d="M413 616c0 -17 -14 -31 -31 -31s-31 14 -31 31c0 16 14 31 31 31s31 -15 31 -31zM212 616c0 -17 -14 -31 -31 -31s-31 14 -31 31c0 16 14 31 31 31s31 -15 31 -31zM47 240c0 163 117 251 235 251c179 0 238 -152 216 -270h-413c6 -139 114 -196 229 -196
c57 0 115 14 156 38v-38c-42 -23 -102 -36 -161 -36c-137 0 -262 76 -262 251zM465 255c9 82 -35 200 -181 200c-102 0 -195 -70 -199 -200h380z" />
    <glyph glyph-name="uni0436" unicode="&#x436;" horiz-adv-x="719" 
d="M709 0h-43l-198 227h-90v-227h-38v227h-89l-198 -227h-44l211 246l-184 234h43l173 -217h88v217h38v-217h89l172 217h44l-184 -234z" />
    <glyph glyph-name="uni0437" unicode="&#x437;" horiz-adv-x="466" 
d="M416 127c0 -97 -92 -138 -203 -138c-63 0 -126 14 -172 35v37c43 -21 109 -36 168 -36c86 0 169 25 169 105c0 68 -66 96 -119 96h-117v36h117c67 5 109 33 109 89c0 72 -72 105 -158 105c-58 0 -114 -14 -162 -35v36c50 21 104 34 166 34c112 0 192 -47 192 -135
c0 -59 -35 -99 -95 -110c53 -13 105 -54 105 -119z" />
    <glyph glyph-name="uni0438" unicode="&#x438;" horiz-adv-x="585" 
d="M115 0h-34v480h38v-420l350 420h35v-480h-38v420z" />
    <glyph glyph-name="uni0439" unicode="&#x439;" horiz-adv-x="585" 
d="M420 602c-38 -31 -81 -41 -128 -41s-90 10 -128 41v37c42 -33 81 -44 128 -44s86 11 128 44v-37zM115 0h-34v480h38v-420l350 420h35v-480h-38v420z" />
    <glyph glyph-name="uni043A" unicode="&#x43a;" horiz-adv-x="502" 
d="M119 0h-38v480h38v-215h123l180 215h45l-195 -234l222 -246h-46l-209 229h-120v-229z" />
    <glyph glyph-name="uni043B" unicode="&#x43b;" horiz-adv-x="586" 
d="M216 444c-12 -279 -51 -450 -163 -450c-14 0 -28 2 -45 8v31c12 -5 24 -6 35 -6c90 0 127 166 136 453h326v-480h-38v444h-251z" />
    <glyph glyph-name="uni043C" unicode="&#x43c;" horiz-adv-x="663" 
d="M117 0h-36v480h41l210 -298l209 298h41v-480h-36v423l-201 -284h-27l-201 284v-423z" />
    <glyph glyph-name="uni043D" unicode="&#x43d;" 
d="M119 0h-38v480h38v-222h339v222h38v-480h-38v222h-339v-222z" />
    <glyph glyph-name="uni043E" unicode="&#x43e;" horiz-adv-x="591" 
d="M46 240c0 161 120 251 249 251c130 0 250 -90 250 -251s-120 -251 -250 -251c-129 0 -249 90 -249 251zM507 240c0 136 -98 214 -212 214c-113 0 -211 -78 -211 -214s98 -214 211 -214c114 0 212 78 212 214z" />
    <glyph glyph-name="uni043F" unicode="&#x43f;" 
d="M119 0h-38v480h415v-480h-38v444h-339v-444z" />
    <glyph glyph-name="uni0440" unicode="&#x440;" horiz-adv-x="615" 
d="M116 366c40 70 114 125 213 125c136 0 239 -100 239 -251s-103 -251 -239 -251c-99 0 -173 55 -210 121v-330h-38v700h35v-114zM530 240c0 134 -89 215 -205 215c-99 0 -177 -65 -206 -145v-140c29 -80 107 -145 206 -145c116 0 205 80 205 215z" />
    <glyph glyph-name="uni0441" unicode="&#x441;" horiz-adv-x="497" 
d="M47 236c0 178 134 255 258 255c49 0 102 -12 143 -39v-37c-39 27 -91 40 -139 40c-110 0 -224 -64 -224 -218c0 -146 106 -212 215 -212c54 0 109 13 153 38v-38c-47 -25 -101 -36 -157 -36c-124 0 -249 77 -249 247z" />
    <glyph glyph-name="uni0442" unicode="&#x442;" horiz-adv-x="455" 
d="M247 0h-38v444h-194v36h425v-36h-193v-444z" />
    <glyph glyph-name="uni0443" unicode="&#x443;" horiz-adv-x="531" 
d="M276 40l194 440h40l-250 -564c-48 -108 -99 -147 -164 -147c-17 0 -33 2 -50 7v34c16 -4 31 -7 46 -7c58 0 99 40 137 128l29 67l-243 482h41z" />
    <glyph glyph-name="uni0444" unicode="&#x444;" horiz-adv-x="703" 
d="M370 -220h-38v209c-162 3 -286 94 -286 251s124 248 286 251v209h38v-209c162 -3 287 -94 287 -251s-125 -248 -287 -251v-209zM84 240c0 -136 105 -214 248 -217v434c-143 -3 -248 -81 -248 -217zM370 457v-434c144 3 248 81 248 217s-104 214 -248 217z" />
    <glyph glyph-name="uni0445" unicode="&#x445;" horiz-adv-x="483" 
d="M412 480h45l-193 -234l203 -246h-44l-182 219l-181 -219h-45l204 246l-193 234h44l171 -206z" />
    <glyph glyph-name="uni0447" unicode="&#x447;" horiz-adv-x="517" 
d="M436 0h-38v181c-49 -21 -100 -31 -161 -31c-115 0 -192 54 -192 172v158h38v-156c0 -99 64 -138 164 -138c57 0 105 8 151 29v265h38v-480z" />
    <glyph glyph-name="uni0446" unicode="&#x446;" horiz-adv-x="592" 
d="M559 -136h-37v136h-441v480h38v-444h333v444h38v-444h69v-172z" />
    <glyph glyph-name="uni0448" unicode="&#x448;" horiz-adv-x="808" 
d="M727 0h-646v480h38v-444h266v444h38v-444h266v444h38v-480z" />
    <glyph glyph-name="uni0449" unicode="&#x449;" horiz-adv-x="829" 
d="M796 -136h-37v136h-678v480h38v-444h266v444h38v-444h266v444h38v-444h69v-172z" />
    <glyph glyph-name="uni044F" unicode="&#x44f;" horiz-adv-x="539" 
d="M81 0h-45l145 191c-79 16 -125 71 -125 142c0 85 67 147 178 147h224v-480h-38v186h-186h-12zM94 333c0 -68 54 -112 143 -112h183v224h-183c-90 0 -143 -45 -143 -112z" />
    <glyph glyph-name="uni044C" unicode="&#x44c;" horiz-adv-x="508" 
d="M294 0h-213v480h38v-180h175c111 0 181 -63 181 -150s-70 -150 -181 -150zM119 265v-230h171c91 0 146 46 146 115c0 70 -56 115 -146 115h-171z" />
    <glyph glyph-name="uni044A" unicode="&#x44a;" horiz-adv-x="579" 
d="M190 300h175c111 0 181 -63 181 -150s-70 -150 -181 -150h-213v446h-136v34h174v-180zM190 35h171c91 0 146 46 146 115c0 70 -56 115 -146 115h-171v-230z" />
    <glyph glyph-name="uni044B" unicode="&#x44b;" horiz-adv-x="691" 
d="M294 0h-213v480h38v-180h175c111 0 181 -63 181 -150s-70 -150 -181 -150zM119 265v-230h171c91 0 146 46 146 115c0 70 -56 115 -146 115h-171zM610 0h-38v480h38v-480z" />
    <glyph glyph-name="uni044D" unicode="&#x44d;" horiz-adv-x="502" 
d="M455 234c0 -175 -125 -245 -246 -245c-63 0 -116 15 -166 43v36c46 -27 103 -43 160 -43c108 0 210 53 214 197h-280v36h280c-8 139 -118 197 -226 197c-49 0 -103 -16 -143 -43v35c42 28 94 44 147 44c126 0 260 -78 260 -257z" />
    <glyph glyph-name="uni044E" unicode="&#x44e;" horiz-adv-x="804" 
d="M757 240c0 -161 -119 -251 -249 -251c-125 0 -241 84 -249 233h-140v-222h-38v480h38v-222h140c8 149 124 233 249 233c130 0 249 -90 249 -251zM296 240c0 -136 98 -214 211 -214c114 0 212 78 212 214s-98 214 -212 214c-113 0 -211 -78 -211 -214z" />
    <glyph glyph-name="uni0432.loclBGR" horiz-adv-x="576" 
d="M486 550c0 -67 -31 -124 -122 -160c96 -12 167 -88 167 -193c0 -118 -90 -208 -225 -208c-136 0 -236 87 -236 274v115c-1 212 81 333 238 333c108 0 178 -72 178 -161zM448 548c0 68 -53 127 -140 127c-114 0 -200 -77 -200 -297v-14l184 33c105 19 156 79 156 151z
M108 263c0 -167 82 -238 198 -238c109 0 187 67 187 172c0 107 -85 185 -201 164l-184 -33v-65z" />
    <glyph glyph-name="uni0433.loclBGR" horiz-adv-x="467" 
d="M419 37c-43 -29 -119 -48 -184 -48c-105 0 -194 37 -194 128c0 192 337 89 337 245c0 67 -69 93 -141 93c-59 0 -123 -17 -172 -42v36c50 25 111 42 174 42c89 0 177 -37 177 -129c0 -190 -337 -88 -337 -246c0 -65 68 -91 158 -91c61 0 135 18 182 50v-38z" />
    <glyph glyph-name="uni0434.loclBGR" horiz-adv-x="615" 
d="M47 240c0 151 102 251 239 251c98 0 173 -55 213 -125v114h35v-480c0 -163 -124 -231 -254 -231c-68 0 -133 16 -190 46v37c58 -30 119 -47 186 -47c115 0 220 55 220 195v111c-37 -67 -112 -122 -210 -122c-137 0 -239 100 -239 251zM496 310c-30 80 -107 145 -207 145
c-115 0 -204 -80 -204 -215c0 -134 89 -215 204 -215c100 0 177 64 207 141v144z" />
    <glyph glyph-name="uni0436.loclBGR" horiz-adv-x="719" 
d="M53 0h-44l211 246l-184 234h43l173 -217h88v437h38v-437h89l172 217h44l-184 -234l210 -246h-43l-198 227h-90v-227h-38v227h-89z" />
    <glyph glyph-name="uni0438.loclBGR" 
d="M458 480h38v-480h-35v99c-32 -48 -100 -110 -196 -110c-111 0 -190 74 -190 196v295h38v-291c0 -107 64 -164 155 -164c94 0 158 64 190 120v335z" />
    <glyph glyph-name="uni0439.loclBGR" 
d="M420 602c-38 -31 -81 -41 -128 -41s-90 10 -128 41v37c42 -33 81 -44 128 -44s86 11 128 44v-37zM458 480h38v-480h-35v99c-32 -48 -100 -110 -196 -110c-111 0 -190 74 -190 196v295h38v-291c0 -107 64 -164 155 -164c94 0 158 64 190 120v335z" />
    <glyph glyph-name="uni043A.loclBGR" horiz-adv-x="502" 
d="M494 0h-46l-209 229h-120v-229h-38v700h38v-435h123l180 215h45l-195 -234z" />
    <glyph glyph-name="uni043B.loclBGR" horiz-adv-x="525" 
d="M505 0h-42l-200 437l-201 -437h-42l222 480h41z" />
    <glyph glyph-name="uni043F.loclBGR" 
d="M116 381c32 48 100 110 196 110c107 0 190 -74 190 -196v-295h-38v291c0 107 -68 164 -155 164c-94 0 -158 -64 -190 -120v-335h-38v480h35v-99z" />
    <glyph glyph-name="uni0442.loclBGR" horiz-adv-x="892" 
d="M119 0h-38v480h35v-92c29 42 94 103 184 103c76 0 133 -41 157 -103c37 48 101 103 187 103c106 0 173 -77 173 -182v-309h-38v308c0 85 -53 147 -139 147c-81 0 -139 -57 -171 -104c3 -13 4 -27 4 -42v-309h-38v308c0 85 -53 147 -139 147s-147 -65 -177 -113v-342z" />
    <glyph glyph-name="uni0446.loclBGR" horiz-adv-x="603" 
d="M496 89c0 -44 25 -58 60 -58h21v-167h-36v134c-46 2 -83 26 -83 97c-33 -48 -100 -106 -193 -106c-111 0 -190 74 -190 196v295h38v-291c0 -107 64 -164 155 -164c94 0 158 64 190 120v335h38v-391z" />
    <glyph glyph-name="uni0448.loclBGR" horiz-adv-x="892" 
d="M773 480h38v-480h-35v92c-29 -42 -94 -103 -184 -103c-76 0 -133 41 -157 103c-37 -48 -101 -103 -187 -103c-106 0 -173 77 -173 182v309h38v-308c0 -85 53 -147 139 -147c81 0 139 57 171 104c-3 13 -4 27 -4 42v309h38v-308c0 -85 53 -147 139 -147s147 65 177 113
v342z" />
    <glyph glyph-name="uni0449.loclBGR" horiz-adv-x="918" 
d="M811 89c0 -44 25 -58 60 -58h21v-167h-36v134c-46 2 -83 26 -83 90c-30 -42 -94 -99 -181 -99c-76 0 -132 40 -158 101c-38 -48 -102 -101 -186 -101c-106 0 -173 77 -173 182v309h38v-308c0 -85 53 -147 139 -147c81 0 139 57 171 104c-3 13 -4 27 -4 42v309h38v-308
c0 -85 53 -147 139 -147s147 65 177 113v342h38v-391z" />
    <glyph glyph-name="uni044E.loclBGR" horiz-adv-x="804" 
d="M757 240c0 -161 -119 -251 -249 -251c-125 0 -241 84 -249 233h-140v-222h-38v700h38v-442h140c8 149 124 233 249 233c130 0 249 -90 249 -251zM296 240c0 -136 98 -214 211 -214c114 0 212 78 212 214s-98 214 -212 214c-113 0 -211 -78 -211 -214z" />
    <glyph glyph-name="uni0430.ss01" horiz-adv-x="615" 
d="M499 114c-39 -70 -112 -125 -210 -125c-137 0 -242 100 -242 251s105 251 242 251c98 0 171 -55 210 -125v114h35v-480h-35v114zM85 240c0 -135 92 -215 207 -215c100 0 176 65 204 145v140c-28 80 -104 145 -204 145c-115 0 -207 -81 -207 -215z" />
    <glyph glyph-name="uni0437.ss01" horiz-adv-x="451" 
d="M374 330c0 -69 -32 -125 -123 -160c95 -11 168 -87 168 -192c0 -128 -99 -209 -237 -209c-58 0 -119 13 -168 45v37c47 -33 107 -47 163 -47c115 0 204 62 204 174c0 107 -87 189 -204 163l-59 -13v35l67 15c110 26 151 77 151 150c0 79 -62 127 -144 127
c-57 0 -112 -14 -162 -44v36c53 31 105 44 164 44c102 0 180 -63 180 -161z" />
    <glyph glyph-name="uni0443.ss01" 
d="M496 -6c-2 -166 -125 -225 -237 -225c-63 0 -128 16 -164 38v35c36 -22 98 -37 160 -37c98 0 203 47 203 189v101c-33 -47 -99 -106 -193 -106c-111 0 -190 74 -190 196v295h38v-291c0 -107 64 -164 155 -164c94 0 158 64 190 120v335h38v-486z" />
    <glyph glyph-name="zero" unicode="0" horiz-adv-x="702" 
d="M57 340c0 204 95 351 294 351c200 0 294 -147 294 -351s-94 -351 -294 -351c-199 0 -294 147 -294 351zM605 340c0 188 -81 313 -254 313s-254 -125 -254 -313s81 -313 254 -313s254 125 254 313z" />
    <glyph glyph-name="one" unicode="1" horiz-adv-x="406" 
d="M219 680h28v-642h138v-38h-331v38h153v599l-153 -58v38z" />
    <glyph glyph-name="two" unicode="2" horiz-adv-x="562" 
d="M72 628c66 46 137 63 207 63c129 0 220 -64 220 -170c0 -116 -98 -177 -197 -235c-105 -61 -210 -115 -212 -248h417v-38h-460v22c0 166 121 229 231 293c94 56 181 105 181 207c0 81 -72 132 -183 132c-69 0 -136 -20 -204 -65v39z" />
    <glyph glyph-name="three" unicode="3" horiz-adv-x="586" 
d="M502 510c0 -70 -42 -137 -127 -155c81 -16 155 -68 155 -175c0 -124 -100 -191 -233 -191c-103 0 -177 16 -237 45v39c63 -31 135 -47 234 -46c116 0 198 52 198 155c0 109 -91 151 -198 151h-100v38l96 -1c121 0 173 66 173 137c0 82 -66 147 -185 147
c-80 0 -141 -16 -206 -47v39c60 29 124 45 210 45c137 0 220 -81 220 -181z" />
    <glyph glyph-name="four" unicode="4" horiz-adv-x="637" 
d="M420 680h43v-477h142v-38h-142v-165h-39v165h-397v35zM424 203v423l-347 -423h347z" />
    <glyph glyph-name="five" unicode="5" horiz-adv-x="574" 
d="M99 680h391v-38h-353l-18 -268c50 16 103 24 154 24c131 0 252 -57 252 -204c0 -123 -98 -205 -248 -205c-79 0 -159 17 -217 46v38c60 -30 137 -47 213 -47c131 0 212 65 212 168c0 122 -104 167 -223 167c-62 0 -127 -12 -184 -32z" />
    <glyph glyph-name="six" unicode="6" horiz-adv-x="607" 
d="M98 313c68 64 152 100 240 100c114 0 225 -67 225 -209c0 -137 -104 -215 -232 -215c-182 0 -273 129 -273 332c0 262 123 370 300 370c54 0 106 -14 149 -37v-38c-45 24 -98 37 -148 37c-152 0 -261 -91 -261 -333v-7zM100 270c14 -155 93 -244 229 -244
c108 0 194 59 194 177c0 123 -92 173 -193 173c-84 0 -169 -38 -230 -106z" />
    <glyph glyph-name="seven" unicode="7" horiz-adv-x="520" 
d="M35 680h466v-34l-312 -646h-43l310 642h-421v38z" />
    <glyph glyph-name="eight" unicode="8" horiz-adv-x="643" 
d="M81 524c0 83 72 167 240 167c155 0 241 -89 242 -177c1 -79 -41 -145 -112 -186c76 -31 137 -76 137 -163c0 -89 -84 -176 -265 -176c-179 0 -267 89 -267 194c0 78 46 153 132 195c-62 30 -107 73 -107 146zM325 330c-34 9 -69 19 -101 32c-82 -35 -128 -103 -128 -176
c0 -92 75 -160 228 -160c144 0 224 65 224 138c0 108 -110 134 -223 166zM523 508c0 72 -70 146 -203 146c-136 0 -200 -62 -200 -129c0 -107 115 -133 202 -158c30 -8 62 -17 93 -26c67 36 108 96 108 167z" />
    <glyph glyph-name="nine" unicode="9" horiz-adv-x="607" 
d="M44 476c0 137 104 215 232 215c183 0 273 -129 273 -332c0 -262 -123 -370 -300 -370c-54 0 -106 14 -149 37v38c45 -24 98 -37 148 -37c152 0 262 91 262 333v8c-69 -65 -152 -101 -241 -101c-114 0 -225 67 -225 209zM84 477c0 -123 92 -173 194 -173
c84 0 170 39 230 107c-14 154 -94 243 -230 243c-108 0 -194 -59 -194 -177z" />
    <glyph glyph-name="zero.osf" horiz-adv-x="658" 
d="M607 260c0 -133 -94 -271 -277 -271s-278 138 -278 271c0 134 95 271 278 271s277 -137 277 -271zM92 260c0 -118 81 -233 238 -233c156 0 237 115 237 233s-81 233 -237 233c-157 0 -238 -115 -238 -233z" />
    <glyph glyph-name="one.osf" horiz-adv-x="411" 
d="M221 520h28v-482h138v-38h-331v38h153v439l-153 -58v38z" />
    <glyph glyph-name="two.osf" horiz-adv-x="523" 
d="M469 0h-420v26c0 117 104 150 206 196c76 35 166 60 166 148c0 74 -69 124 -158 124c-67 0 -127 -19 -195 -58v40c66 39 130 55 198 55c107 0 195 -63 195 -161c0 -111 -108 -143 -192 -182c-93 -43 -177 -71 -177 -150h377v-38z" />
    <glyph glyph-name="three.osf" horiz-adv-x="539" 
d="M462 350c0 -70 -42 -137 -121 -155c75 -16 149 -68 149 -175c0 -124 -110 -191 -229 -191c-83 0 -153 14 -211 45v39c61 -33 129 -46 208 -46c102 0 194 52 194 155c0 109 -91 151 -178 151h-90v38l86 -1c101 0 153 66 153 137c0 88 -67 147 -173 147
c-65 0 -124 -16 -188 -49v39c60 31 121 47 192 47c124 0 208 -75 208 -181z" />
    <glyph glyph-name="four.osf" horiz-adv-x="592" 
d="M388 520h43v-477h134v-38h-134v-165h-39v165h-373v35zM392 43v420l-325 -420h325z" />
    <glyph glyph-name="five.osf" horiz-adv-x="529" 
d="M92 520h361v-38h-323l-18 -268c47 16 94 24 144 24c114 0 232 -57 232 -204c0 -124 -101 -205 -238 -205c-74 0 -142 17 -197 46v38c57 -30 122 -47 193 -47c119 0 202 65 202 168c0 122 -101 167 -203 167c-61 0 -120 -12 -174 -32z" />
    <glyph glyph-name="six.osf" horiz-adv-x="580" 
d="M98 315c60 63 142 98 220 98c104 0 215 -67 215 -209c0 -137 -104 -215 -216 -215c-168 0 -259 129 -259 332c0 262 139 370 284 370c60 0 102 -14 145 -37v-38c-45 24 -88 37 -144 37c-120 0 -245 -91 -245 -333v-5zM100 271c13 -156 91 -245 215 -245
c92 0 178 59 178 177c0 123 -92 173 -183 173c-74 0 -155 -38 -210 -105z" />
    <glyph glyph-name="seven.osf" horiz-adv-x="470" 
d="M23 520h436v-34l-302 -646h-43l300 642h-391v38z" />
    <glyph glyph-name="eight.osf" horiz-adv-x="613" 
d="M81 524c0 83 78 167 225 167c139 0 226 -89 227 -177c1 -76 -42 -140 -112 -186c76 -31 137 -76 137 -163c0 -89 -82 -176 -250 -176c-162 0 -252 87 -252 194c0 76 47 148 132 194c-62 30 -107 76 -107 147zM308 331c-31 10 -53 19 -85 30c-80 -39 -127 -104 -127 -175
c0 -93 77 -160 213 -160c131 0 209 65 209 138c0 103 -93 126 -210 167zM493 508c0 72 -70 146 -188 146c-114 0 -185 -62 -185 -129c0 -99 101 -129 186 -158c29 -10 50 -17 80 -26c65 42 107 99 107 167z" />
    <glyph glyph-name="nine.osf" horiz-adv-x="566" 
d="M39 316c0 137 104 215 216 215c169 0 259 -129 259 -332c0 -262 -139 -370 -284 -370c-60 0 -102 14 -145 37v38c45 -24 88 -37 144 -37c120 0 246 91 246 333v6c-60 -64 -142 -99 -221 -99c-104 0 -215 67 -215 209zM79 317c0 -123 92 -173 184 -173
c74 0 156 38 210 106c-14 155 -93 244 -216 244c-92 0 -178 -59 -178 -177z" />
    <glyph glyph-name="zero.sinf" horiz-adv-x="432" 
d="M394 104c0 -121 -57 -211 -178 -211s-178 90 -178 211s57 211 178 211s178 -90 178 -211zM72 104c0 -108 45 -178 144 -178c98 0 144 70 144 178s-46 178 -144 178c-99 0 -144 -70 -144 -178z" />
    <glyph glyph-name="one.sinf" horiz-adv-x="258" 
d="M138 308h25v-376h77v-32h-209v32h99v340l-91 -34v32z" />
    <glyph glyph-name="two.sinf" horiz-adv-x="347" 
d="M46 277c40 27 83 38 127 38c79 0 134 -39 134 -105c0 -70 -58 -107 -117 -142c-60 -36 -121 -66 -122 -136h243v-32h-280v18c0 99 72 137 137 175c55 32 105 60 105 117c0 46 -40 73 -103 73c-42 0 -83 -13 -124 -40v34z" />
    <glyph glyph-name="three.sinf" horiz-adv-x="357" 
d="M304 205c0 -42 -25 -80 -70 -92c43 -10 86 -41 86 -104c0 -76 -62 -116 -143 -116c-60 0 -104 10 -142 27v33c39 -19 82 -28 140 -28c65 0 113 27 113 86c0 61 -51 83 -111 83h-62v33h58c68 0 98 35 98 76c0 46 -38 80 -106 80c-46 0 -84 -10 -123 -29v33
c36 18 76 28 127 28c83 0 135 -47 135 -110z" />
    <glyph glyph-name="four.sinf" horiz-adv-x="392" 
d="M251 308h37v-281h82v-31h-82v-96h-34v96h-234v30zM254 27v235l-192 -235h192z" />
    <glyph glyph-name="five.sinf" horiz-adv-x="353" 
d="M62 308h239v-32h-207l-9 -144c26 8 56 13 84 13c77 0 152 -35 152 -126c0 -78 -64 -126 -153 -126c-47 0 -95 10 -130 28v32c35 -18 82 -28 127 -28c72 0 121 35 121 94c0 71 -60 94 -129 94c-36 0 -75 -7 -108 -19z" />
    <glyph glyph-name="six.sinf" horiz-adv-x="378" 
d="M73 98c42 35 88 53 138 53c68 0 137 -42 137 -127c0 -84 -64 -131 -142 -131c-112 0 -167 78 -167 201c0 155 77 221 182 221c33 0 66 -9 93 -23v-33c-28 16 -61 23 -92 23c-83 0 -147 -49 -149 -184zM74 64c8 -91 54 -139 130 -139c61 0 110 31 110 97
c0 71 -53 97 -111 97c-46 0 -93 -19 -129 -55z" />
    <glyph glyph-name="seven.sinf" horiz-adv-x="309" 
d="M125 -100h-36l166 376h-237v32h275v-30z" />
    <glyph glyph-name="eight.sinf" horiz-adv-x="397" 
d="M52 213c0 50 47 102 146 102c92 0 146 -54 148 -109c0 -43 -22 -83 -63 -108c43 -19 77 -48 77 -97c0 -54 -50 -108 -160 -108c-109 0 -163 54 -163 117c0 44 25 88 75 115c-35 18 -60 45 -60 88zM201 92c-19 6 -40 11 -59 19c-46 -21 -71 -59 -71 -97
c0 -52 44 -89 129 -89c79 0 126 33 126 75c0 58 -61 74 -125 92zM312 200c0 43 -40 83 -114 83c-71 0 -112 -32 -112 -70c0 -59 64 -74 114 -89c16 -4 35 -9 54 -15c36 21 58 55 58 91z" />
    <glyph glyph-name="nine.sinf" horiz-adv-x="378" 
d="M30 184c0 84 64 131 142 131c113 0 167 -78 167 -201c0 -155 -76 -221 -182 -221c-33 0 -66 9 -93 23v33c28 -16 61 -23 92 -23c83 0 147 49 149 184c-42 -35 -88 -53 -138 -53c-68 0 -137 42 -137 127zM64 186c0 -71 53 -97 111 -97c46 0 93 19 129 55
c-8 91 -54 139 -130 139c-61 0 -110 -31 -110 -97z" />
    <glyph glyph-name="zero.sups" horiz-adv-x="432" 
d="M394 580c0 -121 -57 -211 -178 -211s-178 90 -178 211s57 211 178 211s178 -90 178 -211zM72 580c0 -108 45 -178 144 -178c98 0 144 70 144 178s-46 178 -144 178c-99 0 -144 -70 -144 -178z" />
    <glyph glyph-name="one.sups" horiz-adv-x="258" 
d="M138 780h25v-376h77v-32h-209v32h99v340l-91 -34v32z" />
    <glyph glyph-name="two.sups" horiz-adv-x="348" 
d="M46 753c40 27 83 38 127 38c79 0 134 -39 134 -105c0 -70 -58 -107 -117 -142c-60 -36 -121 -66 -122 -136h243v-32h-280v18c0 99 72 137 137 175c55 32 105 60 105 117c0 46 -40 73 -103 73c-42 0 -83 -13 -124 -40v34z" />
    <glyph glyph-name="three.sups" horiz-adv-x="357" 
d="M304 681c0 -42 -25 -80 -70 -92c43 -10 86 -41 86 -104c0 -76 -62 -116 -143 -116c-60 0 -104 10 -142 27v33c39 -19 82 -28 140 -28c65 0 113 27 113 86c0 61 -51 83 -111 83h-62v33h58c68 0 98 35 98 76c0 46 -38 80 -106 80c-46 0 -84 -10 -123 -29v33
c36 18 76 28 127 28c83 0 135 -47 135 -110z" />
    <glyph glyph-name="four.sups" horiz-adv-x="392" 
d="M251 780h37v-281h82v-31h-82v-96h-34v96h-234v30zM254 499v235l-192 -235h192z" />
    <glyph glyph-name="five.sups" horiz-adv-x="353" 
d="M62 780h239v-32h-207l-9 -144c26 8 56 13 84 13c77 0 152 -35 152 -126c0 -78 -64 -126 -153 -126c-47 0 -95 10 -130 28v32c35 -18 82 -28 127 -28c72 0 121 35 121 94c0 71 -60 94 -129 94c-36 0 -75 -7 -108 -19z" />
    <glyph glyph-name="six.sups" horiz-adv-x="378" 
d="M73 574c42 35 88 53 138 53c68 0 137 -42 137 -127c0 -84 -64 -131 -142 -131c-112 0 -167 78 -167 201c0 155 77 221 182 221c33 0 66 -9 93 -23v-33c-28 16 -61 23 -92 23c-83 0 -147 -49 -149 -184zM74 540c8 -91 54 -139 130 -139c61 0 110 31 110 97
c0 71 -53 97 -111 97c-46 0 -93 -19 -129 -55z" />
    <glyph glyph-name="seven.sups" horiz-adv-x="309" 
d="M125 372h-36l166 376h-237v32h275v-30z" />
    <glyph glyph-name="eight.sups" horiz-adv-x="397" 
d="M52 689c0 50 47 102 146 102c92 0 146 -54 148 -109c0 -43 -22 -83 -63 -108c43 -19 77 -48 77 -97c0 -54 -50 -108 -160 -108c-109 0 -163 54 -163 117c0 44 25 88 75 115c-35 18 -60 45 -60 88zM201 568c-19 6 -40 11 -59 19c-46 -21 -71 -59 -71 -97
c0 -52 44 -89 129 -89c79 0 126 33 126 75c0 58 -61 74 -125 92zM312 676c0 43 -40 83 -114 83c-71 0 -112 -32 -112 -70c0 -59 64 -74 114 -89c16 -4 35 -9 54 -15c36 21 58 55 58 91z" />
    <glyph glyph-name="nine.sups" horiz-adv-x="378" 
d="M30 660c0 84 64 131 142 131c113 0 167 -78 167 -201c0 -155 -76 -221 -182 -221c-33 0 -66 9 -93 23v33c28 -16 61 -23 92 -23c83 0 147 49 149 184c-42 -35 -88 -53 -138 -53c-68 0 -137 42 -137 127zM64 662c0 -71 53 -97 111 -97c46 0 93 19 129 55
c-8 91 -54 139 -130 139c-61 0 -110 -31 -110 -97z" />
    <glyph glyph-name="zero.tf" horiz-adv-x="618" 
d="M581 340c0 -203 -95 -351 -272 -351s-272 148 -272 351c0 204 95 351 272 351s272 -147 272 -351zM77 340c0 -188 81 -313 232 -313s232 125 232 313s-81 313 -232 313s-232 -125 -232 -313z" />
    <glyph glyph-name="one.tf" horiz-adv-x="618" 
d="M323 680h28v-642h218v-38h-494v38h236v599l-207 -77v38z" />
    <glyph glyph-name="two.tf" horiz-adv-x="618" 
d="M85 628c68 46 138 63 217 63c139 0 230 -64 230 -170c0 -116 -94 -177 -203 -235c-107 -57 -214 -115 -216 -248h436v-38h-479v22c0 166 122 233 235 293c104 56 187 105 187 207c0 81 -72 132 -193 132c-77 0 -145 -20 -214 -65v39z" />
    <glyph glyph-name="three.tf" horiz-adv-x="618" 
d="M525 510c0 -70 -42 -137 -127 -155c81 -16 155 -68 155 -175c0 -124 -100 -191 -243 -191c-103 0 -181 18 -241 46v39c63 -30 139 -48 238 -47c126 0 208 52 208 155c0 109 -91 151 -208 151h-104v38l100 -1c131 0 183 66 183 137c0 82 -66 147 -195 147
c-80 0 -144 -17 -210 -49v39c61 30 128 47 214 47c147 0 230 -81 230 -181z" />
    <glyph glyph-name="four.tf" horiz-adv-x="618" 
d="M414 680h43v-477h135v-38h-135v-165h-39v165h-397v35zM418 203v423l-347 -423h347z" />
    <glyph glyph-name="five.tf" horiz-adv-x="618" 
d="M114 680h405v-38h-367l-18 -268c50 16 103 24 161 24c138 0 259 -57 259 -204c0 -124 -102 -205 -255 -205c-86 0 -166 17 -224 46v38c60 -30 137 -47 220 -47c135 0 219 65 219 168c0 122 -104 167 -230 167c-69 0 -134 -12 -191 -32z" />
    <glyph glyph-name="six.tf" horiz-adv-x="618" 
d="M103 313c68 64 152 100 240 100c114 0 225 -67 225 -209c0 -137 -104 -215 -232 -215c-182 0 -273 129 -273 332c0 262 123 370 300 370c54 0 106 -14 149 -37v-38c-45 24 -98 37 -148 37c-152 0 -261 -91 -261 -333v-7zM105 270c14 -155 93 -244 229 -244
c108 0 194 59 194 177c0 123 -92 173 -193 173c-84 0 -169 -38 -230 -106z" />
    <glyph glyph-name="seven.tf" horiz-adv-x="618" 
d="M66 680h502v-34l-328 -646h-43l326 642h-457v38z" />
    <glyph glyph-name="eight.tf" horiz-adv-x="618" 
d="M68 524c0 83 78 167 240 167c155 0 241 -89 242 -177c1 -79 -41 -146 -112 -186c76 -31 137 -76 137 -163c0 -89 -84 -176 -265 -176c-179 0 -267 89 -267 194c0 78 46 153 132 195c-62 29 -107 74 -107 146zM312 330c-34 9 -69 19 -101 31c-82 -34 -128 -102 -128 -175
c0 -92 75 -160 228 -160c144 0 224 65 224 138c0 108 -110 134 -223 166zM510 508c0 72 -70 146 -203 146c-130 0 -200 -62 -200 -129c0 -107 115 -133 202 -158c30 -8 62 -17 92 -26c68 36 109 96 109 167z" />
    <glyph glyph-name="nine.tf" horiz-adv-x="618" 
d="M49 476c0 137 104 215 232 215c183 0 273 -129 273 -332c0 -262 -123 -370 -300 -370c-54 0 -106 14 -149 37v38c45 -24 98 -37 148 -37c152 0 262 91 262 333v8c-69 -65 -152 -101 -241 -101c-114 0 -225 67 -225 209zM89 477c0 -123 92 -173 194 -173
c84 0 170 39 230 107c-14 154 -94 243 -230 243c-108 0 -194 -59 -194 -177z" />
    <glyph glyph-name="zero.tosf" horiz-adv-x="618" 
d="M586 260c0 -133 -95 -271 -277 -271s-277 138 -277 271c0 134 95 271 277 271s277 -137 277 -271zM72 260c0 -118 81 -233 237 -233s237 115 237 233s-81 233 -237 233s-237 -115 -237 -233z" />
    <glyph glyph-name="one.tosf" horiz-adv-x="618" 
d="M322 520h28v-482h218v-38h-494v38h236v439l-207 -77v38z" />
    <glyph glyph-name="two.tosf" horiz-adv-x="618" 
d="M545 0h-475v26c0 124 129 172 236 202c116 33 186 59 186 141c0 74 -69 125 -188 125c-73 0 -147 -20 -215 -65v39c66 46 144 63 218 63c137 0 225 -64 225 -163c0 -104 -88 -138 -212 -174c-97 -28 -207 -70 -207 -156h432v-38z" />
    <glyph glyph-name="three.tosf" horiz-adv-x="618" 
d="M522 350c0 -70 -42 -137 -127 -155c81 -16 155 -68 155 -175c0 -124 -100 -191 -241 -191c-105 0 -179 16 -239 45v39c63 -31 135 -47 236 -46c124 0 206 52 206 155c0 109 -91 151 -206 151h-102v38l98 -1c129 0 181 66 181 137c0 82 -66 147 -193 147
c-82 0 -143 -16 -208 -47v39c60 29 124 45 212 45c145 0 228 -81 228 -181z" />
    <glyph glyph-name="four.tosf" horiz-adv-x="618" 
d="M412 520h43v-477h136v-38h-136v-165h-39v165h-397v35zM416 43v423l-347 -423h347z" />
    <glyph glyph-name="five.tosf" horiz-adv-x="618" 
d="M117 520h401v-38h-363l-18 -268c50 16 103 24 158 24c137 0 258 -57 258 -204c0 -123 -98 -205 -254 -205c-83 0 -163 17 -221 46v38c60 -30 137 -47 217 -47c137 0 218 65 218 168c0 122 -104 167 -229 167c-66 0 -131 -12 -188 -32z" />
    <glyph glyph-name="six.tosf" horiz-adv-x="618" 
d="M103 313c68 64 152 100 240 100c114 0 225 -67 225 -209c0 -137 -104 -215 -232 -215c-182 0 -273 129 -273 332c0 262 123 370 300 370c54 0 106 -14 149 -37v-38c-45 24 -98 37 -148 37c-152 0 -261 -91 -261 -333v-7zM105 270c14 -155 93 -244 229 -244
c108 0 194 59 194 177c0 123 -92 173 -193 173c-84 0 -169 -38 -230 -106z" />
    <glyph glyph-name="seven.tosf" horiz-adv-x="618" 
d="M64 520h502v-34l-328 -646h-43l326 642h-457v38z" />
    <glyph glyph-name="eight.tosf" horiz-adv-x="618" 
d="M68 524c0 83 78 167 240 167c155 0 241 -89 242 -177c1 -79 -41 -146 -112 -186c76 -31 137 -76 137 -163c0 -89 -84 -176 -265 -176c-179 0 -267 89 -267 194c0 78 46 153 132 195c-62 29 -107 74 -107 146zM312 330c-34 9 -69 19 -101 31c-82 -34 -128 -102 -128 -175
c0 -92 75 -160 228 -160c144 0 224 65 224 138c0 108 -110 134 -223 166zM511 508c0 72 -70 146 -203 146c-130 0 -200 -62 -200 -129c0 -107 115 -133 202 -158c30 -8 62 -17 92 -26c68 36 109 96 109 167z" />
    <glyph glyph-name="nine.tosf" horiz-adv-x="618" 
d="M49 316c0 137 104 215 232 215c183 0 273 -129 273 -332c0 -262 -123 -370 -300 -370c-54 0 -106 14 -149 37v38c45 -24 98 -37 148 -37c152 0 262 91 262 333v8c-69 -65 -152 -101 -241 -101c-114 0 -225 67 -225 209zM89 317c0 -123 92 -173 194 -173
c84 0 170 39 230 107c-14 154 -94 243 -230 243c-108 0 -194 -59 -194 -177z" />
    <glyph glyph-name="fraction" unicode="&#x2044;" horiz-adv-x="165" 
d="M-136 -11h-22l456 722h22z" />
    <glyph glyph-name="onehalf" unicode="&#xbd;" horiz-adv-x="873" 
d="M206 -11h-22l456 722h22zM563 377c40 27 83 38 127 38c79 0 134 -39 134 -105c0 -70 -58 -107 -117 -142c-60 -36 -121 -66 -122 -136h243v-32h-280v18c0 99 72 137 137 175c55 32 105 60 105 117c0 46 -40 73 -103 73c-42 0 -83 -13 -124 -40v34zM159 680h25v-376h77
v-32h-209v32h99v340l-91 -34v32z" />
    <glyph glyph-name="onequarter" unicode="&#xbc;" horiz-adv-x="919" 
d="M763 408h37v-281h82v-31h-82v-96h-34v96h-234v30zM766 127v235l-192 -235h192zM210 -11h-22l456 722h22zM163 680h25v-376h77v-32h-209v32h99v340l-91 -34v32z" />
    <glyph glyph-name="threequarters" unicode="&#xbe;" horiz-adv-x="967" 
d="M281 -11h-22l456 722h22zM812 408h37v-281h82v-31h-82v-96h-34v96h-234v30zM815 127v235l-192 -235h192zM327 581c0 -42 -25 -80 -70 -92c43 -10 86 -41 86 -104c0 -76 -62 -116 -143 -116c-60 0 -104 10 -142 27v33c39 -19 82 -28 140 -28c65 0 113 27 113 86
c0 61 -51 83 -111 83h-62v33h58c68 0 98 35 98 76c0 46 -38 80 -106 80c-46 0 -84 -10 -123 -29v33c36 18 76 28 127 28c83 0 135 -47 135 -110z" />
    <glyph glyph-name="oneeighth" unicode="&#x215b;" horiz-adv-x="900" 
d="M553 313c0 50 47 102 146 102c92 0 146 -54 148 -109c0 -43 -22 -83 -63 -108c43 -19 77 -48 77 -97c0 -54 -50 -108 -160 -108c-109 0 -163 54 -163 117c0 44 25 88 75 115c-35 18 -60 45 -60 88zM702 192c-19 6 -40 11 -59 19c-46 -21 -71 -59 -71 -97
c0 -52 44 -89 129 -89c79 0 126 33 126 75c0 58 -61 74 -125 92zM813 300c0 43 -40 83 -114 83c-71 0 -112 -32 -112 -70c0 -59 64 -74 114 -89c16 -4 35 -9 54 -15c36 21 58 55 58 91zM202 -11h-22l456 722h22zM159 680h25v-376h77v-32h-209v32h99v340l-91 -34v32z" />
    <glyph glyph-name="threeeighths" unicode="&#x215c;" horiz-adv-x="948" 
d="M601 313c0 50 47 102 146 102c92 0 146 -54 148 -109c0 -43 -22 -83 -63 -108c43 -19 77 -48 77 -97c0 -54 -50 -108 -160 -108c-109 0 -163 54 -163 117c0 44 25 88 75 115c-35 18 -60 45 -60 88zM750 192c-19 6 -40 11 -59 19c-46 -21 -71 -59 -71 -97
c0 -52 44 -89 129 -89c79 0 126 33 126 75c0 58 -61 74 -125 92zM861 300c0 43 -40 83 -114 83c-71 0 -112 -32 -112 -70c0 -59 64 -74 114 -89c16 -4 35 -9 54 -15c36 21 58 55 58 91zM260 -11h-22l456 722h22zM323 581c0 -42 -25 -80 -70 -92c43 -10 86 -41 86 -104
c0 -76 -62 -116 -143 -116c-60 0 -104 10 -142 27v33c39 -19 82 -28 140 -28c65 0 113 27 113 86c0 61 -51 83 -111 83h-62v33h58c68 0 98 35 98 76c0 46 -38 80 -106 80c-46 0 -84 -10 -123 -29v33c36 18 76 28 127 28c83 0 135 -47 135 -110z" />
    <glyph glyph-name="fiveeighths" unicode="&#x215d;" horiz-adv-x="938" 
d="M591 313c0 50 47 102 146 102c92 0 146 -54 148 -109c0 -43 -22 -83 -63 -108c43 -19 77 -48 77 -97c0 -54 -50 -108 -160 -108c-109 0 -163 54 -163 117c0 44 25 88 75 115c-35 18 -60 45 -60 88zM740 192c-19 6 -40 11 -59 19c-46 -21 -71 -59 -71 -97
c0 -52 44 -89 129 -89c79 0 126 33 126 75c0 58 -61 74 -125 92zM851 300c0 43 -40 83 -114 83c-71 0 -112 -32 -112 -70c0 -59 64 -74 114 -89c16 -4 35 -9 54 -15c36 21 58 55 58 91zM250 -11h-22l456 722h22zM76 680h239v-32h-207l-9 -144c26 8 56 13 84 13
c77 0 152 -35 152 -126c0 -78 -64 -126 -153 -126c-47 0 -95 10 -130 28v32c35 -18 82 -28 127 -28c72 0 121 35 121 94c0 71 -60 94 -129 94c-36 0 -75 -7 -108 -19z" />
    <glyph glyph-name="seveneighths" unicode="&#x215e;" horiz-adv-x="837" 
d="M145 -11h-22l456 722h22zM488 313c0 50 47 102 146 102c92 0 146 -54 148 -109c0 -43 -22 -83 -63 -108c43 -19 77 -48 77 -97c0 -54 -50 -108 -160 -108c-109 0 -163 54 -163 117c0 44 25 88 75 115c-35 18 -60 45 -60 88zM637 192c-19 6 -40 11 -59 19
c-46 -21 -71 -59 -71 -97c0 -52 44 -89 129 -89c79 0 126 33 126 75c0 58 -61 74 -125 92zM748 300c0 43 -40 83 -114 83c-71 0 -112 -32 -112 -70c0 -59 64 -74 114 -89c16 -4 35 -9 54 -15c36 21 58 55 58 91zM145 272h-36l166 376h-237v32h275v-30z" />
    <glyph glyph-name="zero.dnom" horiz-adv-x="432" 
d="M394 204c0 -121 -57 -211 -178 -211s-178 90 -178 211s57 211 178 211s178 -90 178 -211zM72 204c0 -108 45 -178 144 -178c98 0 144 70 144 178s-46 178 -144 178c-99 0 -144 -70 -144 -178z" />
    <glyph glyph-name="one.dnom" horiz-adv-x="258" 
d="M138 408h25v-376h77v-32h-209v32h99v340l-91 -34v32z" />
    <glyph glyph-name="two.dnom" horiz-adv-x="347" 
d="M46 377c40 27 83 38 127 38c79 0 134 -39 134 -105c0 -70 -58 -107 -117 -142c-60 -36 -121 -66 -122 -136h243v-32h-280v18c0 99 72 137 137 175c55 32 105 60 105 117c0 46 -40 73 -103 73c-42 0 -83 -13 -124 -40v34z" />
    <glyph glyph-name="three.dnom" horiz-adv-x="357" 
d="M304 305c0 -42 -25 -80 -70 -92c43 -10 86 -41 86 -104c0 -76 -62 -116 -143 -116c-60 0 -104 10 -142 27v33c39 -19 82 -28 140 -28c65 0 113 27 113 86c0 61 -51 83 -111 83h-62v33h58c68 0 98 35 98 76c0 46 -38 80 -106 80c-46 0 -84 -10 -123 -29v33
c36 18 76 28 127 28c83 0 135 -47 135 -110z" />
    <glyph glyph-name="four.dnom" horiz-adv-x="392" 
d="M251 408h37v-281h82v-31h-82v-96h-34v96h-234v30zM254 127v235l-192 -235h192z" />
    <glyph glyph-name="five.dnom" horiz-adv-x="353" 
d="M62 408h239v-32h-207l-9 -144c26 8 56 13 84 13c77 0 152 -35 152 -126c0 -78 -64 -126 -153 -126c-47 0 -95 10 -130 28v32c35 -18 82 -28 127 -28c72 0 121 35 121 94c0 71 -60 94 -129 94c-36 0 -75 -7 -108 -19z" />
    <glyph glyph-name="six.dnom" horiz-adv-x="378" 
d="M73 198c42 35 88 53 138 53c68 0 137 -42 137 -127c0 -84 -64 -131 -142 -131c-112 0 -167 78 -167 201c0 155 77 221 182 221c33 0 66 -9 93 -23v-33c-28 16 -61 23 -92 23c-83 0 -147 -49 -149 -184zM74 164c8 -91 54 -139 130 -139c61 0 110 31 110 97
c0 71 -53 97 -111 97c-46 0 -93 -19 -129 -55z" />
    <glyph glyph-name="seven.dnom" horiz-adv-x="309" 
d="M125 0h-36l166 376h-237v32h275v-30z" />
    <glyph glyph-name="eight.dnom" horiz-adv-x="397" 
d="M52 313c0 50 47 102 146 102c92 0 146 -54 148 -109c0 -43 -22 -83 -63 -108c43 -19 77 -48 77 -97c0 -54 -50 -108 -160 -108c-109 0 -163 54 -163 117c0 44 25 88 75 115c-35 18 -60 45 -60 88zM201 192c-19 6 -40 11 -59 19c-46 -21 -71 -59 -71 -97
c0 -52 44 -89 129 -89c79 0 126 33 126 75c0 58 -61 74 -125 92zM312 300c0 43 -40 83 -114 83c-71 0 -112 -32 -112 -70c0 -59 64 -74 114 -89c16 -4 35 -9 54 -15c36 21 58 55 58 91z" />
    <glyph glyph-name="nine.dnom" horiz-adv-x="378" 
d="M30 284c0 84 64 131 142 131c113 0 167 -78 167 -201c0 -155 -76 -221 -182 -221c-33 0 -66 9 -93 23v33c28 -16 61 -23 92 -23c83 0 147 49 149 184c-42 -35 -88 -53 -138 -53c-68 0 -137 42 -137 127zM64 286c0 -71 53 -97 111 -97c46 0 93 19 129 55
c-8 91 -54 139 -130 139c-61 0 -110 -31 -110 -97z" />
    <glyph glyph-name="zero.numr" horiz-adv-x="432" 
d="M394 480c0 -121 -57 -211 -178 -211s-178 90 -178 211s57 211 178 211s178 -90 178 -211zM72 480c0 -108 45 -178 144 -178c98 0 144 70 144 178s-46 178 -144 178c-99 0 -144 -70 -144 -178z" />
    <glyph glyph-name="one.numr" horiz-adv-x="258" 
d="M138 680h25v-376h77v-32h-209v32h99v340l-91 -34v32z" />
    <glyph glyph-name="two.numr" horiz-adv-x="348" 
d="M46 653c40 27 83 38 127 38c79 0 134 -39 134 -105c0 -70 -58 -107 -117 -142c-60 -36 -121 -66 -122 -136h243v-32h-280v18c0 99 72 137 137 175c55 32 105 60 105 117c0 46 -40 73 -103 73c-42 0 -83 -13 -124 -40v34z" />
    <glyph glyph-name="three.numr" horiz-adv-x="357" 
d="M304 581c0 -42 -25 -80 -70 -92c43 -10 86 -41 86 -104c0 -76 -62 -116 -143 -116c-60 0 -104 10 -142 27v33c39 -19 82 -28 140 -28c65 0 113 27 113 86c0 61 -51 83 -111 83h-62v33h58c68 0 98 35 98 76c0 46 -38 80 -106 80c-46 0 -84 -10 -123 -29v33
c36 18 76 28 127 28c83 0 135 -47 135 -110z" />
    <glyph glyph-name="four.numr" horiz-adv-x="392" 
d="M251 680h37v-281h82v-31h-82v-96h-34v96h-234v30zM254 399v235l-192 -235h192z" />
    <glyph glyph-name="five.numr" horiz-adv-x="353" 
d="M62 680h239v-32h-207l-9 -144c26 8 56 13 84 13c77 0 152 -35 152 -126c0 -78 -64 -126 -153 -126c-47 0 -95 10 -130 28v32c35 -18 82 -28 127 -28c72 0 121 35 121 94c0 71 -60 94 -129 94c-36 0 -75 -7 -108 -19z" />
    <glyph glyph-name="six.numr" horiz-adv-x="378" 
d="M73 474c42 35 88 53 138 53c68 0 137 -42 137 -127c0 -84 -64 -131 -142 -131c-112 0 -167 78 -167 201c0 155 77 221 182 221c33 0 66 -9 93 -23v-33c-28 16 -61 23 -92 23c-83 0 -147 -49 -149 -184zM74 440c8 -91 54 -139 130 -139c61 0 110 31 110 97
c0 71 -53 97 -111 97c-46 0 -93 -19 -129 -55z" />
    <glyph glyph-name="seven.numr" horiz-adv-x="309" 
d="M125 272h-36l166 376h-237v32h275v-30z" />
    <glyph glyph-name="eight.numr" horiz-adv-x="397" 
d="M52 589c0 50 47 102 146 102c92 0 146 -54 148 -109c0 -43 -22 -83 -63 -108c43 -19 77 -48 77 -97c0 -54 -50 -108 -160 -108c-109 0 -163 54 -163 117c0 44 25 88 75 115c-35 18 -60 45 -60 88zM201 468c-19 6 -40 11 -59 19c-46 -21 -71 -59 -71 -97
c0 -52 44 -89 129 -89c79 0 126 33 126 75c0 58 -61 74 -125 92zM312 576c0 43 -40 83 -114 83c-71 0 -112 -32 -112 -70c0 -59 64 -74 114 -89c16 -4 35 -9 54 -15c36 21 58 55 58 91z" />
    <glyph glyph-name="nine.numr" horiz-adv-x="378" 
d="M30 560c0 84 64 131 142 131c113 0 167 -78 167 -201c0 -155 -76 -221 -182 -221c-33 0 -66 9 -93 23v33c28 -16 61 -23 92 -23c83 0 147 49 149 184c-42 -35 -88 -53 -138 -53c-68 0 -137 42 -137 127zM64 562c0 -71 53 -97 111 -97c46 0 93 19 129 55
c-8 91 -54 139 -130 139c-61 0 -110 -31 -110 -97z" />
    <glyph glyph-name="asterisk" unicode="*" horiz-adv-x="427" 
d="M213 525l-82 -119l-29 21l87 113l-135 40l13 34l132 -48l-4 134h36l-4 -134l133 48l12 -34l-135 -40l87 -113l-29 -21z" />
    <glyph glyph-name="backslash" unicode="\" horiz-adv-x="406" 
d="M367 -57h-30l-297 814h30z" />
    <glyph glyph-name="periodcentered" unicode="&#xb7;" horiz-adv-x="199" 
d="M130 239c0 -18 -13 -29 -30 -29c-16 0 -30 11 -30 29s14 29 30 29c17 0 30 -11 30 -29z" />
    <glyph glyph-name="bullet" unicode="&#x2022;" horiz-adv-x="293" 
d="M96 350c0 31 23 50 50 50c28 0 51 -19 51 -50s-23 -50 -51 -50c-27 0 -50 19 -50 50z" />
    <glyph glyph-name="colon" unicode=":" horiz-adv-x="198" 
d="M129 402c0 -18 -13 -29 -30 -29c-16 0 -30 11 -30 29s14 29 30 29c17 0 30 -11 30 -29zM129 23c0 -19 -13 -30 -30 -30c-16 0 -30 11 -30 30c0 18 14 29 30 29c17 0 30 -11 30 -29z" />
    <glyph glyph-name="comma" unicode="," horiz-adv-x="203" 
d="M70 -144h-32l51 218h40z" />
    <glyph glyph-name="ellipsis" unicode="&#x2026;" horiz-adv-x="492" 
d="M423 23c0 -19 -13 -30 -30 -30c-16 0 -30 11 -30 30c0 18 14 29 30 29c17 0 30 -11 30 -29zM129 23c0 -19 -13 -30 -30 -30c-16 0 -30 11 -30 30c0 18 14 29 30 29c17 0 30 -11 30 -29zM276 23c0 -19 -13 -30 -30 -30c-16 0 -30 11 -30 30c0 18 14 29 30 29
c17 0 30 -11 30 -29z" />
    <glyph glyph-name="exclam" unicode="!" horiz-adv-x="205" 
d="M120 177h-34l-3 523h40zM132 22c0 -18 -13 -29 -30 -29c-15 0 -29 11 -29 29s14 29 29 29c17 0 30 -11 30 -29z" />
    <glyph glyph-name="exclamdown" unicode="&#xa1;" horiz-adv-x="191" 
d="M116 -216h-40l3 523h34zM125 462c0 -18 -13 -29 -30 -29c-15 0 -29 11 -29 29s14 29 29 29c17 0 30 -11 30 -29z" />
    <glyph glyph-name="numbersign" unicode="#" horiz-adv-x="648" 
d="M127 0h-39l44 185h-92v34h100l58 243h-108v34h116l43 185h39l-44 -185h234l43 185h39l-44 -185h91v-34h-99l-57 -243h106v-34h-114l-44 -185h-39l44 185h-234zM237 462l-58 -243h234l57 243h-233z" />
    <glyph glyph-name="period" unicode="." horiz-adv-x="198" 
d="M129 23c0 -19 -13 -30 -30 -30c-16 0 -30 11 -30 30c0 18 14 29 30 29c17 0 30 -11 30 -29z" />
    <glyph glyph-name="question" unicode="?" horiz-adv-x="488" 
d="M251 192h-38c0 134 194 221 194 353c0 83 -70 128 -182 128c-71 0 -136 -25 -187 -56v38c50 32 117 56 192 56c128 0 217 -59 217 -163c0 -145 -196 -234 -196 -356zM261 23c0 -19 -13 -30 -30 -30c-16 0 -30 11 -30 30c0 18 14 29 30 29c17 0 30 -11 30 -29z" />
    <glyph glyph-name="questiondown" unicode="&#xbf;" horiz-adv-x="478" 
d="M444 -171c-49 -31 -117 -56 -192 -56c-128 0 -217 59 -217 163c0 145 197 234 197 356h38c0 -134 -195 -221 -195 -353c0 -83 71 -128 182 -128c72 0 136 25 187 56v-38zM281 461c0 -18 -14 -29 -30 -29c-17 0 -30 11 -30 29c0 19 13 30 30 30c16 0 30 -11 30 -30z" />
    <glyph glyph-name="quotedbl" unicode="&#x22;" horiz-adv-x="267" 
d="M195 556h-27v144h38zM95 556h-27v144h38z" />
    <glyph glyph-name="quotesingle" unicode="'" horiz-adv-x="167" 
d="M95 556h-27v144h38z" />
    <glyph glyph-name="semicolon" unicode=";" horiz-adv-x="288" 
d="M119 -144h-32l51 218h40zM177 443c0 -18 -13 -29 -30 -29c-16 0 -30 11 -30 29c0 19 14 30 30 30c17 0 30 -11 30 -30z" />
    <glyph glyph-name="slash" unicode="/" horiz-adv-x="406" 
d="M69 -57h-30l297 814h30z" />
    <glyph glyph-name="underscore" unicode="_" horiz-adv-x="434" 
d="M434 -132h-434v36h434v-36z" />
    <glyph glyph-name="braceleft" unicode="{" horiz-adv-x="271" 
d="M231 -76v-34c-81 -15 -115 25 -115 97v251c0 67 -48 97 -89 95v34c40 -2 89 27 89 95v251c0 72 34 113 115 97v-34c-59 9 -75 -20 -75 -77v-239c0 -66 -33 -101 -69 -110c36 -9 69 -44 69 -110v-239c0 -57 16 -86 75 -77z" />
    <glyph glyph-name="braceright" unicode="}" horiz-adv-x="271" 
d="M155 -13c0 -72 -34 -112 -115 -97v34c59 -9 76 20 76 77v239c0 66 32 101 69 110c-37 9 -69 44 -69 110v239c0 57 -17 86 -76 77v34c81 16 115 -25 115 -97v-251c0 -68 49 -97 89 -95v-34c-41 2 -89 -28 -89 -95v-251z" />
    <glyph glyph-name="bracketleft" unicode="[" horiz-adv-x="249" 
d="M226 -110h-150v920h150v-38h-110v-844h110v-38z" />
    <glyph glyph-name="bracketright" unicode="]" horiz-adv-x="249" 
d="M173 -110h-150v38h111v844h-111v38h150v-920z" />
    <glyph glyph-name="parenleft" unicode="(" horiz-adv-x="257" 
d="M197 808h38c-89 -126 -144 -299 -144 -458s55 -332 144 -458h-38c-89 127 -148 297 -148 458s59 331 148 458z" />
    <glyph glyph-name="parenright" unicode=")" horiz-adv-x="257" 
d="M22 808h38c90 -127 148 -297 148 -458c0 -160 -58 -331 -148 -458h-38c89 126 144 299 144 458s-55 332 -144 458z" />
    <glyph glyph-name="emdash" unicode="&#x2014;" horiz-adv-x="752" 
d="M683 226h-614v36h614v-36z" />
    <glyph glyph-name="endash" unicode="&#x2013;" horiz-adv-x="568" 
d="M499 226h-430v36h430v-36z" />
    <glyph glyph-name="hyphen" unicode="-" horiz-adv-x="485" 
d="M69 262h347v-36h-347v36z" />
    <glyph glyph-name="emdash.case" horiz-adv-x="760" 
d="M687 332h-614v36h614v-36z" />
    <glyph glyph-name="endash.case" horiz-adv-x="576" 
d="M503 332h-430v36h430v-36z" />
    <glyph glyph-name="hyphen.case" horiz-adv-x="493" 
d="M73 368h347v-36h-347v36z" />
    <glyph glyph-name="guillemotleft" unicode="&#xab;" horiz-adv-x="434" 
d="M371 66h-42l-119 169v10l119 169h42l-123 -174zM212 66h-42l-119 169v10l119 169h42l-123 -174z" />
    <glyph glyph-name="guillemotright" unicode="&#xbb;" horiz-adv-x="434" 
d="M263 66h-41l123 174l-123 174h41l120 -169v-10zM104 66h-41l123 174l-123 174h41l120 -169v-10z" />
    <glyph glyph-name="guilsinglleft" unicode="&#x2039;" horiz-adv-x="275" 
d="M212 66h-42l-119 169v10l119 169h42l-123 -174z" />
    <glyph glyph-name="guilsinglright" unicode="&#x203a;" horiz-adv-x="275" 
d="M104 66h-41l123 174l-123 174h41l120 -169v-10z" />
    <glyph glyph-name="quotedblbase" unicode="&#x201e;" horiz-adv-x="331" 
d="M198 -144h-32l51 218h40zM70 -144h-32l51 218h40z" />
    <glyph glyph-name="quotedblleft" unicode="&#x201c;" horiz-adv-x="317" 
d="M222 482h-40l59 218h32zM94 482h-40l59 218h32z" />
    <glyph glyph-name="quotedblright" unicode="&#x201d;" horiz-adv-x="314" 
d="M215 482h-32l51 218h40zM87 482h-32l51 218h40z" />
    <glyph glyph-name="quoteleft" unicode="&#x2018;" horiz-adv-x="189" 
d="M94 482h-40l59 218h32z" />
    <glyph glyph-name="quoteright" unicode="&#x2019;" horiz-adv-x="186" 
d="M87 482h-32l51 218h40z" />
    <glyph glyph-name="quotesinglbase" unicode="&#x201a;" horiz-adv-x="203" 
d="M70 -144h-32l51 218h40z" />
    <glyph glyph-name="guillemotleft.case" horiz-adv-x="452" 
d="M379 176h-42l-119 169v10l119 169h42l-123 -174zM220 176h-42l-119 169v10l119 169h42l-123 -174z" />
    <glyph glyph-name="guillemotright.case" horiz-adv-x="452" 
d="M273 176h-41l123 174l-123 174h41l120 -169v-10zM114 176h-41l123 174l-123 174h41l120 -169v-10z" />
    <glyph glyph-name="guilsinglleft.case" horiz-adv-x="293" 
d="M220 176h-42l-119 169v10l119 169h42l-123 -174z" />
    <glyph glyph-name="guilsinglright.case" horiz-adv-x="293" 
d="M114 176h-41l123 174l-123 174h41l120 -169v-10z" />
    <glyph glyph-name="space" unicode=" " horiz-adv-x="263" 
 />
    <glyph glyph-name="cent" unicode="&#xa2;" horiz-adv-x="511" 
d="M320 25c49 3 97 15 137 38v-38c-41 -22 -88 -33 -137 -36v-109h-34v109c-119 6 -235 83 -235 247c0 167 118 245 235 254v110h34v-109c46 -2 94 -14 132 -39v-37c-37 26 -86 39 -132 40v-430zM286 454c-101 -10 -197 -76 -197 -217c0 -138 95 -204 197 -211v428z" />
    <glyph glyph-name="currency" unicode="&#xa4;" horiz-adv-x="572" 
d="M166 201l-64 -65l-27 27l63 63c-29 31 -47 73 -47 124s18 93 47 124l-63 63l27 27l64 -65c34 25 76 38 120 38s86 -13 120 -38l64 65l27 -27l-63 -63c28 -31 46 -74 46 -124s-18 -93 -46 -124l63 -63l-27 -27l-64 65c-34 -25 -76 -38 -120 -38s-86 13 -120 38zM129 350
c0 -93 71 -152 157 -152c85 0 156 59 156 152c0 92 -71 152 -156 152c-86 0 -157 -59 -157 -152z" />
    <glyph glyph-name="dollar" unicode="$" horiz-adv-x="569" 
d="M300 -130h-34v120c-76 4 -156 25 -215 58v40c70 -40 159 -61 239 -61c108 0 198 35 198 134c0 222 -434 113 -434 356c0 115 100 168 212 173v120h34v-120c67 -2 135 -20 185 -48v-39c-54 31 -132 50 -200 50c-103 0 -191 -39 -191 -135c0 -210 434 -102 434 -354
c0 -125 -105 -174 -228 -175v-119z" />
    <glyph glyph-name="Euro" unicode="&#x20ac;" horiz-adv-x="736" 
d="M670 38c-56 -31 -126 -49 -196 -49c-151 0 -305 88 -342 263h-88v34h82c-2 16 -3 33 -3 51c0 20 1 39 4 57h-83v34h89c40 172 190 263 341 263c70 0 139 -17 196 -48v-40c-52 32 -121 50 -190 50c-134 0 -267 -77 -305 -225h379v-34h-386c-4 -18 -5 -37 -5 -57
c0 -18 1 -35 3 -51h388v-34h-380c36 -152 172 -225 308 -225c68 0 134 18 188 51v-40z" />
    <glyph glyph-name="sterling" unicode="&#xa3;" horiz-adv-x="605" 
d="M560 0h-522v38h33c47 0 78 34 78 94v187h-82v38h82v106c0 163 109 227 220 227c51 0 104 -14 143 -38v-38c-40 25 -91 39 -139 39c-95 0 -184 -53 -184 -191v-105h247v-38h-247v-187c0 -51 -18 -81 -43 -94h414v-38z" />
    <glyph glyph-name="yen" unicode="&#xa5;" horiz-adv-x="635" 
d="M556 680h44l-244 -371h166v-34h-185v-87h185v-34h-185v-154h-39v154h-184v34h184v87h-184v34h164l-243 371h44l238 -364z" />
    <glyph glyph-name="cent.tf" horiz-adv-x="618" 
d="M372 25c49 2 99 15 139 38v-38c-42 -22 -89 -33 -139 -36v-109h-34v109c-119 7 -233 84 -233 247c0 166 117 244 233 254v110h34v-109c46 -2 95 -14 134 -39v-37c-38 26 -87 39 -134 40v-430zM338 454c-100 -11 -195 -77 -195 -217c0 -137 93 -204 195 -211v428z" />
    <glyph glyph-name="currency.tf" horiz-adv-x="618" 
d="M189 201l-84 -85l-27 27l83 83c-29 31 -47 73 -47 124s18 93 47 124l-83 83l27 27l84 -85c34 25 76 38 120 38s86 -13 119 -38l85 85l27 -27l-84 -83c29 -31 47 -73 47 -124s-18 -93 -47 -124l84 -83l-27 -27l-85 85c-33 -25 -75 -38 -119 -38s-86 13 -120 38zM152 350
c0 -93 71 -152 157 -152c85 0 156 59 156 152c0 92 -71 152 -156 152c-86 0 -157 -59 -157 -152z" />
    <glyph glyph-name="dollar.tf" horiz-adv-x="618" 
d="M329 -130h-34v120c-77 3 -156 25 -216 58v40c70 -40 159 -61 239 -61c108 0 198 33 198 132c0 222 -438 120 -438 363c0 116 102 165 216 168v120h34v-120c66 -3 132 -20 181 -48v-39c-54 31 -132 50 -199 50c-103 0 -192 -34 -192 -130c0 -210 438 -109 438 -361
c0 -124 -105 -171 -227 -173v-119z" />
    <glyph glyph-name="Euro.tf" horiz-adv-x="618" 
d="M144 252c38 -151 180 -225 317 -225c44 0 85 7 125 21v-38c-41 -13 -87 -21 -132 -21c-153 0 -313 88 -351 263h-88v34h82c-2 15 -3 31 -3 48c0 21 2 41 5 60h-84v34h90c42 172 198 263 343 263c45 0 91 -7 133 -21v-37c-39 13 -82 20 -126 20c-129 0 -267 -76 -308 -225
h344v-34h-352c-3 -19 -5 -39 -5 -60c0 -17 1 -33 3 -48h354v-34h-347z" />
    <glyph glyph-name="sterling.tf" horiz-adv-x="618" 
d="M570 0h-530v38h45c41 0 66 34 66 82v199h-78v38h78v106c0 163 109 227 228 227c51 0 104 -14 143 -38v-38c-40 25 -91 39 -139 39c-103 0 -192 -53 -192 -191v-105h247v-38h-247v-199c0 -39 -13 -69 -36 -82h415v-38z" />
    <glyph glyph-name="yen.tf" horiz-adv-x="618" 
d="M543 680h44l-240 -371h166v-34h-184v-87h184v-34h-184v-154h-40v154h-184v34h184v87h-184v34h166l-240 371h44l234 -364z" />
    <glyph glyph-name="approxequal" unicode="&#x2248;" horiz-adv-x="582" 
d="M509 471c1 -53 -33 -91 -89 -91c-73 0 -179 67 -251 67c-36 0 -56 -22 -55 -55h-37c-1 55 34 91 89 91c75 0 177 -66 250 -66c35 0 57 20 56 54h37zM509 327c1 -54 -33 -92 -89 -92c-73 0 -179 67 -251 67c-36 0 -56 -22 -55 -55h-37c-1 55 34 91 89 91
c75 0 177 -66 250 -66c35 0 57 21 56 55h37z" />
    <glyph glyph-name="asciitilde" unicode="~" horiz-adv-x="581" 
d="M509 369c1 -53 -33 -91 -89 -91c-73 0 -179 67 -251 67c-36 0 -56 -22 -55 -55h-37c-1 55 34 91 89 91c75 0 177 -66 250 -66c35 0 57 20 56 54h37z" />
    <glyph glyph-name="divide" unicode="&#xf7;" horiz-adv-x="638" 
d="M559 332h-480v36h480v-36zM349 125c0 -18 -13 -29 -30 -29c-16 0 -30 11 -30 29c0 19 14 29 30 29c17 0 30 -10 30 -29zM349 572c0 -18 -13 -29 -30 -29c-16 0 -30 11 -30 29c0 19 14 29 30 29c17 0 30 -10 30 -29z" />
    <glyph glyph-name="emptyset" unicode="&#x2205;" horiz-adv-x="820" 
d="M723 700l-71 -83c73 -66 119 -161 119 -267c0 -199 -163 -361 -361 -361c-86 0 -165 31 -227 81l-60 -70h-26l71 83c-73 66 -119 162 -119 267c0 199 162 361 361 361c86 0 165 -31 227 -81l60 70h26zM411 688c-187 0 -338 -152 -338 -338c0 -98 42 -188 111 -249
l439 512c-58 47 -132 75 -212 75zM199 88c58 -47 132 -76 212 -76c186 0 338 152 338 338c0 98 -43 188 -111 250z" />
    <glyph glyph-name="equal" unicode="=" horiz-adv-x="543" 
d="M470 422h-397v37h397v-37zM470 241h-397v37h397v-37z" />
    <glyph glyph-name="greater" unicode="&#x3e;" horiz-adv-x="483" 
d="M437 330l-361 -159v38l322 141l-322 141v38l361 -159v-40z" />
    <glyph glyph-name="greaterequal" unicode="&#x2265;" horiz-adv-x="514" 
d="M441 340l-361 -159v38l322 141l-322 140v38l361 -159v-39zM441 0h-361v36h361v-36z" />
    <glyph glyph-name="infinity" unicode="&#x221e;" horiz-adv-x="827" 
d="M414 389c47 71 98 140 193 140c89 0 164 -64 164 -171s-75 -171 -164 -171c-95 0 -147 69 -194 140c-46 -71 -97 -140 -192 -140c-90 0 -165 64 -165 171s75 171 165 171c95 0 146 -69 193 -140zM393 357c-45 71 -88 136 -168 136c-71 0 -131 -47 -131 -135
s60 -135 131 -135c80 0 124 65 168 134zM733 358c0 88 -60 135 -132 135c-79 0 -123 -65 -167 -134c45 -71 88 -136 167 -136c72 0 132 47 132 135z" />
    <glyph glyph-name="integral" unicode="&#x222b;" horiz-adv-x="396" 
d="M179 656c0 103 73 135 136 135c28 0 54 -6 71 -14v-36c-18 8 -40 13 -67 13c-47 0 -102 -21 -102 -99v-751c0 -103 -73 -135 -136 -135c-27 0 -54 7 -71 14v36c18 -8 40 -13 64 -13c51 0 105 20 105 99v751z" />
    <glyph glyph-name="less" unicode="&#x3c;" horiz-adv-x="483" 
d="M407 209v-38l-361 159v40l361 159v-38l-322 -141z" />
    <glyph glyph-name="lessequal" unicode="&#x2264;" horiz-adv-x="514" 
d="M434 219v-38l-361 159v39l361 159v-38l-322 -140zM434 0h-361v36h361v-36z" />
    <glyph glyph-name="logicalnot" unicode="&#xac;" horiz-adv-x="579" 
d="M503 294h-38v150h-392v36h430v-186z" />
    <glyph glyph-name="minus" unicode="&#x2212;" horiz-adv-x="515" 
d="M442 330h-369v36h369v-36z" />
    <glyph glyph-name="multiply" unicode="&#xd7;" horiz-adv-x="451" 
d="M226 326l-133 -133l-25 25l133 133l-133 132l25 25l133 -132l132 132l25 -25l-133 -132l133 -133l-25 -25z" />
    <glyph glyph-name="notequal" unicode="&#x2260;" horiz-adv-x="543" 
d="M158 140h-35l63 101h-113v37h135l92 144h-227v37h249l63 101h36l-64 -101h113v-37h-135l-92 -144h227v-37h-248z" />
    <glyph glyph-name="partialdiff" unicode="&#x2202;" horiz-adv-x="594" 
d="M538 267c0 -173 -100 -278 -247 -278c-140 0 -244 92 -244 234c0 133 107 225 231 225c100 0 201 -56 225 -168c0 7 0 15 -1 23c-17 254 -205 361 -401 361v36c222 0 437 -132 437 -433zM85 223c0 -121 85 -197 206 -197c113 0 184 69 203 175c-3 139 -104 211 -211 211
c-110 0 -198 -76 -198 -189z" />
    <glyph glyph-name="percent" unicode="%" horiz-adv-x="879" 
d="M255 -60h-39l409 820h39zM339 564c0 -96 -72 -147 -151 -147s-152 51 -152 147s73 147 152 147s151 -51 151 -147zM73 564c0 -70 50 -113 116 -113c64 0 115 43 115 113s-51 113 -115 113c-66 0 -116 -43 -116 -113zM843 136c0 -96 -72 -147 -151 -147s-152 51 -152 147
s73 147 152 147s151 -51 151 -147zM577 136c0 -70 50 -113 116 -113c64 0 115 43 115 113s-51 113 -115 113c-66 0 -116 -43 -116 -113z" />
    <glyph glyph-name="perthousand" unicode="&#x2030;" horiz-adv-x="1249" 
d="M255 -60h-39l409 820h39zM339 564c0 -96 -72 -147 -151 -147s-152 51 -152 147s73 147 152 147s151 -51 151 -147zM73 564c0 -70 50 -113 116 -113c64 0 115 43 115 113s-51 113 -115 113c-66 0 -116 -43 -116 -113zM843 136c0 -96 -72 -147 -151 -147s-152 51 -152 147
s73 147 152 147s151 -51 151 -147zM577 136c0 -70 50 -113 116 -113c64 0 115 43 115 113s-51 113 -115 113c-66 0 -116 -43 -116 -113zM1214 136c0 -96 -72 -147 -151 -147s-152 51 -152 147s73 147 152 147s151 -51 151 -147zM948 136c0 -70 50 -113 116 -113
c64 0 115 43 115 113s-51 113 -115 113c-66 0 -116 -43 -116 -113z" />
    <glyph glyph-name="plus" unicode="+" horiz-adv-x="534" 
d="M285 368h197v-36h-197v-197h-36v197h-197v36h197v197h36v-197z" />
    <glyph glyph-name="plusminus" unicode="&#xb1;" horiz-adv-x="578" 
d="M307 579v-197h197v-37h-197v-197h-36v197h-197v37h197v197h36zM504 0h-430v36h430v-36z" />
    <glyph glyph-name="product" unicode="&#x220f;" horiz-adv-x="730" 
d="M178 -220h-40v882h-101v38h656v-38h-101v-882h-40v882h-374v-882z" />
    <glyph glyph-name="radical" unicode="&#x221a;" horiz-adv-x="718" 
d="M349 0h-36l-188 442h-95v38h120l181 -434l343 734h42z" />
    <glyph glyph-name="summation" unicode="&#x2211;" horiz-adv-x="562" 
d="M509 0h-469v24l284 326l-284 326v24h466v-38h-402l267 -307v-10l-267 -307h405v-38z" />
    <glyph glyph-name="lozenge" unicode="&#x25ca;" horiz-adv-x="547" 
d="M295 0h-43l-213 350l213 350h43l213 -350zM83 350l191 -311l192 311l-192 311z" />
    <glyph glyph-name="bar" unicode="|" horiz-adv-x="192" 
d="M116 -100h-40v910h40v-910z" />
    <glyph glyph-name="brokenbar" unicode="&#xa6;" horiz-adv-x="210" 
d="M125 463h-40v347h40v-347zM125 -100h-40v347h40v-347z" />
    <glyph glyph-name="at" unicode="@" horiz-adv-x="1056" 
d="M50 240c0 241 173 471 486 471c305 0 465 -240 465 -432c0 -181 -77 -270 -181 -270c-81 0 -133 43 -142 125c-31 -61 -94 -102 -169 -102c-112 0 -195 82 -195 206c0 123 83 206 195 206c77 0 138 -44 166 -99v90h37v-280c0 -69 36 -112 108 -112c86 0 142 85 142 236
c0 178 -149 394 -426 394c-286 0 -446 -208 -446 -433c0 -278 218 -433 468 -433c79 0 152 11 223 36v-38c-73 -26 -144 -36 -224 -36c-266 0 -507 167 -507 471zM675 290c-20 64 -81 118 -162 118c-90 0 -161 -65 -161 -170s71 -170 161 -170c81 0 142 54 162 118v104z" />
    <glyph glyph-name="ampersand" unicode="&#x26;" horiz-adv-x="688" 
d="M551 113l125 -113h-48l-99 88c-57 -59 -140 -99 -248 -99c-144 0 -226 77 -226 174s85 161 161 206c-47 46 -97 107 -97 173c0 89 79 169 203 169c103 0 174 -58 174 -140c0 -99 -125 -156 -220 -209l6 -6l240 -217c39 51 59 115 58 178h40c0 -71 -23 -144 -69 -204z
M322 674c-104 0 -164 -63 -164 -132c0 -58 47 -112 91 -155c87 47 208 101 208 181c0 63 -53 106 -135 106zM95 164c0 -79 67 -138 188 -138c93 0 167 35 218 88l-253 225c-2 1 -3 3 -5 4c-73 -42 -148 -96 -148 -179z" />
    <glyph glyph-name="paragraph" unicode="&#xb6;" horiz-adv-x="601" 
d="M291 -220h-40v512c-134 0 -216 76 -216 204s82 204 216 204h265v-920h-39v882h-186v-882z" />
    <glyph glyph-name="copyright" unicode="&#xa9;" horiz-adv-x="854" 
d="M800 350c0 -240 -198 -361 -373 -361s-373 121 -373 361s198 361 373 361s373 -121 373 -361zM573 183c-40 -21 -83 -34 -133 -34c-95 0 -197 60 -197 193c0 147 108 209 208 209c46 0 88 -13 122 -35v-30c-34 22 -75 34 -117 34c-88 0 -180 -49 -180 -177
c0 -115 85 -163 171 -163c43 0 89 13 126 33v-30zM73 350c0 -228 186 -343 354 -343c169 0 355 115 355 343s-186 343 -355 343c-168 0 -354 -115 -354 -343z" />
    <glyph glyph-name="registered" unicode="&#xae;" horiz-adv-x="854" 
d="M800 350c0 -240 -198 -361 -373 -361s-373 121 -373 361s198 361 373 361s373 -121 373 -361zM73 350c0 -228 186 -343 354 -343c169 0 355 115 355 343s-186 343 -355 343c-168 0 -354 -115 -354 -343zM325 150h-30v395h155c55 0 146 -21 146 -122
c0 -72 -45 -100 -91 -110l114 -163h-34l-110 158c-11 -1 -21 -1 -29 -1h-121v-157zM325 515v-179h123c44 0 118 6 118 87c0 82 -75 92 -118 92h-123z" />
    <glyph glyph-name="section" unicode="&#xa7;" horiz-adv-x="486" 
d="M422 88c0 -82 -84 -122 -179 -122c-62 0 -129 17 -171 45v36c44 -30 112 -47 169 -47c79 0 143 29 143 88c0 70 -73 90 -152 113c-85 23 -173 47 -173 140c0 64 49 107 98 133c-50 21 -88 52 -88 112c0 83 81 125 169 125c57 0 118 -17 157 -40v-36
c-39 25 -101 42 -155 42c-71 0 -133 -32 -133 -90c0 -73 80 -90 164 -113c81 -22 163 -48 163 -139c0 -65 -51 -104 -104 -130c51 -21 92 -53 92 -117zM243 235c16 -5 33 -9 49 -15c47 17 105 51 105 110c0 69 -65 90 -137 110c-21 6 -44 12 -65 19
c-44 -15 -99 -55 -99 -113c0 -71 71 -90 147 -111z" />
    <glyph glyph-name="trademark" unicode="&#x2122;" horiz-adv-x="660" 
d="M331 448h-25v252h29l107 -151l107 151h29v-252h-25v216l-104 -145h-15l-103 145v-216zM162 448h-25v228h-91v24h207v-24h-91v-228z" />
    <glyph glyph-name="degree" unicode="&#xb0;" horiz-adv-x="392" 
d="M343 573c0 -91 -71 -144 -147 -144s-147 53 -147 144c0 90 71 144 147 144s147 -54 147 -144zM79 573c0 -71 54 -114 117 -114s117 43 117 114s-54 114 -117 114s-117 -43 -117 -114z" />
    <glyph glyph-name="asciicircum" unicode="^" horiz-adv-x="495" 
d="M96 398h-43l177 302h34l178 -302h-43l-152 260z" />
    <glyph glyph-name="dagger" unicode="&#x2020;" horiz-adv-x="488" 
d="M264 -220h-40v662h-190v38h190v220h40v-220h190v-38h-190v-662z" />
    <glyph glyph-name="daggerdbl" unicode="&#x2021;" horiz-adv-x="519" 
d="M279 -220h-39v328h-190v38h190v296h-190v38h190v220h39v-220h190v-38h-190v-296h190v-38h-190v-328z" />
    <glyph glyph-name="acute" unicode="&#xb4;" horiz-adv-x="170" 
d="M71 776h-43l89 137h47z" />
    <glyph glyph-name="breve" unicode="&#x2d8;" horiz-adv-x="321" 
d="M289 820c-38 -31 -81 -42 -128 -42s-90 11 -128 42v39c42 -33 81 -44 128 -44s86 11 128 44v-39z" />
    <glyph glyph-name="caron" unicode="&#x2c7;" horiz-adv-x="275" 
d="M282 897l-128 -131h-33l-128 131h44l101 -101l100 101h44z" />
    <glyph glyph-name="cedilla" unicode="&#xb8;" horiz-adv-x="211" 
d="M85 0h34l-21 -86c61 11 117 -11 118 -63c1 -50 -42 -82 -118 -82c-41 0 -72 9 -98 22v33c27 -15 58 -23 94 -23c62 0 89 23 88 51c0 40 -64 50 -124 35z" />
    <glyph glyph-name="circumflex" unicode="&#x2c6;" horiz-adv-x="275" 
d="M121 907h33l128 -131h-44l-100 101l-101 -101h-44z" />
    <glyph glyph-name="dieresis" unicode="&#xa8;" horiz-adv-x="282" 
d="M273 836c0 -17 -14 -31 -31 -31s-31 14 -31 31c0 16 14 31 31 31s31 -15 31 -31zM72 836c0 -17 -14 -31 -31 -31s-31 14 -31 31c0 16 14 31 31 31s31 -15 31 -31z" />
    <glyph glyph-name="dotaccent" unicode="&#x2d9;" horiz-adv-x="92" 
d="M10 820c0 22 17 35 36 35c20 0 36 -13 36 -35s-16 -36 -36 -36c-19 0 -36 14 -36 36z" />
    <glyph glyph-name="grave" unicode="`" horiz-adv-x="170" 
d="M148 776h-42l-94 137h48z" />
    <glyph glyph-name="hungarumlaut" unicode="&#x2dd;" horiz-adv-x="318" 
d="M218 779h-41l74 143h43zM65 779h-41l74 143h43z" />
    <glyph glyph-name="macron" unicode="&#xaf;" horiz-adv-x="312" 
d="M24 840h264v-36h-264v36z" />
    <glyph glyph-name="ogonek" unicode="&#x2db;" horiz-adv-x="206" 
d="M125 0h42c-62 -42 -114 -96 -114 -144c0 -33 22 -55 62 -55c23 0 47 7 69 20v-32c-22 -13 -49 -20 -77 -20c-58 -1 -90 33 -90 80c0 51 42 105 108 151z" />
    <glyph glyph-name="ring" unicode="&#x2da;" horiz-adv-x="206" 
d="M195 844c0 -55 -44 -90 -92 -90c-49 0 -93 35 -93 90c0 53 44 88 93 88c48 0 92 -35 92 -88zM41 843c0 -38 30 -61 62 -61s62 23 62 61s-30 61 -62 61s-62 -23 -62 -61z" />
    <glyph glyph-name="tilde" unicode="&#x2dc;" horiz-adv-x="319" 
d="M308 863c6 -50 -21 -81 -63 -81c-56 0 -121 53 -163 53c-26 0 -40 -19 -37 -48h-34c-7 50 23 82 63 82c55 0 121 -53 163 -53c28 0 40 18 37 47h34z" />
    <glyph glyph-name="uni0326" unicode="&#x326;" horiz-adv-x="100" 
d="M55 -218h-34l21 172h38z" />
    <glyph glyph-name="A" unicode="A" horiz-adv-x="708" 
d="M57 0h-43l318 700h45l317 -700h-42l-93 204h-410zM347 642l-181 -401h378l-181 401c-3 6 -5 12 -8 18c-3 -6 -5 -12 -8 -18z" />
    </font>
</defs>
</svg>
